SplineFontDB: 3.0
FontName: FantasqueSansMono-BoldItalic
FullName: Fantasque Sans Mono Bold Italic
FamilyName: Fantasque Sans Mono
Weight: Bold
Copyright: Created by Jany Belluz with FontForge 2.0 (http://fontforge.sf.net)
UComments: "2013-9-13: Created." 
Version: 1.6.1
ItalicAngle: -11
UnderlinePosition: -192
UnderlineWidth: 96
Ascent: 1650
Descent: 398
LayerCount: 2
Layer: 0 0 "Back"  1
Layer: 1 0 "Fore"  0
XUID: [1021 607 50037791 3178130]
FSType: 8
OS2Version: 3
OS2_WeightWidthSlopeOnly: 0
OS2_UseTypoMetrics: 1
CreationTime: 1379052706
ModificationTime: 1392646030
PfmFamily: 49
TTFWeight: 700
TTFWidth: 5
LineGap: 0
VLineGap: 0
Panose: 2 11 8 9 2 2 4 3 2 4
OS2TypoAscent: 1650
OS2TypoAOffset: 0
OS2TypoDescent: -398
OS2TypoDOffset: 0
OS2TypoLinegap: 100
OS2WinAscent: 1750
OS2WinAOffset: 0
OS2WinDescent: 398
OS2WinDOffset: 0
HheadAscent: 1750
HheadAOffset: 0
HheadDescent: -398
HheadDOffset: 0
OS2Vendor: 'PfEd'
MarkAttachClasses: 1
DEI: 91125

StartChar: a
Encoding: 97 97 0
Width: 1060
VWidth: 6
Flags: W
HStem: -31 21G<852.5 896.939> -11 200<330.5 589.68> 819 209<542.194 761.696>
VStem: 144 249<196.7 585.735> 775 186<79.3457 275>
LayerCount: 2
Back
SplineSet
379.618 317 m 0
 360.569 219 423.738 189 487.738 189 c 0
 597.738 189 699.564 291 728.45 347 c 1
 737.586 394 l 1
 709.75 436 648.358 470 584.358 470 c 0
 518.358 470 401 427 379.618 317 c 0
966.424 316 m 2
 948.541 224 957.434 172 1005.69 127 c 1
 863.724 -22 l 1
 819.499 18 787.637 29 759.633 101 c 1
 668.471 23 579.861 -11 397.861 -11 c 0
 226.861 -11 88.3252 120 123.703 302 c 0
 141.197 392 188.108 479 258.966 540 c 0
 372.82 637 481.234 670 623.234 670 c 0
 687.234 670 749.152 649 782.099 623 c 1
 814.366 789 704.392 820 644.392 820 c 0
 529.392 820 459 811 364.509 749 c 1
 225 913 l 1
 425 1037 514.24 1023.27 692.823 1028 c 1
 917.823 1028 1078.58 893 1032.32 655 c 0
 966.424 316 l 2
EndSplineSet
Fore
SplineSet
418 513 m 0x78
 400 423 393 358 393 311 c 0
 393 190 442 189 488 189 c 0
 598 189 716 375 745 431 c 1
 803 729 l 1
 775 771 716 819 652 819 c 0
 586 819 470 779 418 513 c 0x78
966 316 m 2
 963 299 961 283 961 267 c 0
 961 196 992 138 1031 101 c 1
 873 -31 l 1xb8
 832 6 775 72 775 165 c 0
 775 172 775 178 776 185 c 1
 695 49 580 -11 398 -11 c 0
 263 -11 144 51 144 302 c 0
 144 368 153 448 171 543 c 0
 248 937 505 1028 651 1028 c 1
 732 1028 815 997 853 941 c 1
 873 1025 l 5
 1103 1013 l 4
 966 316 l 2
EndSplineSet
Validated: 1
EndChar

StartChar: b
Encoding: 98 98 1
Width: 1060
VWidth: -2
Flags: W
HStem: -7 180<493.839 673.206> 813 200<629.835 891.5>
VStem: 369 249<1117.11 1403> 805 251<392.173 804.654>
LayerCount: 2
Back
SplineSet
780.914 478 m 0
 832.036 741 773.031 813 681.031 813 c 0
 609.031 813 533.453 738 489.762 683 c 1
 424.839 349 l 1
 456.012 247 512.628 173 573.628 173 c 0
 681.628 173 743.981 288 780.914 478 c 0
1032.22 459 m 0
 972.546 152 823.64 -7 572.64 -7 c 0
 448.64 -7 378.775 40 351.077 93 c 1
 342.913 51 286.473 -13 286.473 -13 c 1
 94.3604 7 l 1
 117.189 73 143.101 160 159.234 243 c 0
 160.789 251 162.345 259 163.899 267 c 0
 212.3 516 281.472 877 335.898 1157 c 0
 354.17 1251 362.498 1335 368.716 1403 c 1
 617.465 1412 l 1
 612.275 1339 598.615 1243 580.926 1152 c 0
 563.432 1062 546.741 1007 513.773 930 c 1
 556.217 958 640.907 1013 754.907 1013 c 0
 1026.91 1013 1104.53 831 1032.22 459 c 0
EndSplineSet
Fore
SplineSet
781 478 m 0
 798 563 805 629 805 678 c 0
 805 780 774 813 738 813 c 0
 600 813 519 690 468 570 c 1
 425 349 l 1
 456 247 513 173 574 173 c 0
 682 173 744 288 781 478 c 0
1032 459 m 0
 972 152 824 -7 573 -7 c 0
 449 -7 379 40 351 93 c 1
 343 51 286 -13 286 -13 c 1
 94 7 l 1
 117 73 143 160 159 243 c 0
 161 251 162 259 164 267 c 0
 212 516 282 877 336 1157 c 0
 354 1251 363 1335 369 1403 c 1
 618 1412 l 1
 613 1339 584 1169 566 1078 c 0
 549 988 507 903 474 826 c 1
 522 883 609 1013 819 1013 c 0
 964 1013 1056 903 1056 679 c 0
 1056 615 1048 542 1032 459 c 0
EndSplineSet
Validated: 1
EndChar

StartChar: c
Encoding: 99 99 2
Width: 1060
VWidth: 4
Flags: W
HStem: -7 210<467.133 721.91> 807 211<570.319 872.893>
VStem: 152 264<251.475 618.581>
LayerCount: 2
Back
SplineSet
429.633 528 m 0
 367.625 209 534.459 203 581.459 203 c 2
 593.459 203 l 2
 693.459 203 760.288 269 824.033 350 c 1
 1023.99 216 l 1
 926.829 66 780.64 -7 562.64 -7 c 0
 458.64 -7 337.194 1 255.189 73 c 1
 144.822 174 134.757 328 173.438 527 c 0
 239.527 867 446.879 1018 761.879 1018 c 0
 856.879 1018 950.186 999 1005.02 957 c 0
 1057.25 917 1091.78 858 1103.67 806 c 1
 863.844 704 l 1
 861.23 742 842.865 807 702.865 807 c 0
 555.865 807 457.43 671 429.633 528 c 0
EndSplineSet
Fore
SplineSet
430 528 m 0
 420 479 416 437 416 402 c 0
 416 208 541 203 581 203 c 2
 593 203 l 2
 693 203 760 269 824 350 c 1
 1024 216 l 1
 927 66 781 -7 563 -7 c 0
 459 -7 337 1 255 73 c 1
 182 140 152 230 152 342 c 0
 152 398 160 460 173 527 c 0
 239 867 447 1018 762 1018 c 0
 944 1018 1060 960 1144 876 c 1
 972 676 l 1
 952 720 843 807 703 807 c 0
 556 807 458 671 430 528 c 0
EndSplineSet
Validated: 1
EndChar

StartChar: d
Encoding: 100 100 3
Width: 1060
VWidth: -2
Flags: W
HStem: -7 180<353.103 584.234> 813 200<580.229 764.116>
VStem: 167 252<174.14 564.302> 734 226<7.46552 174> 966 246<1242.2 1403>
LayerCount: 2
Back
SplineSet
440.914 478 m 4
 403.981 288 421.628 173 529.628 173 c 4
 590.628 173 675.012 247 745.839 349 c 5
 810.762 683 l 5
 788.453 738 742.031 813 670.031 813 c 4
 578.031 813 492.036 741 440.914 478 c 4
182.221 459 m 4
 256.279 840 411.907 1013 674.907 1013 c 4
 788.907 1013 851.217 958 882.773 930 c 5
 879.741 1007 884.432 1062 901.926 1152 c 4
 919.615 1243 943.275 1339 966.465 1412 c 5
 1212.72 1403 l 5
 1192.5 1335 1168.17 1251 1149.9 1157 c 4
 1095.47 877 1023.3 516 974.899 267 c 4
 973.345 259 971.789 251 970.234 243 c 4
 954.101 160 947.189 73 944.36 7 c 5
 744.473 -13 l 5
 744.473 -13 711.913 51 720.077 93 c 5
 671.775 40 583.64 -7 459.64 -7 c 4
 208.64 -7 122.546 152 182.221 459 c 4
EndSplineSet
Fore
SplineSet
441 478 m 0
 426 401 419 337 419 287 c 0
 419 214 435 173 465 173 c 1
 555 173 681 260 769 470 c 1
 811 683 l 1
 789 738 757 813 670 813 c 0
 616 813 492 741 441 478 c 0
182 459 m 0
 256 840 412 1013 675 1013 c 0
 789 1013 851 958 883 930 c 1
 882 944 882 957 882 970 c 0
 882 1028 888 1078 902 1152 c 0
 920 1243 943 1339 966 1412 c 1
 1212 1403 l 1
 1192 1335 1168 1251 1150 1157 c 0
 1096 877 1023 516 975 267 c 0
 973 259 972 251 970 243 c 0
 963 209 960 172 960 136 c 0
 960 85 967 37 981 6 c 1
 766 -10 l 1
 752 5 734 95 734 148 c 0
 734 158 735 167 736 174 c 1
 674 49 554 -7 430 -7 c 0
 280 -7 167 103 167 315 c 0
 167 359 172 407 182 459 c 0
EndSplineSet
Validated: 1
EndChar

StartChar: e
Encoding: 101 101 4
Width: 1060
VWidth: 32
Flags: W
HStem: -10 206<468.529 790.575> 818 203<557.305 786.12>
VStem: 163 250<255.519 399.541> 813 253<631.125 791.478>
LayerCount: 2
Back
SplineSet
453.795 606 m 1
 570.682 626 665.46 630 798.46 630 c 1
 818.924 761 758.003 818 670.003 818 c 0
 568.003 818 482.343 722 453.795 606 c 1
707.462 1021 m 0
 1026.46 1021 1095.03 813 1029.72 477 c 1
 1025.83 457 1020.36 434 1020.36 434 c 1
 734.584 430 518.862 416 412.975 396 c 1
 407.398 285 478.099 196 570.099 196 c 1
 676.099 196 731.097 232 813.48 306 c 1
 961.157 150 l 1
 838.387 38 763.057 -10 524.057 -10 c 1
 238.057 -10 117.459 203 178.3 516 c 0
 233.893 802 424.462 1021 707.462 1021 c 0
EndSplineSet
Fore
SplineSet
454 606 m 1
 479 610 514 611 552 611 c 0
 571 611 590 611 610 611 c 0
 679 611 747 613 778 633 c 0
 798 646 813 678 813 711 c 0
 813 762 778 818 670 818 c 0
 568 818 483 722 454 606 c 1
707 1021 m 0
 988 1021 1066 852 1066 717 c 0
 1066 678 1060 643 1050 615 c 0
 958 349 544 421 413 396 c 1
 413 392 413 387 413 383 c 0
 413 278 482 196 570 196 c 1
 676 196 790 223 888 295 c 1
 990 115 l 1
 820 25 763 -10 524 -10 c 1
 286 -10 163 137 163 366 c 0
 163 413 168 463 178 516 c 0
 234 802 424 1021 707 1021 c 0
EndSplineSet
Validated: 1
EndChar

StartChar: f
Encoding: 102 102 5
Width: 1060
VWidth: -2
Flags: W
HStem: 0 21G<242 502.866> 807 205<295 399 696 979.063> 1217 201<751.602 1130.8>
LayerCount: 2
Back
SplineSet
877.561 1217 m 0
 745.561 1217 720.177 1143 708.514 1083 c 0
 703.266 1056 695.713 1012 695.713 1012 c 1
 763.713 1012 806.713 1012 879.713 1012 c 1
 984.713 1012 1023.38 1000 1051.63 991 c 1
 969.338 794 l 1
 949.698 801 929.865 807 873.865 807 c 2
 654.865 807 l 1
 499 0 l 1
 242 0 l 1
 398.865 807 l 1
 255.865 807 l 1
 295.713 1012 l 1
 438.713 1012 l 1
 441.823 1028 445.127 1045 448.82 1064 c 0
 474.09 1194 583.631 1418 899.631 1418 c 0
 1095.63 1418 1216.47 1376 1264.34 1221 c 1
 1033.48 1124 l 1
 1023.42 1206 967.561 1217 877.561 1217 c 0
EndSplineSet
Fore
SplineSet
1116 1154 m 1
 1044 1211 934 1217 878 1217 c 0
 746 1217 721 1143 709 1083 c 0
 704 1056 696 1012 696 1012 c 1
 764 1012 795 1012 868 1012 c 1
 973 1012 1012 1000 1040 991 c 1
 980 794 l 1
 960 801 941 807 885 807 c 2
 655 807 l 1
 499 0 l 1
 242 0 l 1
 399 807 l 1
 273 807 l 1
 295 1012 l 1
 439 1012 l 1
 442 1028 445 1045 449 1064 c 0
 474 1194 584 1418 900 1418 c 0
 986 1418 1134 1397 1226 1353 c 1
 1116 1154 l 1
EndSplineSet
Validated: 1
EndChar

StartChar: g
Encoding: 103 103 6
Width: 1060
VWidth: 14
Flags: W
HStem: -402 217<249.286 570.241> -8 219<388.111 544.577> 827 207<535.487 790.291>
VStem: 141 233<218.288 614.43>
LayerCount: 2
Back
SplineSet
505.234 -184 m 2
 567.234 -184 705.037 -149 724.087 -51 c 0
 732.057 -10 716.471 23 602.471 23 c 0
 335.276 22 l 1
 306.445 -8 300.225 -40 291.672 -84 c 0
 279.62 -146 346.234 -184 415.234 -184 c 2
 505.234 -184 l 2
786.12 726 m 0
 802.837 812 729.78 822 643.78 822 c 0
 555.78 822 480.949 792 466.371 717 c 0
 448.877 627 511.434 599 601.434 599 c 0
 719.434 599 771.542 651 786.12 726 c 0
1029.2 819 m 1
 1029.2 819 1045.92 797 1030.18 716 c 0
 995.966 540 864.558 399 584.558 399 c 2
 581.558 399 l 2
 506.558 399 449.918 406 437.085 412 c 1
 413.809 390 397.561 363 391.729 333 c 0
 384.926 298 393.541 224 499.541 224 c 0
 678.541 224 l 0
 831.541 224 1018.6 178 979.529 -23 c 0
 936.183 -246 693.358 -384 520.358 -384 c 3
 459.358 -384 447.358 -384 365.358 -384 c 0
 161.358 -384 23.0469 -293 64.8379 -78 c 0
 84.4707 23 131.883 92 194.019 139 c 1
 153.822 174 129.956 257 146.673 343 c 0
 166.305 444 214.635 492 259.604 533 c 1
 230.324 583 200.516 620 214.9 694 c 0
 260.579 929 440.435 1026 694.435 1026 c 0
 794.435 1026 887.713 1012 954.577 965 c 1
 1012.52 1011 1070.43 1026 1186.43 1026 c 1
 1146.78 822 l 1
 1135.17 824 1116.75 827 1106.75 827 c 0
 1072.75 827 1054.36 825 1029.2 819 c 1
EndSplineSet
Fore
SplineSet
374 346 m 0
 374 234 409 211 454 211 c 0
 552 211 813 504 843 601 c 1
 862 714 l 1
 832 752 762 827 658 827 c 0
 508 827 374 653 374 346 c 0
1170 1013 m 1
 1041 356 l 2
 965 -29 825 -402 429 -402 c 0
 314 -402 173 -360 0 -257 c 1
 99 -55 l 1
 244 -156 357 -185 446 -185 c 0
 658 -185 739 110 777 233 c 1
 719 149 608 -8 396 -8 c 0
 241 -8 141 140 141 343 c 0
 141 732 366 1034 679 1034 c 0
 805 1034 872 981 920 948 c 1
 924 967 934 1003 940 1025 c 1
 1170 1013 l 1
EndSplineSet
Validated: 1
EndChar

StartChar: p
Encoding: 112 112 7
Width: 1060
VWidth: -2
Flags: W
HStem: -8 201<448.967 665.666> 811 202<643.744 914> 1002 20G<319.769 499>
VStem: 27 249<-398 -118.344> 266 234<834.691 996> 807 258<447.605 808.288>
LayerCount: 2
Back
SplineSet
784.216 531 m 0xd0
 821.731 724 801.643 811 713.643 811 c 0
 584.643 811 527.619 744 465.514 656 c 1
 400.452 311 l 1
 427.178 253 469.516 193 544.516 193 c 0
 659.516 193 732.316 264 784.216 531 c 0xd0
237.647 739 m 1
 242.701 765 l 2
 258.835 848 262.968 931 265.603 996 c 1
 498.656 1022 l 1xb0
 502.991 998 502.605 960 499.024 921 c 1
 567.076 983 656.519 1011 768.519 1011 c 0
 1043.52 1011 1096.2 819 1044.1 551 c 0
 978.792 215 862.445 -8 500.445 -8 c 0
 400.445 -8 360.637 29 337.663 60 c 1
 333.888 20 333.695 -17 328.143 -61 c 1
 310.454 -152 l 2
 292.183 -246 282.854 -330 276.637 -398 c 1
 27.2764 -405 l 1
 32.4658 -332 45.9316 -237 63.6201 -146 c 2
 237.647 739 l 1
EndSplineSet
Fore
SplineSet
784 531 m 0xc4
 799 609 807 669 807 714 c 0
 807 780 790 811 752 811 c 0
 623 811 485 604 432 484 c 1
 400 311 l 1
 427 253 470 193 545 193 c 0
 660 193 732 264 784 531 c 0xc4
238 739 m 1
 243 765 l 2
 259 848 263 931 266 996 c 1
 499 1022 l 1xac
 499 1020 500 1015 500 1011 c 0
 500 972 486 868 482 833 c 1
 530 916 659 1013 827 1013 c 0
 1001 1013 1065 906 1065 740 c 0
 1065 683 1057 619 1044 551 c 0
 979 215 862 -8 500 -8 c 0xcc
 400 -8 361 29 338 60 c 1
 334 20 334 -17 328 -61 c 1
 310 -152 l 2
 292 -246 282 -330 276 -398 c 1
 27 -405 l 1xd4
 32 -332 46 -237 64 -146 c 2
 238 739 l 1
EndSplineSet
Validated: 1
EndChar

StartChar: h
Encoding: 104 104 8
Width: 1060
VWidth: -2
Flags: W
HStem: -11 11G<88 336.876 793 845.023> 796 217<658.716 810.453>
VStem: 345 250<1121.6 1402> 726 258<72.8385 387.211> 816 251<411.625 794.784>
LayerCount: 2
Back
SplineSet
1052.02 566 m 1
 984.375 218 l 0
 968.436 136 975.772 76 993.775 40 c 1
 752.225 -40 l 1
 735.445 -8 708.829 66 730.211 176 c 0
 791.44 491 l 1
 851.504 800 758.031 813 666.031 813 c 0
 589.031 813 509.258 737 465.567 682 c 1
 333 0 l 1
 88 0 l 1
 312.704 1156 l 0
 330.976 1250 338.304 1334 344.521 1402 c 1
 594.271 1411 l 1
 589.081 1338 575.42 1242 557.731 1151 c 0
 540.237 1061 523.547 1006 490.579 929 c 1
 533.021 957 619.907 1013 738.907 1013 c 0
 988.907 1013 1114.61 888 1052.02 566 c 1
EndSplineSet
Fore
SplineSet
1052 566 m 1xe8
 992 256 l 0
 987 230 984 208 984 190 c 0
 984 152 996 128 1025 97 c 1
 812 -32 l 1
 774 -5 726 48 726 131 c 0xf0
 726 145 727 160 730 176 c 0
 791 491 l 1
 809 586 816 651 816 696 c 0
 816 794 783 796 758 796 c 0
 755 796 l 0
 650 796 467 571 414 418 c 1
 333 0 l 1
 88 0 l 1
 313 1156 l 0
 331 1250 339 1334 345 1402 c 1
 595 1411 l 1
 590 1338 554 1133 536 1042 c 0
 519 952 455 843 422 766 c 1
 464 794 593 1013 815 1013 c 0
 947 1013 1067 926 1067 711 c 0
 1067 668 1063 620 1052 566 c 1xe8
EndSplineSet
Validated: 1
EndChar

StartChar: i
Encoding: 105 105 9
Width: 1060
VWidth: 0
Flags: W
HStem: -18 200<569 919.134> 1019 20<528.5 748.308> 1181 225<602 850>
VStem: 396 272<123 442.612>
LayerCount: 2
Back
SplineSet
329 1406 m 5
 620 1406 l 5
 620 1181 l 5
 329 1181 l 5
 329 1406 l 5
EndSplineSet
Refer: 177 305 N 1 0 0 1 0 0 2
Fore
SplineSet
602 1406 m 1
 893 1406 l 1
 850 1181 l 1
 559 1181 l 1
 602 1406 l 1
EndSplineSet
Refer: 177 305 N 1 0 0 1 0 0 2
Validated: 1
EndChar

StartChar: j
Encoding: 106 106 10
Width: 1060
VWidth: 0
Flags: W
HStem: -389 201<315.358 531.515> -28 20<206.054 261> 834 179<518.258 726.491> 1181 225<819 1067>
VStem: 735 254<536.195 824.726>
LayerCount: 2
Back
SplineSet
546 1406 m 1
 837 1406 l 1
 837 1181 l 1
 546 1181 l 1
 546 1406 l 1
EndSplineSet
Refer: 332 567 N 1 0 0 1 0 0 2
Fore
SplineSet
819 1406 m 1
 1110 1406 l 1
 1067 1181 l 1
 776 1181 l 1
 819 1406 l 1
EndSplineSet
Refer: 332 567 N 1 0 0 1 0 0 2
Validated: 1
EndChar

StartChar: k
Encoding: 107 107 11
Width: 1060
VWidth: -2
Flags: W
HStem: 0 21G<134 386.883 827 891.506> 813 204<646.989 827.293>
VStem: 383 258<1105.38 1385> 832 253<625.47 880.135>
LayerCount: 2
Back
SplineSet
694.045 597 m 0
 784.045 597 806.708 657 820.897 730 c 0
 827.896 766 819.031 813 762.031 813 c 0
 689.031 813 516.15 685 516.15 685 c 1
 504.682 626 l 1
 520.099 623 655.045 597 694.045 597 c 0
383 0 m 1
 134 0 l 1
 372.699 1228 l 2
 384.557 1289 384.858 1342 379.828 1383 c 1
 632.381 1427 l 1
 636.91 1404 647.163 1359 634.334 1293 c 2
 590.987 1070 l 1
 579.713 1012 556.467 949 527.165 896 c 1
 527.165 896 667.685 1017 810.685 1017 c 0
 1010.68 1017 1114.58 929 1076.67 734 c 0
 1052.77 611 1009.44 527 852.026 458 c 1
 948.028 422 962.645 348 974.04 242 c 0
 978.487 198 1021.29 161 1049.63 137 c 1
 825.752 -27 l 1
 705.471 23 692.075 129 680.567 255 c 0
 667.586 394 481.363 398 462.363 398 c 0
 460.363 398 l 1
 383 0 l 1
EndSplineSet
Fore
SplineSet
534 428 m 1
 643 608 l 0
 670 599 693 594 714 594 c 0
 777 594 814 637 831 726 c 0
 832 731 832 736 832 741 c 0
 832 775 812 813 762 813 c 0
 689 813 516 685 516 685 c 1
 383 0 l 1
 134 0 l 1
 373 1228 l 2
 380 1265 383 1299 383 1329 c 0
 383 1349 382 1367 380 1383 c 1
 632 1427 l 1
 635 1412 641 1388 641 1354 c 0
 641 1336 639 1316 635 1293 c 2
 591 1070 l 1
 580 1012 556 949 527 896 c 1
 527 896 668 1017 811 1017 c 0
 984 1017 1085 951 1085 808 c 0
 1085 785 1082 761 1077 734 c 0
 1042 552 959 452 827 434 c 1
 926 278 983 222 1085 136 c 1
 865 -30 l 1
 789 42 655 232 534 428 c 1
EndSplineSet
Validated: 1
EndChar

StartChar: l
Encoding: 108 108 12
Width: 1060
VWidth: -2
Flags: W
HStem: -18 215<564.04 893.08>
VStem: 261 265<236.501 560.039>
LayerCount: 2
Back
SplineSet
632.964 1430 m 2
 886.964 1430 l 1
 833.898 1157 664.26 274 664.26 274 c 1
 651.82 210 662.377 182 754.377 182 c 0
 847.377 182 913.792 215 985.065 273 c 1
 1045.13 83 l 1
 945.333 12 788.501 -18 664.501 -18 c 0
 579.501 -18 491.223 -4 451.888 20 c 0
 376.023 67 383.574 147 395.042 206 c 1
 439.167 433 485.013 674 529.137 901 c 0
 551.296 1015 572.872 1126 594.088 1230 c 1
 584.088 1230 570.088 1230 554.088 1230 c 0
 497.088 1230 411.699 1228 333.395 1211 c 1
 340.549 1397 l 1
 439.992 1425 552.964 1430 632.964 1430 c 2
EndSplineSet
Fore
SplineSet
723 1422 m 25
 534 435 l 1
 529 405 526 378 526 354 c 0
 526 247 580 197 699 197 c 0
 792 197 895 232 974 284 c 1
 1045 83 l 1
 945 12 797 -18 673 -18 c 0
 460 -18 261 113 261 288 c 0
 261 317 264 347 270 379 c 2
 467 1442 l 25
 723 1422 l 25
EndSplineSet
Validated: 1
EndChar

StartChar: m
Encoding: 109 109 13
Width: 1060
VWidth: 4
Flags: W
HStem: -11 11G<20 247.875 383 611.967 916 961.432> 813 207<482.866 622.998 875 885.994> 1024 20G<338 409.5>
VStem: 773 226<143.597 228 230 298.322> 886 224<561.641 906.669>
LayerCount: 2
Back
SplineSet
945.78 -32 m 5
 877.501 -18 740.276 22 780.318 228 c 6
 780.707 230 l 5
 883.535 759 l 21
 889.698 801 886.031 813 856.031 813 c 5
 834.031 813 751.514 656 726.628 600 c 5
 608 0 l 5
 383.194 1 l 1
 530.924 761 l 1
 538.115 798 539.031 813 513.031 813 c 1
 489.031 813 404.982 715 362.378 609 c 5
 244 0 l 5
 20 0 l 1
 173.893 802 l 2
 191.971 895 184.579 929 177.104 978 c 1
 407.933 1044 l 1
 416.713 1012 408.272 948 408.08 911 c 1
 444.467 949 521.268 1020 610.268 1020 c 0
 720.268 1020 742.247 917 737.445 846 c 1
 795.385 928 875.268 1020 966.268 1020 c 6
 974.268 1020 l 6
 1098.27 1020 1127.25 881 1099.65 739 c 6
 999.93 226 l 6
 990.017 175 1033.38 146 1071.27 130 c 5
 945.78 -32 l 5
EndSplineSet
Fore
SplineSet
946 -32 m 5xf0
 886 -20 773 12 773 159 c 0xf0
 773 180 775 203 780 228 c 6
 781 230 l 5
 884 759 l 21
 886 769 886 778 886 785 c 0
 886 806 878 813 856 813 c 5
 834 813 752 656 727 600 c 5
 608 0 l 5
 383 1 l 1
 531 761 l 1
 534 774 535 785 535 793 c 0
 535 807 530 813 513 813 c 1
 489 813 405 715 362 609 c 5
 244 0 l 5
 20 0 l 1
 174 802 l 2
 182 844 185 874 185 899 c 0
 185 929 181 951 177 978 c 1
 408 1044 l 1
 411 1033 412 1020 412 1004 c 0
 412 973 408 936 408 911 c 1
 444 949 521 1020 610 1020 c 0
 711 1020 738 934 738 865 c 0
 738 859 737 852 737 846 c 1
 795 928 875 1020 966 1020 c 6
 974 1020 l 6
 1070 1020 1110 937 1110 833 c 0xe8
 1110 803 1106 771 1100 739 c 6
 1000 226 l 6
 999 221 999 216 999 211 c 0
 999 169 1037 144 1071 130 c 5
 946 -32 l 5xf0
EndSplineSet
Validated: 1
EndChar

StartChar: o
Encoding: 111 111 14
Width: 1060
VWidth: 6
Flags: W
HStem: -6 203<449.176 665.071> 830 202<554.876 776.14>
VStem: 147 260<238.301 581.159> 804 258<424.209 804.393>
LayerCount: 2
Back
SplineSet
673.012 247 m 5
 730.12 299 763.335 403 788.021 530 c 4
 789.188 536 789.966 540 791.132 546 c 4
 819.649 703 809.336 830 681.336 830 c 4
 530.336 830 458.122 690 417.691 482 c 4
 385.424 316 425.293 197 546.293 197 c 5
 601.487 198 630.015 211 673.012 247 c 5
505.834 -6 m 5
 195.834 -6 107.766 184 162.192 464 c 4
 234.308 835 413.601 1032 705.601 1032 c 4
 902.601 1032 999.188 963 1043.53 831 c 4
 1069.17 752 1065.21 639 1046.55 543 c 4
 991.15 258 843.834 -6 507.834 -6 c 6
 505.834 -6 l 5
EndSplineSet
Fore
SplineSet
673 247 m 5
 730 299 763 403 788 530 c 4
 789 536 790 540 791 546 c 4
 799 591 804 633 804 671 c 0
 804 765 773 830 681 830 c 4
 530 830 458 690 418 482 c 4
 411 445 407 410 407 379 c 0
 407 269 452 197 546 197 c 5
 601 198 630 211 673 247 c 5
506 -6 m 5
 252 -6 147 121 147 321 c 0
 147 365 152 413 162 464 c 4
 234 835 414 1032 706 1032 c 4
 903 1032 1000 963 1044 831 c 4
 1057 792 1062 745 1062 695 c 0
 1062 644 1057 592 1047 543 c 4
 992 258 844 -6 508 -6 c 6
 506 -6 l 5
EndSplineSet
Validated: 1
EndChar

StartChar: n
Encoding: 110 110 15
Width: 1060
VWidth: 6
Flags: W
HStem: 0 21G<100 354.929> 819 207<688.407 943> 1032 20G<403.583 504.5>
VStem: 267 239<822.06 1017.4> 725 265<115.569 423.461> 831 268<601.93 914.5>
LayerCount: 2
Back
SplineSet
518.19 927 m 5
 583.909 977 727.435 1026 837.435 1026 c 4
 1001.43 1026 1124.61 960 1092.73 796 c 6
 992.038 278 l 6
 979.209 212 1024.93 190 1075.1 160 c 5
 920.225 -40 l 5
 831.057 -10 699.44 64 730.152 222 c 6
 822.872 699 l 6
 837.256 773 831.197 819 764.197 819 c 4
 701.197 819 587.811 781 488.427 707 c 5
 351 0 l 5
 100 0 l 5
 237.232 706 l 6
 271.832 884 268.886 910 263.158 1004 c 5
 504.488 1052 l 5
 509.823 1028 520.715 976 518.19 927 c 5
EndSplineSet
Fore
SplineSet
498 821 m 1xf4
 597 935 679 1026 881 1026 c 0
 1005 1026 1099 976 1099 853 c 0xf4
 1099 836 1097 816 1093 796 c 2
 992 278 l 2
 990 270 990 264 990 257 c 0
 990 207 1031 187 1075 160 c 1
 920 -40 l 1
 840 -13 725 49 725 176 c 0xf8
 725 190 727 206 730 222 c 2
 823 699 l 2
 828 724 831 746 831 764 c 0
 831 799 820 819 791 819 c 0
 685 819 524 622 450 504 c 1
 351 0 l 1
 100 0 l 1
 237 706 l 2
 260 824 267 876 267 924 c 0
 267 949 265 972 263 1004 c 1
 504 1052 l 1
 505 1047 506 1034 506 1017 c 0
 506 961 500 859 498 821 c 1xf4
EndSplineSet
Validated: 1
EndChar

StartChar: q
Encoding: 113 113 16
Width: 1060
VWidth: -2
Flags: W
HStem: -10 201<419.43 568.922> 811 200<523.735 742.976> 1002 20G<901 1079.54>
VStem: 152 254<195.161 613.072> 612 243<-394.542 -90.0625>
LayerCount: 2
Back
SplineSet
431.216 531 m 0xd0
 379.316 264 424.516 193 539.516 193 c 0
 614.516 193 681.178 253 730.452 311 c 1
 798.514 656 l 1
 770.619 744 740.643 811 611.643 811 c 0
 523.643 811 468.731 724 431.216 531 c 0xd0
1059.65 739 m 1
 888.62 -146 l 2
 882.983 -175 l 0
 866.461 -260 848.412 -358 856.608 -393 c 1
 614.777 -423 l 1
 605.885 -371 622.183 -246 640.454 -152 c 2
 658.143 -61 l 1
 669.695 -17 682.888 20 694.663 60 c 1
 659.637 29 605.445 -8 505.445 -8 c 0
 143.445 -8 113.792 215 179.104 551 c 0
 231.197 819 359.519 1011 634.519 1011 c 0xd0
 746.519 1011 825.076 983 869.024 921 c 1
 880.605 960 893.991 998 907.656 1022 c 1xb0
 1130.6 996 l 1
 1107.97 931 1080.83 848 1064.7 765 c 2
 1059.65 739 l 1
EndSplineSet
Fore
SplineSet
431 531 m 0xd8
 413 441 406 373 406 322 c 0
 406 223 434 191 465 191 c 0
 570 191 700 350 770 516 c 1
 799 656 l 1
 771 744 741 811 612 811 c 0
 524 811 469 724 431 531 c 0xd8
1060 739 m 1
 889 -146 l 2
 883 -175 l 0
 869 -245 855 -324 855 -369 c 0
 855 -379 856 -387 857 -393 c 1
 615 -423 l 1
 613 -413 612 -399 612 -384 c 0
 612 -322 626 -227 640 -152 c 2
 658 -61 l 1
 670 -17 690 88 702 128 c 1
 667 97 550 -10 431 -10 c 0
 227 -10 152 110 152 307 c 0
 152 379 162 461 179 551 c 0
 231 819 360 1011 635 1011 c 0xd8
 747 1011 825 983 869 921 c 1
 881 960 894 998 908 1022 c 1xb8
 1131 996 l 1
 1108 931 1081 848 1065 765 c 2
 1060 739 l 1
EndSplineSet
Validated: 1
EndChar

StartChar: r
Encoding: 114 114 17
Width: 1060
VWidth: 4
Flags: W
HStem: -18 21G<213 468.878> 808 212<828.068 1012.5> 1024 20G<437.215 482.5>
VStem: 916 250<689.229 878.5>
LayerCount: 2
Back
SplineSet
571.944 864 m 5
 665.994 962 781.268 1020 942.268 1020 c 4
 1109.27 1020 1194.44 918 1157.51 728 c 4
 1151.68 698 l 5
 899.289 696 l 5
 902.427 707 906.537 723 909.842 740 c 4
 917.033 777 915.003 818 859.003 818 c 5
 803.003 818 708.813 745 576.853 560 c 5
 464.501 -18 l 5
 212.501 -18 l 5
 352.844 704 l 6
 363.924 761 324.088 803 272.778 858 c 5
 456.933 1044 l 5
 508.408 995 557.966 967 571.944 864 c 5
EndSplineSet
Fore
SplineSet
589 750 m 1
 667 870 781 1020 942 1020 c 0
 1083 1020 1166 947 1166 810 c 0
 1166 785 1166 748 1160 719 c 0
 1154 689 l 1
 901 687 l 1
 904 700 916 738 916 768 c 0
 916 790 910 808 889 808 c 0
 833 808 612 520 522 276 c 1
 465 -18 l 1
 213 -18 l 1
 353 704 l 2
 354 710 355 717 355 723 c 0
 355 771 318 809 273 858 c 1
 457 1044 l 1
 508 995 589 952 589 750 c 1
EndSplineSet
Validated: 1
EndChar

StartChar: s
Encoding: 115 115 18
Width: 1060
VWidth: 6
Flags: W
HStem: -20 202<420.641 690.614> 829 200<554.05 967.499>
VStem: 150 256<199.357 330> 288 254<701.61 814.437> 736 256<227.481 410.738>
LayerCount: 2
Back
SplineSet
385.715 549 m 4
 311.49 589 272.234 670 293.811 781 c 4
 329.966 967 532.018 1029 707.018 1029 c 4
 846.018 1029 996.102 1014 1083.58 893 c 5
 874.897 730 l 5
 832.172 788 767.142 829 671.142 829 c 4
 589.142 829 552.865 807 545.284 768 c 4
 539.647 739 541.76 719 566.261 701 c 5
 802.045 597 1039.24 562 984.038 278 c 4
 952.548 116 791.442 28 679 0 c 5
 620.473 -13 559.112 -20 502.112 -20 c 4
 246.112 -20 116.354 115 158.146 330 c 5
 411.146 330 l 5
 390.152 222 430.377 182 539.377 182 c 4
 598.377 182 715.265 202 732.37 290 c 4
 743.839 349 729.253 382 686.668 415 c 5
 626.221 459 469.968 504 385.715 549 c 4
EndSplineSet
Fore
SplineSet
386 549 m 0xe8
 326 582 288 641 288 722 c 0
 288 740 290 760 294 781 c 0
 330 967 532 1029 707 1029 c 0
 846 1029 963 1013 1101 947 c 1
 983 757 l 1
 903 809 767 829 671 829 c 0
 589 829 553 807 545 768 c 0
 543 759 542 752 542 745 c 0xd8
 542 728 548 714 566 701 c 1
 779 607 992 569 992 355 c 0
 992 331 989 306 984 278 c 0
 953 116 791 28 679 0 c 1
 620 -13 559 -20 502 -20 c 0
 278 -20 150 84 150 254 c 0
 150 278 153 303 158 330 c 1
 411 330 l 1
 407 312 406 296 406 281 c 0
 406 210 449 182 539 182 c 0
 598 182 715 202 732 290 c 0
 734 303 736 315 736 326 c 0
 736 364 720 389 687 415 c 1
 627 459 470 504 386 549 c 0xe8
EndSplineSet
Validated: 1
EndChar

StartChar: t
Encoding: 116 116 19
Width: 1060
VWidth: 0
Flags: W
HStem: -6 202<542.117 798.614> 805 204<596 1023>
VStem: 252 254<229.428 472.672>
LayerCount: 2
Back
SplineSet
514.75 436 m 1
 506.975 396 l 2
 480.928 262 510.598 214 591.876 200 c 0
 609.487 198 643.099 196 656.099 196 c 0
 721.099 196 753.82 210 781.541 224 c 0
 838.983 252 863.202 320 874.089 340 c 1
 1062.65 240 l 1
 1047.21 212 971.438 100 846.998 36 c 0
 782.389 2 703.834 -6 618.834 -6 c 0
 434.834 -6 291.11 16 248.878 164 c 0
 227.874 236 238.646 312 255.363 398 c 2
 263.527 440 l 1
 283.021 530 306.598 641 343.477 805 c 1
 329.477 805 l 2
 301.477 805 272.698 801 245.144 793 c 1
 267.797 997 l 1
 293.353 1005 339.13 1009 372.13 1009 c 2
 387.13 1009 l 1
 400.736 1079 421.369 1180 434.976 1250 c 1
 684.809 1244 l 1
 671.98 1178 652.125 1081 637.907 1013 c 1
 746.907 1013 1058.13 1009 1066.13 1009 c 1
 1023.48 805 l 1
 886.477 805 728.865 807 595.865 807 c 1
 557.598 641 538.188 536 514.75 436 c 1
EndSplineSet
Fore
SplineSet
1052 145 m 0
 987 111 826 -6 619 -6 c 0
 347 -6 252 147 252 327 c 0
 252 365 256 405 264 444 c 2
 273 486 l 1
 292 576 306 641 343 805 c 1
 329 805 l 2
 301 805 273 801 245 793 c 1
 268 997 l 1
 294 1005 339 1009 372 1009 c 2
 387 1009 l 1
 401 1079 421 1180 435 1250 c 1
 685 1244 l 1
 672 1178 652 1081 638 1013 c 1
 747 1013 1058 1009 1066 1009 c 1
 1023 805 l 1
 886 805 729 807 596 807 c 1
 558 641 547 582 524 482 c 1
 516 442 l 2
 509 407 506 376 506 349 c 0
 506 243 557 196 656 196 c 0
 796 196 894 321 922 335 c 0
 1052 145 l 0
EndSplineSet
Validated: 1
EndChar

StartChar: u
Encoding: 117 117 20
Width: 1060
VWidth: 6
Flags: W
HStem: -17 21G<861 909.454> 2 213<391.264 530.141> 1000 20G<325 510>
VStem: 121 267<215.184 441.476> 252 258<702.308 991.764>
LayerCount: 2
Back
SplineSet
889.695 -17 m 5xa0
 831.333 12 798.274 58 786.993 108 c 5
 697.025 31 576.972 5 426.389 2 c 5
 417.389 2 l 6
 265.389 2 89.3018 53 123.513 229 c 4
 139.452 311 159.308 408 177.968 504 c 4
 219.954 720 258.746 935 250.825 992 c 5
 510.268 1020 l 5
 514.385 928 457.068 664 387.926 298 c 5
 386.902 231 401.042 206 486.042 206 c 5x60
 639.403 213 723.564 291 748.251 418 c 5
 863.907 1013 l 5
 1114.91 1013 l 5
 977.48 306 l 5
 969.373 254 1021.35 187 1068.27 166 c 5
 889.695 -17 l 5xa0
EndSplineSet
Fore
SplineSet
890 -17 m 1xb0
 832 12 787 51 755 233 c 1
 677 123 577 5 426 2 c 1
 417 2 l 2
 281 2 121 20 121 187 c 0x70
 121 206 123 228 128 251 c 0
 144 333 159 408 178 504 c 0
 216 701 252 897 252 973 c 0
 252 980 252 987 251 992 c 1
 510 1020 l 1
 510 1017 510 1013 510 1010 c 0x68
 510 910 455 652 388 298 c 1
 388 297 388 296 388 295 c 0
 388 230 395 215 440 215 c 1x70
 564 215 778 570 803 697 c 1
 864 1013 l 1
 1115 1013 l 1
 977 306 l 1
 976 302 976 299 976 295 c 0
 976 245 1024 186 1068 166 c 1
 890 -17 l 1xb0
EndSplineSet
Validated: 1
EndChar

StartChar: v
Encoding: 118 118 21
Width: 1060
VWidth: 6
Flags: W
HStem: -8 21G<344.5 444>
VStem: 884 251<777.593 1013>
LayerCount: 2
Back
SplineSet
425.153 1076 m 1
 540.144 793 568.745 508 586.789 251 c 1
 738.586 394 801.378 609 847.614 816 c 0
 852.308 835 857.167 860 862.026 885 c 0
 870.968 931 879.299 979 883.907 1013 c 1
 1134.91 1013 l 1
 1134.8 997 1115.05 880 1103.78 822 c 0
 1042.16 505 881.209 212 670.829 66 c 0
 588.749 9 548.445 -8 340.445 -8 c 1
 390.595 250 278.312 763 187.884 946 c 1
 425.153 1076 l 1
EndSplineSet
Fore
SplineSet
425 1076 m 1
 540 793 569 508 587 251 c 1
 739 394 802 609 848 816 c 0
 853 835 857 860 862 885 c 0
 871 931 879 979 884 1013 c 1
 1135 1013 l 1
 1135 997 1115 880 1104 822 c 0
 1042 505 881 212 671 66 c 0
 589 9 548 -8 340 -8 c 1
 349 36 352 88 352 144 c 0
 352 416 263 794 188 946 c 1
 425 1076 l 1
EndSplineSet
Validated: 1
EndChar

StartChar: w
Encoding: 119 119 22
Width: 1060
VWidth: 4
Flags: W
HStem: -24 18G<232 385 645.25 881.5> 1036 20G<397.944 475>
VStem: 225 257<533.811 982.069> 957 238<669.057 1013>
LayerCount: 2
Back
SplineSet
208.271 984 m 1
 471.266 1056 l 1
 500.835 848 462.291 660 429.857 488 c 0
 427.72 477 425.775 467 423.832 457 c 0
 405.561 363 364.846 241 347.625 209 c 1
 468.403 213 523.12 299 554.998 463 c 0
 627.308 835 l 1
 788.502 836 l 1
 788.502 836 778.34 758 746.268 593 c 0
 727.607 497 701.115 371 665.598 214 c 1
 667.598 214 668.598 214 670.598 214 c 0
 807.598 214 851.279 413 890.155 613 c 0
 893.266 629 896.375 645 899.485 661 c 0
 910.371 717 919.867 771 929.197 819 c 0
 943.193 891 953.907 1013 953.907 1013 c 1
 1199.91 1013 l 1
 1195.69 981 1191.61 960 1183.05 916 c 0
 1177.22 886 1171.39 856 1166.14 829 c 0
 1136.4 676 1094.97 468 1017.23 279 c 0
 949.354 115 799 0 580 0 c 2
 546 0 l 1
 546 0 540.829 66 551.74 153 c 1
 503.745 81 389.667 -12 192.667 -12 c 2
 186.667 -12 l 1
 140.861 -11 135.834 -6 123 0 c 1
 128.939 82 227.272 521 225.308 835 c 0
 224.804 889 223.301 943 208.271 984 c 1
EndSplineSet
Fore
SplineSet
208 984 m 1
 471 1056 l 1
 479 1003 482 952 482 902 c 0
 482 754 454 617 430 488 c 0
 411 391 342 256 322 219 c 1
 481 330 499 375 555 463 c 0
 627 835 l 1
 789 836 l 1
 789 836 756 642 724 477 c 0
 708 396 696 348 696 261 c 0
 696 245 696 227 697 207 c 1
 831 261 904 587 949 819 c 1
 954 848 957 876 957 903 c 0
 957 945 951 983 946 1013 c 1
 1192 1013 l 1
 1194 989 1195 965 1195 941 c 0
 1195 902 1192 862 1186 829 c 1
 1114 459 1039 183 724 -27 c 9
 535 21 l 1
 535 21 545 162 556 249 c 1
 507 175 478 153 292 -24 c 1
 97 41 l 1
 176 210 225 508 225 816 c 0
 225 822 225 829 225 835 c 0
 224 889 223 943 208 984 c 1
EndSplineSet
Validated: 1
EndChar

StartChar: x
Encoding: 120 120 23
Width: 1060
VWidth: 4
Flags: W
HStem: -6 227<904.862 986> 1025 20G<406.313 449.191>
LayerCount: 2
Back
SplineSet
1097.08 839 m 0
 1039.98 751 862.685 590 755.968 504 c 1
 815.946 401 911.762 256 931.234 243 c 0
 934.651 240 939.735 225 973.735 225 c 0
 991.735 225 1010.32 228 1026.9 231 c 1
 980.389 2 l 1
 961.806 -1 937.223 -4 919.223 -4 c 0
 877.223 -4 821.166 6 786.609 34 c 1
 723.745 81 643.403 213 580.34 331 c 1
 175.836 -42 l 1
 37.1309 119 l 1
 477.717 513 l 1
 227.72 904 l 1
 437.127 1045 l 1
 654.818 673 l 1
 728.036 741 783.033 777 876.942 900 c 0
 903.746 935 925.797 997 933.102 1014 c 1
 1170.91 1013 l 1
 1155.38 964 1131.58 893 1097.08 839 c 0
EndSplineSet
Fore
SplineSet
1097 839 m 0
 1040 751 863 590 756 504 c 1
 829 379 918 221 955 221 c 0
 973 221 969 224 986 227 c 1
 994 0 l 1
 975 -3 951 -6 933 -6 c 0
 891 -6 831 14 796 42 c 1
 733 89 653 221 590 339 c 1
 176 -42 l 1
 29 133 l 1
 478 537 l 1
 236 914 l 1
 437 1045 l 1
 654 689 l 1
 727 757 762 776 856 899 c 0
 883 934 905 996 912 1013 c 1
 1171 1013 l 1
 1155 964 1131 893 1097 839 c 0
EndSplineSet
Validated: 1
EndChar

StartChar: y
Encoding: 121 121 24
Width: 1060
VWidth: 14
Flags: W
HStem: -376 202<198.156 396.819> -52 20G<106.143 132> 751 262<228 355.384>
LayerCount: 2
Back
SplineSet
318.178 -174 m 0
 407.178 -174 504.335 -24 542.606 70 c 1
 425.909 550 362.979 751 246.979 751 c 3
 226.979 751 212.979 751 202.785 750 c 1
 252.519 1011 l 1
 252.519 1011 294.907 1013 328.907 1013 c 3
 520.907 1013 618.202 747 715.283 341 c 1
 831.464 558 860.783 786 912.907 1013 c 1
 1168.91 1013 l 1
 1157.24 953 1145.19 891 1133.08 839 c 0
 1055.3 516 853.464 131 612.178 -174 c 0
 475.55 -347 385.913 -376 238.913 -376 c 1
 24.9131 -376 12.3721 -173 42 0 c 1
 292 0 l 1
 279.478 -85 270.178 -174 318.178 -174 c 0
EndSplineSet
Fore
SplineSet
129 -32 m 1
 135 -39 173 -174 318 -174 c 0
 407 -174 517 27 555 121 c 1
 438 601 383 751 267 751 c 3
 247 751 232 751 222 750 c 1
 228 1013 l 1
 228 1013 295 1013 329 1013 c 3
 521 1013 618 747 715 341 c 1
 831 558 861 786 913 1013 c 1
 1169 1013 l 1
 1157 953 1145 891 1133 839 c 0
 1055 516 856 114 615 -191 c 0
 478 -364 386 -376 239 -376 c 1
 69 -376 -42 -206 -63 -200 c 1
 129 -32 l 1
EndSplineSet
Validated: 1
EndChar

StartChar: z
Encoding: 122 122 25
Width: 1060
VWidth: 6
Flags: W
HStem: -8 208<528.809 849.833> 55 187<469 642.723> 803 214<322 777> 1018 20G<1063 1101.18>
LayerCount: 2
Back
SplineSet
251.42 815 m 1
 321.685 1017 l 1
 366.713 1012 477.519 1011 601.519 1011 c 0
 787.519 1011 1004.1 1014 1074.49 1016 c 1
 1114.56 826 l 1
 1075.14 793 528.642 384 440.293 197 c 1
 841.459 203 l 2
 843.459 203 845.459 203 847.459 203 c 0
 901.459 203 947.933 190 1003.24 171 c 1
 921.724 -22 l 1
 879.251 -9 865 0 800 0 c 2
 71 0 l 1
 74.8877 20 l 2
 89.0771 93 103.797 143 129.738 189 c 0
 250.335 403 524.792 642 756.671 806 c 1
 688.477 805 655.088 803 554.088 803 c 0
 429.088 803 306.671 806 251.42 815 c 1
EndSplineSet
Fore
SplineSet
251 815 m 1x70
 322 1017 l 1
 367 1012 829 1011 953 1011 c 0
 1013 1011 1039 1013 1087 1038 c 1
 1199 880 l 1
 1160 847 637 389 469 242 c 1x70
 563 242 671 200 779 200 c 1
 848 200 866 277 866 293 c 9
 1099 252 l 1
 1077 146 1063 -8 803 -8 c 1xb0
 644 -8 517 55 395 55 c 0
 340 55 285 42 230 4 c 1
 171 -42 l 2
 0 80 l 0
 165 272 569 620 777 806 c 1
 709 805 655 803 554 803 c 0
 429 803 306 806 251 815 c 1x70
EndSplineSet
Validated: 1
EndChar

StartChar: A
Encoding: 65 65 26
Width: 1060
VWidth: 0
Flags: W
HStem: 0 21G<6 271.5 767 1047> 281 223<484.995 748.747> 1305 20G<665.601 924.5>
LayerCount: 2
Fore
SplineSet
749 504 m 1
 749 506 749 509 749 511 c 0
 749 625 711 773 711 905 c 0
 711 937 713 968 719 998 c 1
 680 830 547 625 482 486 c 1
 545 499 665 499 749 504 c 1
676 1325 m 1
 900 1325 l 1
 949 883 1004 448 1047 0 c 1
 771 0 l 1
 763 94 756 188 748 281 c 5
 595 278 511 282 385 252 c 1
 337 162 l 2
 305 101 277 43 266 0 c 1
 6 0 l 1
 22 61 61 143 103 223 c 2
 676 1325 l 1
EndSplineSet
Validated: 1
EndChar

StartChar: B
Encoding: 66 66 27
Width: 1060
VWidth: 0
Flags: W
HStem: -5 197<350 667.372> 636 198<480 660.078> 1123 202<534.443 719.151>
VStem: 731 263<906.486 1110.72> 799 258<328.708 592.431>
LayerCount: 2
Fore
SplineSet
229 837 m 0xe8
 263 1014 292 1178 308 1308 c 1
 390 1314 535 1325 648 1325 c 0
 654 1325 660 1325 666 1325 c 0
 861 1325 994 1254 994 1088 c 0xf0
 994 1065 991 1041 986 1014 c 0
 958 870 897 824 814 783 c 1
 947 744 1057 661 1057 495 c 0
 1057 468 1054 439 1048 408 c 0
 989 106 798 23 627 3 c 0
 587 -2 545 -5 506 -5 c 0
 432 -5 375 0 290 0 c 0
 278 0 266 0 252 0 c 2
 58 0 l 1
 96 198 147 413 229 837 c 0xe8
728 1012 m 2
 730 1024 731 1034 731 1043 c 0
 731 1120 661 1123 640 1123 c 0
 636 1123 l 2
 620 1123 l 2
 581 1123 564 1121 533 1118 c 1
 529 1083 522 1045 514 1004 c 0
 504 950 491 892 480 834 c 1
 491 834 504 834 518 834 c 0
 591 834 695 846 726 1004 c 2
 728 1012 l 2
603 638 m 0
 554 638 557 636 484 636 c 2
 440 636 l 1
 391 394 366 276 350 198 c 1
 398 195 437 192 475 192 c 0
 505 192 535 194 571 198 c 0
 604 202 758 238 793 420 c 0
 797 442 799 462 799 480 c 0xe8
 799 603 708 638 603 638 c 0
EndSplineSet
Validated: 1
EndChar

StartChar: C
Encoding: 67 67 28
Width: 1060
VWidth: 0
Flags: W
HStem: -3 201<491.318 723.987> 1128 204<667.628 893.265>
VStem: 159 265<271.823 726.457>
LayerCount: 2
Fore
SplineSet
785 1128 m 0
 670 1128 511 992 440 628 c 0
 429 570 424 518 424 471 c 0
 424 295 494 198 578 198 c 2
 592 198 l 1
 716 198 767 262 840 392 c 5
 1060 255 l 1
 955 97 764 -3 574 -3 c 2
 571 -3 l 2
 460 -3 334 22 258 116 c 1
 192 202 159 308 159 439 c 0
 159 499 166 564 180 636 c 0
 230 895 342 1054 409 1132 c 0
 502 1240 656 1332 831 1332 c 0
 971 1332 1132 1269 1189 1107 c 1
 933 982 l 1
 907 1106 871 1128 785 1128 c 0
EndSplineSet
Validated: 1
EndChar

StartChar: D
Encoding: 68 68 29
Width: 1060
VWidth: 0
Flags: W
HStem: -10 205<362 626.016> 1127 204<539.25 733.122>
VStem: 832 269<483.766 1009.21>
LayerCount: 2
Fore
SplineSet
622 1127 m 2
 592 1127 l 2
 576 1127 564 1127 546 1124 c 1
 542 1098 537 1068 531 1037 c 0
 519 974 513 953 500 884 c 0
 441 578 382 296 362 198 c 1
 449 195 401 195 461 195 c 0
 464 195 l 0
 504 195 648 197 744 353 c 0
 772 398 797 489 808 544 c 0
 825 630 832 707 832 775 c 0
 832 1006 743 1127 622 1127 c 2
95 128 m 1
 106 183 189 580 251 901 c 2
 266 977 l 2
 291 1106 311 1229 319 1317 c 1
 402 1325 448 1331 547 1331 c 0
 842 1331 950 1260 1045 1066 c 1
 1082 986 1101 885 1101 776 c 0
 1101 713 1095 646 1082 580 c 0
 1018 249 803 20 558 -3 c 0
 502 -8 451 -10 396 -10 c 0
 312 -10 180 -3 66 -3 c 1
 73 31 73 30 95 128 c 1
EndSplineSet
Validated: 1
EndChar

StartChar: E
Encoding: 69 69 30
Width: 1060
VWidth: 0
Flags: W
HStem: 0 204<398 943.946> 646 203<525 824> 1118 205<577 1106>
LayerCount: 2
Fore
SplineSet
358 1319 m 1
 415 1323 485 1323 563 1323 c 0
 594 1323 627 1323 661 1323 c 2
 771 1323 l 2
 920 1323 1056 1320 1130 1320 c 2
 1146 1320 l 1
 1106 1118 l 1
 577 1118 l 1
 525 849 l 1
 863 849 l 1
 824 646 l 1
 486 646 l 1
 480 615 l 2
 440 408 413 283 398 204 c 1
 814 206 l 2
 870 206 944 233 944 233 c 1
 978 34 l 1
 927 21 882 0 784 0 c 2
 102 0 l 1
 358 1319 l 1
EndSplineSet
Validated: 1
EndChar

StartChar: F
Encoding: 70 70 31
Width: 1060
VWidth: 0
Flags: W
HStem: 0 21G<117 391> 642 216<543 862.395> 1115 209<594 1126.92>
LayerCount: 2
Fore
SplineSet
382 0 m 1
 117 3 l 1
 373 1324 l 1
 1039 1324 l 1
 1141 1324 1183 1307 1214 1290 c 1
 1128 1087 l 1
 1105 1101 1086 1114 988 1115 c 1
 918 1115 l 2
 814 1115 777 1115 594 1114 c 1
 543 856 l 1
 663 856 621 858 743 858 c 0
 833 858 896 843 933 825 c 1
 864 620 l 1
 830 637 781 642 736 642 c 0
 694 642 671 642 651 642 c 0
 621 642 566 642 501 640 c 1
 477 517 400 95 382 0 c 1
EndSplineSet
Validated: 1
EndChar

StartChar: G
Encoding: 71 71 32
Width: 1060
VWidth: 0
Flags: W
HStem: -8 206<447.09 692.958> 567 207<581.497 838> 1121 207<632.669 895.978>
VStem: 124 259<268.34 731.835>
LayerCount: 2
Fore
SplineSet
1139 758 m 1
 1106 586 l 2
 1019 142 879 50 692 3 c 1
 645 -7 580 -8 538 -8 c 0
 245 -8 124 183 124 442 c 0
 124 505 132 572 145 641 c 0
 192 883 283 1080 439 1210 c 1
 556 1300 676 1328 791 1328 c 2
 811 1328 l 1
 1024 1323 1155 1237 1198 1071 c 1
 942 955 l 1
 929 1073 890 1121 758 1121 c 0
 590 1121 459 919 403 630 c 0
 390 562 383 501 383 447 c 0
 383 291 440 198 568 198 c 0
 740 198 800 374 838 568 c 1
 774 567 l 0
 703 567 674 564 577 530 c 5
 536 731 l 1
 639 768 744 774 845 774 c 0
 948 774 1064 764 1139 758 c 1
EndSplineSet
Validated: 1
EndChar

StartChar: H
Encoding: 72 72 33
Width: 1060
VWidth: 0
Flags: W
HStem: 0 21G<60 336 675 933.888> 599 215<473.475 791> 1302 20G<317 570.089>
LayerCount: 2
Fore
SplineSet
574 1322 m 1
 469 785 l 5
 565 806 626 814 746 814 c 6
 833 814 l 5
 887 1094 898 1152 930 1317 c 1
 1186 1317 l 1
 930 0 l 1
 675 0 l 1
 791 599 l 1
 759 599 l 0
 613 599 550 596 427 570 c 1
 359 220 354 185 318 0 c 1
 60 0 l 1
 317 1320 l 1
 574 1322 l 1
EndSplineSet
Validated: 1
EndChar

StartChar: K
Encoding: 75 75 34
Width: 1060
VWidth: 0
Flags: W
HStem: -11 6G<83 344.91 821 887.419> 1315 20G<339.119 601 1051 1091.31>
LayerCount: 2
Fore
SplineSet
713 742 m 1
 810 623 1043 192 1067 54 c 1
 833 -32 l 1
 809 79 645 445 540 574 c 1
 540 574 472 512 428 440 c 1
 341 -5 l 1
 83 -5 l 1
 343 1335 l 1
 601 1335 l 1
 511 871 l 1
 642 1016 1029 1339 1073 1376 c 1
 1235 1199 l 1
 1027 1064 787 816 713 742 c 1
EndSplineSet
Validated: 1
EndChar

StartChar: L
Encoding: 76 76 35
Width: 1060
VWidth: 0
Flags: W
HStem: -3 210<451 994.823> 1305 20G<411.099 669>
LayerCount: 2
Fore
SplineSet
156 -3 m 5
 415 1325 l 5
 669 1325 l 5
 451 207 l 5
 879 207 l 5
 939 210 950 213 997 228 c 5
 1031 31 l 5
 981 15 915 -3 840 -3 c 6
 156 -3 l 5
EndSplineSet
Validated: 1
EndChar

StartChar: M
Encoding: 77 77 36
Width: 1060
VWidth: 32
Flags: W
HStem: 0 21G<62 315.893 701 951.855> 1303 20G<315.115 550 933.5 1203>
LayerCount: 2
Fore
SplineSet
319 1323 m 1
 523 1323 l 1
 577 1209 638 1020 664 834 c 1
 753 1016 880 1190 987 1323 c 1
 1203 1323 l 1
 1126 925 948 0 948 0 c 1
 701 0 l 1
 815 596 l 2
 835 700 899 898 899 898 c 5
 812 775 705 588 687 551 c 1
 537 549 l 1
 537 549 487 817 455 898 c 5
 455 898 450 709 428 596 c 2
 312 0 l 1
 62 0 l 1
 319 1323 l 1
EndSplineSet
Validated: 1
EndChar

StartChar: N
Encoding: 78 78 37
Width: 1060
VWidth: 0
Flags: W
HStem: 0 21G<74 335 671 945> 1305 20G<329.099 542 937.5 1203>
VStem: 691 249<0 224.453>
LayerCount: 2
Fore
SplineSet
691 0 m 1
 651 259 574 626 483 845 c 1
 431 570 l 2
 374 271 350 152 320 -3 c 1
 74 -3 l 1
 333 1325 l 1
 542 1318 l 1
 631 1130 774 656 795 407 c 1
 840 778 l 0
 877 968 916 1155 959 1329 c 1
 1203 1328 l 1
 1175 1213 1143 1061 1111 895 c 0
 1066 664 1020 405 974 170 c 0
 963 112 950 54 940 0 c 1
 691 0 l 1
EndSplineSet
Validated: 1
EndChar

StartChar: O
Encoding: 79 79 38
Width: 1060
VWidth: 0
Flags: W
HStem: -16 203<435.794 638.298> 1147 203<647.887 831.613>
VStem: 126 263<233.832 677.79> 875 258<593.11 1102.42>
LayerCount: 2
Fore
SplineSet
784 1350 m 1
 918 1350 1133 1299 1133 917 c 0
 1133 841 1124 752 1105 647 c 1
 1103 636 l 2
 1071 469 1008 312 942 217 c 0
 838 70 672 -16 507 -16 c 0
 385 -16 244 25 183 127 c 0
 143 193 126 274 126 367 c 0
 126 432 134 503 149 579 c 0
 217 931 308 1090 397 1187 c 0
 481 1279 627 1347 784 1350 c 1
546 187 m 0
 683 187 806 463 842 640 c 1
 846 657 l 2
 860 726 875 825 875 915 c 0
 875 1038 846 1147 744 1147 c 0
 605 1147 466 869 412 592 c 0
 399 527 389 458 389 396 c 0
 389 280 425 187 546 187 c 0
EndSplineSet
Validated: 1
EndChar

StartChar: P
Encoding: 80 80 39
Width: 1060
VWidth: 0
Flags: W
HStem: 0 21G<104 369.5> 439 208<480 754.196> 1117 211<572 870.426>
VStem: 899 268<797.638 1091.5>
LayerCount: 2
Fore
SplineSet
891 909 m 0
 897 937 899 962 899 983 c 0
 899 1114 803 1117 732 1117 c 0
 723 1117 l 1
 662 1117 617 1113 572 1112 c 1
 558 1041 l 2
 522 854 480 649 480 649 c 1
 516 648 551 647 584 647 c 0
 700 647 846 676 891 909 c 0
354 0 m 5
 104 0 l 1
 361 1320 l 1
 479 1320 518 1328 651 1328 c 0
 876 1328 1044 1315 1132 1174 c 0
 1157 1134 1167 1084 1167 1030 c 0
 1167 996 1163 960 1156 924 c 0
 1093 600 937 439 593 439 c 0
 545 439 494 440 440 442 c 1
 388 174 385 159 354 0 c 5
EndSplineSet
Validated: 1
EndChar

StartChar: Q
Encoding: 81 81 40
Width: 1060
VWidth: 0
Flags: W
HStem: -183 216<798.495 940> -3 201<436.668 590.554> 319 217<463.871 601.938> 1115 216<598.367 809.339>
VStem: 150 246<319.609 729.938> 863 240<607.99 1062.41>
LayerCount: 2
Fore
SplineSet
854 -183 m 0xbc
 739 -183 593 -122 592 8 c 1
 561 0 540 -3 500 -3 c 0x7c
 384 -3 285 40 222 123 c 0
 173 189 150 286 150 404 c 0
 150 476 158 556 175 642 c 0
 216 853 283 1048 402 1173 c 0
 519 1295 625 1331 748 1331 c 0
 915 1331 1018 1265 1069 1121 c 0
 1094 1051 1103 981 1103 915 c 0
 1103 832 1089 756 1077 693 c 0
 1034 473 946 216 793 116 c 1
 793 110 793 105 793 100 c 0
 793 41 810 34 884 33 c 1
 895 33 l 2
 932 33 957 38 982 44 c 1
 940 -177 l 1
 917 -182 899 -183 854 -183 c 0xbc
591 536 m 4
 706 536 751 477 769 404 c 1
 789 444 808 538 836 683 c 0
 838 691 838 698 840 706 c 0
 851 765 863 828 863 891 c 0
 863 928 859 965 849 1001 c 0
 829 1070 781 1115 709 1115 c 0
 580 1115 481 965 431 706 c 0
 427 686 422 663 418 640 c 0
 410 601 396 526 396 470 c 0
 396 454 397 440 400 428 c 1
 452 495 519 536 591 536 c 4
607 211 m 1
 607 211 608 214 608 215 c 0
 609 221 610 228 610 235 c 0
 610 271 593 319 535 319 c 0
 503 319 460 308 426 270 c 1
 431 218 490 198 528 198 c 0
 535 198 540 198 545 198 c 0
 564 198 588 202 607 211 c 1
EndSplineSet
Validated: 1
EndChar

StartChar: R
Encoding: 82 82 41
Width: 1060
VWidth: 0
Flags: W
HStem: 0 21G<90 336.871> 1124 205<551 823.793>
VStem: 888 269<812.323 1068.19>
LayerCount: 2
Fore
SplineSet
783 548 m 1
 837 424 928 273 971 207 c 1
 986 191 1027 155 1067 144 c 1
 913 -44 l 1
 857 -35 807 15 781 58 c 1
 705 167 590 434 553 530 c 1
 518 533 482 540 441 558 c 1
 333 0 l 1
 90 0 l 1
 311 1136 l 2
 324 1204 332 1252 340 1314 c 1
 383 1318 500 1329 561 1329 c 0
 811 1329 1029 1321 1121 1168 c 0
 1145 1128 1157 1073 1157 1015 c 0
 1157 986 1154 957 1148 928 c 0
 1104 704 965 578 783 548 c 1
882 906 m 0
 886 927 888 945 888 962 c 0
 888 1087 785 1124 614 1124 c 0
 588 1124 580 1124 551 1123 c 1
 482 768 l 1
 541 741 597 726 640 726 c 0
 643 726 645 726 648 726 c 1
 818 726 862 804 882 906 c 0
EndSplineSet
Validated: 1
EndChar

StartChar: S
Encoding: 83 83 42
Width: 1060
VWidth: 0
Flags: W
HStem: -9 209<409.844 695.375> 1118 210<564.142 917.193>
VStem: 98 269<240.962 420> 239 273<895.299 1064.55> 795 266<292.465 530.142>
LayerCount: 2
Fore
SplineSet
367 702 m 1xe8
 286 743 239 837 239 937 c 0
 239 960 242 983 247 1006 c 0
 295 1225 473 1328 728 1328 c 0
 731 1328 734 1328 737 1328 c 0
 977 1328 1120 1282 1198 1192 c 1
 1018 1000 l 1
 937 1102 772 1118 702 1118 c 1
 652 1118 529 1082 516 1014 c 1
 513 1000 512 987 512 976 c 0xd8
 512 909 556 889 602 870 c 0
 716 822 785 813 905 752 c 1
 987 708 1061 627 1061 486 c 0
 1061 458 1058 429 1052 396 c 0
 994 96 759 -9 519 -9 c 2
 500 -9 l 1
 205 -1 98 137 98 317 c 0
 98 351 102 386 109 422 c 1
 375 420 l 1
 370 394 367 370 367 349 c 0
 367 252 421 200 546 200 c 0
 625 200 763 236 791 382 c 0
 794 397 795 411 795 424 c 0
 795 506 742 552 680 582 c 0
 574 633 488 641 367 702 c 1xe8
EndSplineSet
Validated: 1
EndChar

StartChar: T
Encoding: 84 84 43
Width: 1060
VWidth: 0
Flags: W
HStem: 0 21G<355 618.882> 1118 207<296 572 832 1124.96>
LayerCount: 2
Fore
SplineSet
355 0 m 5
 572 1118 l 1
 374 1118 332 1117 256 1117 c 1
 296 1324 l 1
 418 1324 873 1325 1061 1325 c 0
 1134 1325 1201 1316 1224 1309 c 1
 1125 1106 l 1
 1125 1106 1075 1118 1015 1118 c 2
 832 1118 l 1
 615 0 l 5
 355 0 l 5
EndSplineSet
Validated: 1
EndChar

StartChar: U
Encoding: 85 85 44
Width: 1060
VWidth: 0
Flags: W
HStem: -10 210<440.969 654.058> 1329 1G<309.5 586 952 1140.14>
VStem: 146 264<232.409 658.991> 963 248<1182.47 1323.62>
LayerCount: 2
Fore
SplineSet
963 1350 m 5
 1211 1322 l 1
 1194 1272 1186 1237 1178 1195 c 0
 1176 1186 1175 1176 1173 1166 c 0
 1144 1018 1122 888 1100 775 c 2
 1088 716 l 2
 1042 479 994 253 856 121 c 0
 755 24 620 -5 490 -10 c 1
 235 -10 146 106 146 315 c 0
 146 358 150 405 157 456 c 0
 167 533 189 657 216 795 c 0
 250 970 291 1168 328 1329 c 1
 586 1329 l 1
 549 1161 501 932 464 743 c 0
 454 693 445 645 437 602 c 0
 425 538 415 485 413 448 c 0
 412 423 410 395 410 366 c 0
 410 285 426 203 529 200 c 1
 731 209 777 431 833 718 c 0
 857 844 881 993 915 1166 c 0
 929 1238 941 1287 963 1350 c 5
EndSplineSet
Validated: 1
EndChar

StartChar: V
Encoding: 86 86 45
Width: 1060
VWidth: 0
Flags: W
HStem: 0 21G<368 698> 1335 20G<446.146 528.5 980 1108.67>
VStem: 250 253<1006.33 1271.04>
LayerCount: 2
Fore
SplineSet
368 0 m 5
 369 15 370 34 370 56 c 0
 370 322 296 1056 250 1266 c 1
 503 1355 l 1
 554 1098 563 707 588 331 c 1
 724 651 905 1095 1055 1348 c 1
 1267 1269 l 1
 1123 1033 727 204 669 0 c 1
 368 0 l 5
EndSplineSet
Validated: 1
EndChar

StartChar: W
Encoding: 87 87 46
Width: 1060
VWidth: 0
Flags: W
HStem: 0 21G<154 398.5 622 902> 1299 20G<342.103 503 1028 1179.21>
VStem: 267 242<952.303 1290> 622 246<0 129.096> 634 167<319 585>
LayerCount: 2
Back
SplineSet
332 0 m 5
 201 0 l 5
 158 170 52 1035 6 1286 c 5
 160 1318 l 5
 280 675 246 608 290 298 c 5
 360 528 429 886 435 957 c 5
 480 957 568 957 602 969 c 5
 638 778 686 485 744 300 c 5
 777 585 741 624 868 1315 c 5
 1023 1281 l 5
 971 1030 868 178 835 0 c 5
 699 0 l 5
 699 0 553 429 521 613 c 5
 474 388 340 22 332 0 c 5
EndSplineSet
Fore
SplineSet
395 0 m 1xe8
 154 0 l 1
 154 6 154 14 154 22 c 0
 154 237 263 1043 267 1290 c 1
 509 1319 l 1
 497 1126 480 1050 471 986 c 0
 434 740 368 412 359 316 c 1
 359 316 595 916 615 988 c 1
 636 988 667 985 700 985 c 0
 739 985 782 989 814 1004 c 1
 801 786 801 319 801 319 c 1xe8
 845 458 892 726 953 962 c 0
 970 1027 991 1132 1065 1321 c 1
 1282 1283 l 1
 1180 1027 936 182 868 0 c 1
 622 0 l 1xf0
 622 0 629 397 634 585 c 1
 542 355 402 12 395 0 c 1xe8
EndSplineSet
Validated: 1
EndChar

StartChar: X
Encoding: 88 88 47
Width: 1060
VWidth: 0
Flags: W
HStem: -31 21G<783.5 875.484> 1347 29G<430.63 511.5 1044.47 1089.14>
LayerCount: 2
Fore
SplineSet
1060 1367 m 1
 1229 1251 l 1
 773 657 l 1
 891 385 919 233 1034 93 c 1
 845 -31 l 1
 722 119 718 221 614 468 c 1
 220 -54 l 1
 35 78 l 1
 515 693 l 1
 435 901 365 1082 256 1241 c 1
 461 1376 l 1
 562 1227 612 1054 681 879 c 1
 1060 1367 l 1
EndSplineSet
Validated: 1
EndChar

StartChar: Y
Encoding: 89 89 48
Width: 1060
VWidth: 0
Flags: W
HStem: 0 21G<341 627.656> 1342 20G<438 481.5 1007.9 1062.62>
LayerCount: 2
Fore
SplineSet
341 0 m 1
 641 592 l 5
 584 705 282 1114 252 1222 c 1
 469 1362 l 1
 494 1283 705 962 765 822 c 1
 1017 1376 l 1
 1236 1280 l 1
 618 0 l 1
 341 0 l 1
EndSplineSet
Validated: 1
EndChar

StartChar: Z
Encoding: 90 90 49
Width: 1060
VWidth: 0
Flags: W
HStem: 0 217<429 970.795> 1119 209<345 896>
LayerCount: 2
Fore
SplineSet
123 0 m 1
 79 148 l 1
 896 1119 l 1
 682 1119 420 1114 306 1114 c 1
 345 1324 l 1
 465 1324 888 1328 1076 1328 c 0
 1151 1328 1195 1315 1213 1312 c 1
 1213 1310 1213 1308 1212 1305 c 0
 1204 1266 1200 1160 1193 1126 c 0
 1192 1123 1191 1120 1191 1118 c 1
 429 217 l 5
 792 216 l 2
 877 216 905 221 974 242 c 1
 1003 27 l 1
 955 11 884 0 809 0 c 0
 639 0 197 0 130 0 c 2
 123 0 l 1
EndSplineSet
Validated: 1
EndChar

StartChar: I
Encoding: 73 73 50
Width: 1060
VWidth: 0
Flags: W
HStem: 4 214<175 408 665 849> 1112 212<389 584 840 1069>
LayerCount: 2
Fore
SplineSet
389 1324 m 1
 546 1328 647 1329 743 1329 c 0
 848 1329 948 1328 1111 1326 c 1
 1069 1115 l 1
 946 1115 935 1120 840 1120 c 1
 665 219 l 1
 711 219 696 220 747 220 c 0
 792 220 839 219 890 216 c 1
 849 -1 l 1
 765 4 703 5 640 5 c 0
 593 5 544 4 485 4 c 0
 411 4 288 -3 133 -3 c 1
 175 213 l 1
 261 217 299 218 356 218 c 6
 408 218 l 5
 584 1119 l 5
 518 1118 461 1118 354 1112 c 1
 389 1324 l 1
EndSplineSet
Validated: 1
EndChar

StartChar: J
Encoding: 74 74 51
Width: 1060
VWidth: 0
Flags: W
HStem: -8 212<380.416 528.257> 1108 216<453.284 771>
VStem: 96 264<218.527 432.885>
LayerCount: 2
Fore
SplineSet
412 -8 m 0
 184 -8 96 145 96 323 c 0
 96 360 100 397 107 435 c 1
 367 434 l 1
 362 403 360 376 360 351 c 0
 360 253 395 204 448 204 c 0
 646 204 736 775 771 1106 c 1
 722 1106 610 1108 573 1108 c 1
 468 1105 480 1096 452 1090 c 1
 411 1302 l 1
 442 1309 450 1321 569 1324 c 1
 714 1324 907 1323 1063 1323 c 1
 934 459 838 -8 412 -8 c 0
EndSplineSet
Validated: 1
EndChar

StartChar: zero
Encoding: 48 48 52
Width: 1060
VWidth: 0
Flags: W
HStem: -17 208<462.943 631.374> 1105 207<632.544 801.539>
LayerCount: 2
Fore
SplineSet
461 581 m 1
 818 970 l 1
 806 1070 799 1105 728 1105 c 0
 574 1105 505 814 469 631 c 0
 465 608 461 581 461 581 c 1
806 726 m 1
 442 332 l 1
 450 237 468 191 536 191 c 0
 693 191 752 442 798 677 c 0
 803 705 806 726 806 726 c 1
770 1312 m 0
 1004 1312 1077 1140 1077 926 c 0
 1077 841 1065 750 1048 660 c 0
 985 336 845 -17 509 -17 c 0
 260 -17 182 141 182 353 c 0
 182 435 193 524 211 616 c 0
 276 951 413 1312 770 1312 c 0
EndSplineSet
Validated: 1
EndChar

StartChar: period
Encoding: 46 46 53
Width: 1060
VWidth: 26
Flags: W
HStem: 0 313<405 659>
VStem: 344 376
LayerCount: 2
Fore
SplineSet
405 313 m 1
 720 313 l 1
 659 0 l 1
 344 0 l 1
 405 313 l 1
EndSplineSet
Validated: 1
EndChar

StartChar: comma
Encoding: 44 44 54
Width: 1060
VWidth: 26
Flags: W
VStem: 258 461
LayerCount: 2
Fore
SplineSet
392 309 m 1
 719 311 l 1
 661 11 l 1
 661 8 l 2
 623 -189 503 -358 321 -434 c 1
 258 -253 l 1
 360 -202 423 -132 450 6 c 1
 337 5 l 1
 392 309 l 1
EndSplineSet
Validated: 1
EndChar

StartChar: ae
Encoding: 230 230 65
Width: 1060
VWidth: 6
Flags: W
HStem: 0 208<705.549 844.447> 4 158<281.461 427.636> 447 207<775 917.878> 508 153<370.298 508.774> 808 210<375.707 545.438 805.827 919.282>
VStem: 74 236<162.281 427.849> 925 194<658.688 805.376>
LayerCount: 2
Fore
SplineSet
779 675 m 2x2e
 775 654 l 1
 813 654 875 654 920 660 c 1
 923 683 925 704 925 721 c 0
 925 782 905 808 859 808 c 0
 819 808 796 760 779 675 c 2x2e
319 322 m 0
 313 290 310 263 310 241 c 0
 310 188 326 162 353 162 c 0
 443 162 466 299 482 327 c 1
 510 474 l 1
 472 499 467 508 413 508 c 0x5e
 380 508 339 423 319 322 c 0
722 0 m 0xae
 564 0 541 75 524 97 c 1
 487 63 416 4 313 4 c 0
 250 4 188 19 141 57 c 0
 92 97 74 156 74 222 c 0
 74 250 77 280 83 309 c 0
 115 476 215 661 419 661 c 0x5e
 496 661 505 645 540 629 c 1
 547 663 552 696 552 723 c 0
 552 774 533 808 464 808 c 2
 455 808 l 2
 402 808 380 788 334 702 c 1
 152 784 l 1
 258 970 380 1018 498 1018 c 0
 554 1018 599 1015 651 968 c 1
 667 952 682 928 690 909 c 1
 712 935 787 1018 889 1018 c 1
 1052 1018 1119 871 1119 695 c 0
 1119 654 1116 612 1109 570 c 1
 1086 454 l 1
 987 450 849 447 767 447 c 0
 755 447 744 447 735 447 c 1
 699 274 l 1
 707 232 713 208 752 208 c 0
 827 208 847 244 862 290 c 1
 1038 218 l 1
 1038 218 947 0 722 0 c 0xae
EndSplineSet
Validated: 1
EndChar

StartChar: exclam
Encoding: 33 33 68
Width: 1060
VWidth: 0
Flags: W
HStem: 0 270<402 700> 1356 20G<630.477 949>
VStem: 350 599
LayerCount: 2
Fore
SplineSet
949 1376 m 5
 756 464 l 5
 473 462 l 5
 634 1376 l 5
 949 1376 l 5
402 270 m 5
 752 270 l 5
 700 0 l 5
 350 0 l 5
 402 270 l 5
EndSplineSet
Validated: 1
EndChar

StartChar: quotesingle
Encoding: 39 39 70
Width: 1060
VWidth: -25
Flags: W
VStem: 509 641
LayerCount: 2
Fore
SplineSet
835 1469 m 1
 1150 1429 l 1
 1056 1076 795 844 607 742 c 1
 509 915 l 1
 636 1033 765 1222 835 1469 c 1
EndSplineSet
Validated: 1
EndChar

StartChar: Aring
Encoding: 197 197 76
Width: 1060
VWidth: -8
Flags: W
HStem: 0 21G<6 271 750 1029> 281 223<484.995 748> 1516 142<732.459 894.063>
VStem: 532 190<1395.81 1502.38> 749 285<0 281> 896 192<1405.76 1511.9>
LayerCount: 2
Fore
SplineSet
821 1516 m 0xf4
 769 1516 729 1485 723 1454 c 0
 722 1451 722 1448 722 1445 c 0
 722 1417 749 1391 796 1391 c 0
 848 1391 889 1423 895 1454 c 0
 896 1457 896 1460 896 1463 c 0
 896 1491 870 1516 821 1516 c 0xf4
749 504 m 1xf8
 749 506 749 509 749 511 c 0
 749 625 711 773 711 905 c 0
 711 937 713 968 719 998 c 1
 680 830 547 625 482 486 c 1
 545 499 665 499 749 504 c 1xf8
535 1454 m 0
 558 1570 702 1658 850 1658 c 0
 985 1658 1088 1585 1088 1484 c 0xf4
 1088 1474 1087 1464 1085 1454 c 0
 1069 1373 1001 1309 905 1279 c 1
 1023 244 l 1
 1028 194 1034 142 1034 91 c 0
 1034 60 1032 30 1026 0 c 1
 750 0 l 1
 757 37 760 73 760 107 c 0
 760 127 759 147 757 167 c 2
 748 281 l 1
 595 278 511 282 385 252 c 1
 337 162 l 2
 305 101 276 43 266 0 c 1
 6 0 l 1
 22 61 61 143 103 223 c 2
 651 1278 l 1
 578 1305 532 1357 532 1424 c 0
 532 1434 533 1444 535 1454 c 0
EndSplineSet
Validated: 1
EndChar

StartChar: ccedilla
Encoding: 231 231 81
Width: 1060
VWidth: 12
Flags: W
HStem: -431 172<341.787 564.327> 807 211<570.319 840.804>
VStem: 152 264<251.426 618.581>
LayerCount: 2
Fore
SplineSet
430 528 m 0
 420 479 416 437 416 402 c 0
 416 207 542 204 582 204 c 2
 594 204 l 2
 694 204 760 269 824 350 c 1
 1024 216 l 1
 941 87 820 15 650 -3 c 1
 646 -24 640 -51 640 -53 c 1
 724 -57 792 -102 792 -190 c 0
 792 -202 791 -215 788 -229 c 0
 763 -359 635 -431 477 -431 c 0
 411 -431 323 -413 274 -377 c 1
 362 -230 l 1
 392 -248 435 -259 486 -259 c 0
 522 -259 558 -248 568 -210 c 1
 569 -208 l 2
 570 -205 570 -201 570 -198 c 0
 570 -173 550 -152 508 -152 c 0
 460 -152 427 -155 397 -165 c 1
 429 1 l 1
 365 10 303 31 255 73 c 1
 182 140 152 230 152 342 c 0
 152 398 160 460 173 527 c 0
 239 867 447 1018 762 1018 c 0
 857 1018 950 999 1005 957 c 0
 1057 917 1092 858 1104 806 c 1
 864 704 l 1
 861 742 843 807 703 807 c 0
 556 807 458 671 430 528 c 0
EndSplineSet
Validated: 1
EndChar

StartChar: AE
Encoding: 198 198 82
Width: 1060
VWidth: 0
Flags: W
HStem: -5 208<733 993.969> 422 209<451.4 527> 642 208<794 986> 1114 208<823 1176>
LayerCount: 2
Fore
SplineSet
1014 32 m 1
 962 7 895 -5 820 -5 c 2
 478 -5 l 1
 497 150 510 267 527 419 c 1
 509 421 495 422 481 422 c 0
 453 422 430 418 394 410 c 1
 234 0 l 1
 9 45 l 1
 179 431 351 894 529 1323 c 1
 674 1320 l 1
 717 1322 771 1322 831 1322 c 0
 871 1322 913 1322 956 1322 c 2
 1216 1322 l 1
 1176 1116 l 1
 1159 1116 l 2
 1076 1116 1088 1114 965 1114 c 2
 823 1114 l 1
 794 846 l 1
 845 847 835 850 920 850 c 2
 1026 850 l 1
 986 642 l 1
 880 642 l 2
 798 642 815 639 770 638 c 1
 733 203 l 1
 890 203 l 1
 951 203 994 228 994 228 c 1
 1014 32 l 1
552 631 m 1
 592 997 l 1
 450 625 l 1
 480 628 501 631 552 631 c 1
EndSplineSet
Validated: 1
EndChar

StartChar: Ccedilla
Encoding: 199 199 83
Width: 1060
VWidth: 6
Flags: W
HStem: -442 172<373.787 596.281> 1128 204<667.628 893.265>
VStem: 159 265<271.823 726.457> 600 223<-263.692 -166.42>
LayerCount: 2
Fore
SplineSet
785 1128 m 0
 670 1128 511 992 440 628 c 0
 429 570 424 518 424 471 c 0
 424 295 494 198 578 198 c 2
 592 198 l 2
 716 198 767 262 840 392 c 1
 1060 255 l 1
 976 128 837 38 687 8 c 1
 683 -7 673 -61 672 -64 c 1
 756 -68 823 -113 823 -201 c 0
 823 -213 822 -226 819 -240 c 0
 794 -370 667 -442 509 -442 c 0
 443 -442 355 -424 306 -388 c 1
 394 -241 l 1
 424 -259 467 -270 518 -270 c 0
 554 -270 590 -259 600 -221 c 1
 600 -219 l 2
 601 -216 601 -212 601 -209 c 0
 601 -184 581 -163 539 -163 c 0
 491 -163 458 -166 428 -176 c 1
 463 6 l 1
 385 20 310 52 258 116 c 1
 192 202 159 308 159 439 c 0
 159 499 166 564 180 636 c 0
 230 895 342 1054 409 1132 c 0
 502 1240 656 1332 831 1332 c 0
 971 1332 1132 1269 1189 1107 c 1
 933 982 l 1
 907 1106 871 1128 785 1128 c 0
EndSplineSet
Validated: 1
EndChar

StartChar: quotedbl
Encoding: 34 34 92
Width: 1060
VWidth: -25
Flags: W
VStem: 478 310<1230.25 1459> 911 310<1220.33 1457>
LayerCount: 2
Fore
SplineSet
466 1359 m 4
 473 1394 476 1426 478 1459 c 5
 788 1480 l 1
 786 1439 783 1404 775 1361 c 0
 723 1093 645 911 531 779 c 1
 316 876 l 1
 370 939 425 1148 466 1359 c 4
900 1357 m 4
 907 1392 909 1424 911 1457 c 5
 1221 1478 l 1
 1219 1437 1216 1402 1208 1359 c 0
 1156 1091 1079 909 965 777 c 1
 750 874 l 1
 804 937 859 1146 900 1357 c 4
EndSplineSet
Validated: 1
EndChar

StartChar: numbersign
Encoding: 35 35 93
Width: 1060
VWidth: 6
Flags: W
HStem: -19 21G<127 369.488 501.5 716> 360 198<107.417 234 520 604 896 1016> 778 197<198.79 369 652 733 1020 1104> 1314 20G<501 533.5 903 1106.5>
VStem: 519 229<1163.12 1331>
LayerCount: 2
Fore
SplineSet
590 782 m 1
 520 558 l 1
 672 557 l 1
 733 778 l 1
 590 782 l 1
364 -19 m 1
 127 -15 l 1
 156 98 183 191 234 358 c 1
 181 357 136 348 106 339 c 1
 95 521 l 1
 155 541 233 550 300 555 c 1
 331 635 345 699 369 778 c 1
 351 779 l 1
 285 775 235 770 197 757 c 1
 179 941 l 1
 249 966 333 970 418 975 c 1
 476 1159 483 1189 519 1334 c 1
 548 1334 661 1332 699 1332 c 0
 718 1332 734 1332 748 1331 c 1
 717 1210 695 1122 652 978 c 1
 787 974 l 1
 838 1137 861 1203 903 1322 c 1
 1131 1323 l 1
 1082 1202 1070 1136 1020 978 c 1
 1142 978 l 1
 1104 780 l 1
 964 784 l 5
 896 557 l 1
 1058 558 l 1
 1016 362 l 1
 833 365 l 1
 773 168 749 98 716 -23 c 1
 485 -25 l 1
 518 87 550 185 604 361 c 1
 468 360 l 1
 424 210 364 -19 364 -19 c 1
EndSplineSet
Validated: 1
EndChar

StartChar: dollar
Encoding: 36 36 94
Width: 1060
VWidth: 0
Flags: W
HStem: 64 198<625 728.868> 1063 203<531.17 621>
VStem: 115 243<292.638 448> 244 259<867.596 1035.63> 801 254<336.918 548.5>
LayerCount: 2
Fore
SplineSet
375 703 m 0xe8
 294 740 244 802 244 904 c 0xd8
 244 927 247 952 252 979 c 0
 287 1161 470 1257 664 1266 c 1
 692 1451 l 1
 938 1437 l 1
 882 1263 l 1
 1019 1248 1125 1175 1155 1053 c 1
 915 963 l 1
 915 966 915 968 915 971 c 0
 915 1025 878 1044 828 1052 c 1
 766 802 l 1
 822 782 853 770 899 748 c 1
 980 707 1055 633 1055 502 c 0
 1055 478 1052 452 1047 424 c 0
 998 174 803 68 576 64 c 1
 537 -119 l 1
 306 -110 l 1
 362 73 l 1
 180 102 115 220 115 354 c 0
 115 385 119 416 125 448 c 1
 372 449 l 1
 367 434 363 420 361 408 c 0
 359 396 358 385 358 375 c 0
 358 325 382 292 420 283 c 1
 513 644 l 1
 475 655 419 682 375 703 c 0xe8
621 1063 m 1
 562 1063 517 1020 507 970 c 0
 504 957 503 946 503 935 c 0
 503 895 522 870 569 857 c 1
 621 1063 l 1
625 262 m 1
 716 275 775 320 796 427 c 0
 799 443 801 458 801 470 c 0
 801 525 770 547 706 578 c 1
 625 262 l 1
EndSplineSet
Validated: 1
EndChar

StartChar: oe
Encoding: 339 339 95
Width: 1060
VWidth: 6
Flags: W
HStem: 0 208<307.535 439.05 703.612 845.607> 447 207<775 917.878> 812 205<450.941 547.334 804.315 919.649>
VStem: 95 233<209.376 577.097> 926 193<656.376 797.671>
LayerCount: 2
Fore
SplineSet
1038 218 m 5
 1038 218 911 0 708 0 c 4
 616 0 547 40 505 95 c 1
 475 63 410 0 336 0 c 0
 280 0 212 5 149 91 c 0
 107 148 95 224 95 294 c 0
 95 360 106 421 113 459 c 0
 122 505 138 585 158 635 c 1
 203 758 316 1017 525 1017 c 0
 604 1017 637 990 671 954 c 0
 680 945 686 937 690 931 c 1
 720 968 774 1018 889 1018 c 4
 1052 1018 1119 871 1119 695 c 0
 1119 654 1116 612 1109 570 c 5
 1086 454 l 5
 987 450 849 447 767 447 c 0
 755 447 744 447 735 447 c 5
 699 274 l 5
 707 232 713 208 752 208 c 4
 827 208 847 244 862 290 c 5
 1038 218 l 5
779 675 m 6
 775 654 l 5
 813 654 875 654 920 660 c 5
 924 686 926 708 926 727 c 0
 926 783 906 808 848 808 c 4
 808 808 796 760 779 675 c 6
370 208 m 0
 422 208 465 279 476 338 c 2
 548 698 l 2
 549 705 552 720 552 737 c 0
 552 771 542 812 494 812 c 0
 466 812 388 687 344 474 c 0
 343 468 342 462 341 456 c 0
 334 418 328 369 328 325 c 0
 328 262 339 208 370 208 c 0
EndSplineSet
Validated: 1
EndChar

StartChar: bracketleft
Encoding: 91 91 96
Width: 1060
VWidth: 66
Flags: W
HStem: -259 207<571 836.912> 1265 208<828 1120>
LayerCount: 2
Fore
SplineSet
1132 1483 m 5
 1120 1277 l 5
 1037 1269 962 1269 828 1265 c 5
 571 -55 l 5
 649 -52 733 -52 748 -52 c 6
 758 -52 l 6
 808 -52 860 -57 870 -60 c 5
 836 -268 l 5
 812 -265 773 -259 702 -259 c 4
 643 -259 362 -261 269 -261 c 5
 304 -83 322 0 357 180 c 4
 374 270 397 391 431 570 c 4
 465 745 497 921 522 1052 c 6
 604 1473 l 5
 697 1473 976 1477 1027 1477 c 5
 1100 1480 1109 1481 1132 1483 c 5
EndSplineSet
Validated: 1
EndChar

StartChar: bracketright
Encoding: 93 93 97
Width: 1060
VWidth: 66
Flags: W
HStem: -259 207<149 450> 1277 206<482.268 708>
LayerCount: 2
Fore
SplineSet
487 1483 m 1
 510 1481 519 1480 590 1477 c 1
 641 1477 919 1473 1012 1473 c 1
 930 1052 l 2
 905 921 869 745 835 570 c 0
 799 391 774 270 757 180 c 0
 722 0 708 -83 673 -261 c 1
 580 -261 300 -259 241 -259 c 0
 170 -259 129 -265 103 -268 c 1
 149 -60 l 1
 161 -57 215 -52 265 -52 c 2
 275 -52 l 2
 290 -52 374 -52 450 -55 c 1
 708 1265 l 1
 576 1269 498 1269 419 1277 c 1
 487 1483 l 1
EndSplineSet
Validated: 1
EndChar

StartChar: parenleft
Encoding: 40 40 98
Width: 1060
VWidth: 66
Flags: W
HStem: -262 250<731.162 841> 1250 234<936.462 1136>
VStem: 296 274<159.618 673.031>
LayerCount: 2
Fore
SplineSet
1136 1250 m 5
 1134 1250 1131 1250 1129 1250 c 4
 866 1250 682 1067 594 616 c 4
 578 531 570 455 570 389 c 0
 570 109 706 -11 891 -12 c 5
 841 -262 l 5
 540 -259 296 -77 296 344 c 0
 296 424 305 514 324 612 c 4
 443 1225 747 1471 1181 1484 c 5
 1136 1250 l 5
EndSplineSet
Validated: 1
EndChar

StartChar: parenright
Encoding: 41 41 99
Width: 1060
VWidth: 66
Flags: W
HStem: -262 250<144 315.668> 1250 234<434 572.103>
VStem: 714 272<555.529 1101.61>
LayerCount: 2
Fore
SplineSet
389 1250 m 1
 434 1484 l 1
 782 1473 986 1309 986 918 c 0
 986 828 975 726 953 612 c 0
 834 0 457 -259 96 -262 c 1
 144 -12 l 1
 373 -11 599 173 685 616 c 0
 705 717 714 804 714 879 c 0
 714 1139 599 1250 395 1250 c 0
 393 1250 391 1250 389 1250 c 1
EndSplineSet
Validated: 1
EndChar

StartChar: hyphen
Encoding: 45 45 100
Width: 1060
VWidth: 6
Flags: W
HStem: 413 244<209 1053>
LayerCount: 2
Fore
SplineSet
209 654 m 5
 254 656 305 657 355 657 c 0
 455 657 555 654 623 654 c 4
 664 654 703 654 742 654 c 4
 824 654 976 653 1083 652 c 5
 1101 652 l 5
 1053 407 l 5
 1035 407 l 5
 901 410 699 410 574 410 c 4
 531 410 440 413 340 413 c 0
 283 413 224 412 168 409 c 5
 191 531 l 5
 209 654 l 5
EndSplineSet
Validated: 1
EndChar

StartChar: plus
Encoding: 43 43 101
Width: 1060
VWidth: 6
Flags: HWO
HStem: 0 21G<400 655.858> 391 235<180 476 768 1046>
LayerCount: 2
Fore
SplineSet
180 616 m 1
 229 625 260 626 325 626 c 0
 337 626 350 626 364 626 c 2
 524 626 l 1
 600 1017 l 1
 846 1018 l 1
 768 627 l 1
 894 627 947 625 1009 625 c 0
 1036 625 1064 625 1091 625 c 1
 1046 391 l 1
 1032 391 l 2
 1026 391 937 391 728 394 c 1
 652 0 l 1
 400 0 l 1
 476 391 l 1
 443 391 414 391 387 391 c 0
 254 391 195 390 136 382 c 1
 180 616 l 1
EndSplineSet
Validated: 1
EndChar

StartChar: less
Encoding: 60 60 102
Width: 1060
VWidth: 4
Flags: W
LayerCount: 2
Fore
SplineSet
940 141 m 1
 758 -49 l 1
 741 -13 699 33 658 71 c 1
 578 150 216 377 193 395 c 1
 235 621 l 1
 417 750 773 976 921 1054 c 0
 954 1071 978 1085 1015 1096 c 1
 1105 889 l 1
 927 804 651 622 468 499 c 1
 591 398 884 265 940 141 c 1
EndSplineSet
Validated: 1
EndChar

StartChar: greater
Encoding: 62 62 103
Width: 1060
VWidth: 4
Flags: W
LayerCount: 2
Fore
SplineSet
139 166 m 1
 243 290 589 415 752 516 c 1
 617 639 431 807 287 892 c 1
 430 1073 l 5
 463 1062 480 1048 507 1031 c 4
 625 953 893 727 1025 598 c 5
 1006 398 l 1
 977 380 525 153 415 74 c 1
 360 36 300 -10 269 -46 c 1
 139 166 l 1
EndSplineSet
Validated: 1
EndChar

StartChar: slash
Encoding: 47 47 104
Width: 1060
VWidth: 60
Flags: W
LayerCount: 2
Fore
SplineSet
62 -38 m 5
 244 239 793 1124 997 1480 c 5
 1189 1372 l 1
 983 1020 430 133 255 -149 c 1
 62 -38 l 5
EndSplineSet
Validated: 1
EndChar

StartChar: one
Encoding: 49 49 105
Width: 1060
VWidth: 0
Flags: W
HStem: -9 21G<507 768.888> 1302 20G<776.5 885.556>
LayerCount: 2
Fore
SplineSet
782 1322 m 1
 1015 1277 l 1
 765 -9 l 1
 507 -9 l 1
 692 953 l 1
 607 868 486 764 342 691 c 5
 240 905 l 1
 577 1059 771 1307 782 1322 c 1
EndSplineSet
Validated: 1
EndChar

StartChar: two
Encoding: 50 50 106
Width: 1060
VWidth: 0
Flags: W
HStem: 0 215<458 932> 1095 211<597.129 831.671>
VStem: 270 257<862.462 1028.71> 854 252<838.786 1067.71>
LayerCount: 2
Fore
SplineSet
531 864 m 1
 272 822 l 1
 271 835 270 851 270 868 c 0
 270 890 271 914 274 934 c 0
 276 943 276 951 278 959 c 0
 315 1150 491 1306 747 1306 c 0
 978 1306 1106 1225 1106 1033 c 0
 1106 1000 1103 964 1095 925 c 0
 1057 727 918 623 821 538 c 1
 755 483 469 271 458 215 c 1
 974 215 l 1
 932 0 l 1
 72 0 l 1
 78 30 82 62 88 95 c 0
 93 121 100 148 110 176 c 0
 147 273 246 374 374 475 c 0
 521 590 815 755 848 926 c 0
 852 945 854 963 854 979 c 0
 854 1058 807 1095 721 1095 c 0
 647 1095 551 1051 532 951 c 0
 529 937 527 922 527 905 c 0
 527 892 528 878 531 864 c 1
EndSplineSet
Validated: 1
EndChar

StartChar: three
Encoding: 51 51 107
Width: 1060
VWidth: 0
Flags: W
HStem: -22 213<371.577 639.935> 621 200<500 660.973> 1041 21G<408.86 437.5> 1122 198<476.088 781.752>
VStem: 746 260<296.683 544.739> 801 260<924.491 1102.34>
LayerCount: 2
Fore
SplineSet
81 333 m 1xf8
 332 333 l 1
 332 213 430 191 510 191 c 0
 630 191 722 285 740 379 c 0
 744 401 746 420 746 437 c 0xf8
 746 506 715 538 677 566 c 0
 626 604 541 621 461 621 c 1
 500 821 l 1
 516 821 l 2
 645 821 774 880 799 1009 c 0
 800 1016 801 1024 801 1031 c 0
 801 1085 756 1122 673 1122 c 0
 565 1122 450 1077 425 1041 c 1
 287 1212 l 1
 295 1227 424 1320 704 1320 c 2
 715 1320 l 2
 847 1320 1061 1259 1061 1076 c 0xf4
 1061 1060 1059 1044 1056 1026 c 0
 1031 898 903 757 800 738 c 1
 941 689 1006 593 1006 465 c 0
 1006 437 1003 408 997 378 c 0
 948 128 810 -22 462 -22 c 0
 180 -22 81 123 81 333 c 1xf8
EndSplineSet
Validated: 1
EndChar

StartChar: four
Encoding: 52 52 108
Width: 1060
VWidth: 0
Flags: W
HStem: 0 21G<590 850.868> 393 210<451 666 964 1050>
LayerCount: 2
Fore
SplineSet
707 603 m 1
 770 928 l 1
 672 799 550 688 451 601 c 1
 707 603 l 1
156 558 m 1
 199 604 721 1040 852 1306 c 1
 1101 1308 l 1
 964 603 l 1
 1091 603 l 1
 1050 393 l 1
 923 393 l 1
 847 0 l 1
 590 0 l 1
 666 390 l 1
 213 388 l 1
 156 558 l 1
EndSplineSet
Validated: 1
EndChar

StartChar: five
Encoding: 53 53 109
Width: 1060
VWidth: 0
Flags: W
HStem: -2 212<410.823 638.041> 709 191<545.77 710.075> 1089 199<600 1039>
VStem: 756 269<350.325 660.386>
LayerCount: 2
Fore
SplineSet
609 709 m 0
 489 709 416 618 398 598 c 1
 224 678 l 1
 402 1288 l 1
 1078 1286 l 1
 1039 1089 l 1
 600 1089 l 1
 545 890 l 1
 545 890 587 900 665 900 c 0
 722 900 798 896 860 863 c 1
 942 815 1025 743 1025 576 c 0
 1025 539 1020 496 1011 448 c 0
 949 130 712 0 472 -2 c 1
 470 -2 l 2
 282 -2 164 74 115 234 c 1
 365 344 l 1
 378 266 429 210 511 210 c 0
 601 210 715 274 749 450 c 0
 754 476 756 501 756 524 c 0
 756 640 694 709 609 709 c 0
EndSplineSet
Validated: 1
EndChar

StartChar: six
Encoding: 54 54 110
Width: 1060
VWidth: 0
Flags: W
HStem: -3 203<440.618 651.886> 560 201<527.833 710.19> 1072 226<855.754 1049>
VStem: 146 260<230.477 490.642> 741 258<289.807 530.34>
LayerCount: 2
Fore
SplineSet
1060 1072 m 1
 782 1042 541 940 471 674 c 1
 471 674 554 761 674 761 c 0
 857 761 999 635 999 447 c 0
 999 422 996 395 991 368 c 0
 942 115 752 -3 486 -3 c 4
 299 -3 146 152 146 374 c 0
 146 406 149 440 156 474 c 0
 244 929 497 1208 1049 1298 c 1
 1060 1072 l 1
416 457 m 1
 410 426 406 395 406 365 c 0
 406 274 440 200 532 200 c 0
 617 200 716 266 736 367 c 0
 740 385 741 402 741 418 c 0
 741 506 691 560 635 560 c 0
 530 560 475 522 416 457 c 1
EndSplineSet
Validated: 1
EndChar

StartChar: seven
Encoding: 55 55 111
Width: 1060
VWidth: 0
Flags: W
HStem: 0 21G<294 599> 1070 216<500.598 953>
VStem: 294 261<0 159.707>
LayerCount: 2
Fore
SplineSet
402 1292 m 1
 486 1292 593 1286 670 1286 c 0
 821 1286 987 1293 1130 1293 c 2
 1171 1293 l 1
 1240 1130 l 1
 851 662 643 454 555 0 c 1
 294 0 l 1
 373 407 586 674 953 1073 c 1
 865 1070 762 1070 671 1070 c 0
 608 1070 583 1070 521 1073 c 1
 519 1072 491 1006 480 969 c 1
 239 1033 l 1
 269 1092 357 1226 402 1292 c 1
EndSplineSet
Validated: 1
EndChar

StartChar: eight
Encoding: 56 56 112
Width: 1060
VWidth: 0
Flags: W
HStem: -9 212<428.004 677.78> 1091 202<580.091 836.757>
VStem: 119 264<248.136 475.428> 299 253<875.098 1061.92> 776 261<299.954 548.437> 843 253<915.345 1080.61>
LayerCount: 2
Fore
SplineSet
544 203 m 0xe8
 613 203 746 250 773 388 c 4
 775 399 776 410 776 422 c 0
 776 496 732 580 628 632 c 1
 484 572 403 469 387 388 c 0
 384 374 383 361 383 349 c 0
 383 241 482 203 544 203 c 0xe8
668 840 m 1
 780 863 831 944 840 990 c 0
 842 1000 843 1009 843 1017 c 0
 843 1087 776 1091 717 1091 c 0
 651 1091 572 1085 554 990 c 0
 553 984 552 977 552 969 c 0xd4
 552 923 579 860 668 840 c 1
756 1293 m 0
 984 1293 1096 1201 1096 1053 c 0xd4
 1096 1032 1094 1009 1089 985 c 0
 1069 882 961 762 867 736 c 1
 962 692 1037 596 1037 458 c 0
 1037 433 1034 406 1029 378 c 0
 983 141 762 -9 503 -9 c 0
 273 -9 119 109 119 301 c 0xe8
 119 326 122 351 127 378 c 0
 162 560 297 684 429 736 c 1
 356 759 299 853 299 945 c 0
 299 959 300 972 303 985 c 0
 340 1173 495 1293 756 1293 c 0
EndSplineSet
Validated: 1
EndChar

StartChar: nine
Encoding: 57 57 113
Width: 1060
VWidth: 0
Flags: W
HStem: -2 207<328.211 619.066> 583 201<540.259 800.33> 1106 196<577.662 825.119>
VStem: 247 259<818.437 1036.83> 856 243<854.781 1074.66>
LayerCount: 2
Fore
SplineSet
702 1106 m 1
 592 1106 523 1026 510 958 c 0
 507 945 506 932 506 920 c 0
 506 835 568 784 649 784 c 0
 745 784 805 826 852 870 c 1
 854 895 856 919 856 941 c 0
 856 1047 823 1106 702 1106 c 1
254 955 m 0
 293 1155 460 1302 732 1302 c 0
 1004 1302 1099 1139 1099 903 c 0
 1099 824 1088 737 1070 644 c 0
 1000 283 876 -2 484 -2 c 0
 241 -2 160 66 64 171 c 1
 268 324 l 1
 316 237 369 205 483 205 c 4
 642 205 761 353 805 581 c 0
 808 597 813 631 813 631 c 1
 782 611 722 583 593 583 c 0
 402 583 247 700 247 885 c 0
 247 907 249 931 254 955 c 0
EndSplineSet
Validated: 1
EndChar

StartChar: equal
Encoding: 61 61 114
Width: 1060
VWidth: 6
Flags: W
HStem: 170 224<131 933> 627 222<221.587 1021>
LayerCount: 2
Fore
SplineSet
131 394 m 1
 273 402 384 402 498 402 c 0
 676 402 809 394 977 394 c 1
 933 170 l 1
 759 170 616 174 434 174 c 0
 384 174 334 176 282 176 c 0
 222 176 158 174 89 170 c 1
 131 394 l 1
215 861 m 1
 356 852 467 849 561 849 c 0
 753 849 864 859 1062 859 c 1
 1021 639 l 1
 828 639 715 627 518 627 c 0
 422 627 315 634 172 643 c 1
 178 673 187 723 196 770 c 0
 203 805 210 839 215 861 c 1
EndSplineSet
Validated: 1
EndChar

StartChar: backslash
Encoding: 92 92 115
Width: 1060
VWidth: 60
Flags: W
VStem: 331 582
LayerCount: 2
Fore
SplineSet
913 -64 m 1
 675 -135 l 1
 610 147 401 1034 331 1386 c 1
 569 1454 l 1
 635 1098 839 213 913 -64 c 1
EndSplineSet
Validated: 1
EndChar

StartChar: asciicircum
Encoding: 94 94 116
Width: 1060
VWidth: -10
Flags: W
HStem: 424 677
LayerCount: 2
Fore
SplineSet
734 1101 m 1
 1139 588 l 1
 955 424 l 1
 677 774 l 1
 268 428 l 1
 150 582 l 1
 734 1101 l 1
EndSplineSet
Validated: 1
EndChar

StartChar: underscore
Encoding: 95 95 117
Width: 1060
VWidth: 41
Flags: W
HStem: -297 213<30 934>
LayerCount: 2
Fore
SplineSet
30 -84 m 1
 976 -84 l 1
 934 -297 l 5
 -16 -297 l 5
 30 -84 l 1
EndSplineSet
Validated: 1
EndChar

StartChar: grave
Encoding: 96 96 118
Width: 1060
VWidth: -25
Flags: W
VStem: 617 306<891.427 1452.92> 670 302<1295.85 1468>
LayerCount: 2
Fore
SplineSet
945 1367 m 0x40
 929 1286 923 1205 923 1132 c 0
 923 1015 939 919 957 880 c 1
 704 783 l 1
 660 879 617 1004 617 1168 c 0x80
 617 1229 623 1296 637 1369 c 0
 645 1412 656 1447 670 1488 c 1
 972 1467 l 1
 962 1434 952 1402 945 1367 c 0x40
EndSplineSet
Validated: 1
EndChar

StartChar: question
Encoding: 63 63 119
Width: 1060
VWidth: 0
Flags: W
HStem: 0 270<366 666> 1153 192<558.183 842.025>
VStem: 433 272<431 565.876> 866 255<918.518 1124.96>
LayerCount: 2
Fore
SplineSet
366 270 m 5
 718 270 l 5
 666 0 l 5
 314 0 l 5
 366 270 l 5
294 1215 m 5
 468 1342 650 1345 749 1345 c 4
 762 1345 l 4
 987 1345 1121 1246 1121 1070 c 4
 1121 1045 1118 1019 1113 991 c 4
 1080 821 965 755 864 685 c 4
 797 638 731 567 714 479 c 6
 705 430 l 5
 433 431 l 5
 441 475 l 6
 469 621 590 734 671 795 c 4
 767 868 845 907 862 994 c 4
 865 1009 866 1024 866 1037 c 4
 866 1106 826 1153 735 1153 c 4
 685 1153 569 1152 431 1013 c 5
 294 1215 l 5
EndSplineSet
Validated: 1
EndChar

StartChar: asciitilde
Encoding: 126 126 120
Width: 1060
VWidth: -12
Flags: W
HStem: 375 210<761.037 912.441> 596 211<354.57 512.784>
LayerCount: 2
Fore
SplineSet
489 807 m 0
 719 807 734 585 824 585 c 0
 910 585 949 675 968 743 c 1
 1166 689 l 1
 1146 584 1050 375 773 375 c 1
 549 375 553 596 441 596 c 0
 385 596 321 531 280 441 c 1
 119 551 l 1
 178 681 287 807 489 807 c 0
EndSplineSet
Validated: 1
EndChar

StartChar: Oslash
Encoding: 216 216 127
Width: 1060
VWidth: 0
Flags: W
HStem: -16 203<431.479 653.413> 1147 203<628.057 833.395>
LayerCount: 2
Fore
SplineSet
1104 1128 m 1
 1123 1072 1133 1004 1133 918 c 0
 1133 842 1125 752 1105 647 c 1
 1103 636 l 2
 1071 469 1008 312 942 217 c 0
 838 70 672 -16 507 -16 c 0
 432 -16 350 -1 283 35 c 1
 170 -115 l 1
 31 -11 l 1
 75 47 119 106 163 164 c 1
 137 222 125 289 125 365 c 0
 125 431 134 503 149 579 c 0
 217 931 308 1090 397 1187 c 0
 481 1279 627 1347 784 1350 c 1
 849 1350 934 1338 1003 1282 c 1
 1039 1331 1077 1379 1113 1428 c 1
 1253 1327 l 1
 1104 1128 l 1
430 232 m 1
 457 196 490 187 546 187 c 0
 625 187 686 249 732 326 c 1
 770 385 822 541 842 640 c 1
 846 657 l 2
 855 705 864 761 870 817 c 1
 430 232 l 1
849 1076 m 1
 825 1129 789 1147 744 1147 c 0
 679 1147 636 1122 582 1051 c 0
 519 968 459 835 412 592 c 0
 405 557 398 514 394 471 c 1
 547 673 698 875 849 1076 c 1
EndSplineSet
Validated: 1
EndChar

StartChar: multiply
Encoding: 215 215 128
Width: 1060
VWidth: 6
Flags: W
LayerCount: 2
Fore
SplineSet
392 999 m 1
 465 940 566 780 634 693 c 1
 1000 990 l 1
 1138 815 l 1
 771 519 l 1
 887 369 915 323 1017 191 c 1
 817 27 l 1
 708 177 762 104 575 353 c 1
 214 38 l 1
 75 219 l 1
 432 531 l 1
 321 674 239 793 192 835 c 1
 392 999 l 1
EndSplineSet
Validated: 1
EndChar

StartChar: oslash
Encoding: 248 248 140
Width: 1060
VWidth: 6
Flags: W
HStem: -6 203<444.79 665.071> 830 202<555.447 760.741>
LayerCount: 2
Fore
SplineSet
673 247 m 1
 730 299 763 403 788 530 c 0
 789 536 790 540 791 546 c 0
 794 560 796 573 798 586 c 1
 433 259 l 1
 455 220 493 197 546 197 c 0
 601 198 630 211 673 247 c 1
1055 1067 m 1
 1178 927 l 1
 1049 812 l 1
 1058 777 1062 736 1062 693 c 0
 1062 643 1056 591 1047 543 c 0
 992 258 844 -6 508 -6 c 2
 506 -6 l 2
 381 -6 293 25 235 80 c 1
 146 0 l 1
 26 133 l 1
 152 248 l 1
 148 271 147 295 147 321 c 0
 147 365 152 413 162 464 c 0
 234 835 414 1032 706 1032 c 0
 815 1032 892 1011 948 970 c 1
 1055 1067 l 1
763 802 m 1
 743 820 717 830 681 830 c 0
 532 830 459 693 419 490 c 1
 763 802 l 1
EndSplineSet
Validated: 1
EndChar

StartChar: plusminus
Encoding: 177 177 145
Width: 1060
VWidth: -6
Flags: W
HStem: 164 245<136 468 719 992> 629 235<214 510 802 1080>
LayerCount: 2
Fore
SplineSet
214 854 m 1
 264 863 294 864 359 864 c 0
 371 864 384 864 398 864 c 2
 558 864 l 1
 627 1221 l 1
 874 1222 l 1
 802 865 l 1
 928 865 982 863 1044 863 c 0
 1071 863 1099 863 1126 863 c 1
 1080 629 l 1
 1066 629 l 2
 1060 629 971 629 762 632 c 1
 748 558 733 485 719 411 c 1
 812 411 941 410 1022 409 c 2
 1040 409 l 1
 992 164 l 1
 974 164 l 1
 840 167 599 167 474 167 c 0
 407 167 249 166 95 158 c 1
 118 280 l 1
 136 403 l 1
 250 409 372 411 468 411 c 1
 510 629 l 1
 477 629 448 629 421 629 c 0
 288 629 230 628 171 620 c 1
 214 854 l 1
EndSplineSet
Validated: 1
EndChar

StartChar: divide
Encoding: 247 247 146
Width: 1060
VWidth: 6
Flags: W
HStem: 2 282<411 671> 413 244<193 1037> 758 280<558 818>
LayerCount: 2
Fore
SplineSet
558 1038 m 1
 873 1038 l 1
 818 758 l 1
 503 758 l 1
 558 1038 l 1
411 284 m 1
 726 284 l 1
 671 2 l 1
 356 2 l 1
 411 284 l 1
193 654 m 1
 238 656 289 657 339 657 c 0
 439 657 539 654 607 654 c 0
 648 654 687 654 726 654 c 0
 808 654 960 653 1067 652 c 1
 1085 652 l 1
 1037 407 l 1
 1019 407 l 1
 885 410 683 410 558 410 c 0
 515 410 424 413 324 413 c 0
 267 413 208 412 152 409 c 1
 175 531 l 1
 193 654 l 1
EndSplineSet
Validated: 1
EndChar

StartChar: OE
Encoding: 338 338 149
Width: 1060
VWidth: 0
Flags: W
HStem: -8 205<386.244 474.407 726 985.763> 644 205<851 1020> 1127 203<571.991 656 905 1181>
VStem: 99 260<222.311 677.406>
LayerCount: 2
Fore
SplineSet
475 199 m 1
 656 1127 l 1
 547 1127 453 951 380 578 c 0
 366 506 359 440 359 385 c 0
 359 268 391 197 456 197 c 0
 472 197 462 198 475 199 c 1
851 206 m 1
 910 208 940 216 988 232 c 1
 1015 32 l 1
 903 3 778 -1 667 -1 c 0
 620 -1 570 0 515 0 c 1
 497 -7 401 -8 386 -8 c 0
 168 1 99 150 99 347 c 0
 99 425 110 510 127 597 c 0
 212 1033 368 1330 703 1330 c 0
 729 1330 756 1328 781 1323 c 1
 841 1326 904 1326 967 1326 c 0
 1052 1326 1138 1325 1220 1325 c 1
 1181 1127 l 1
 1089 1127 1097 1128 1026 1128 c 0
 991 1128 952 1128 905 1127 c 1
 851 849 l 1
 1060 849 l 1
 1020 644 l 1
 811 644 l 1
 772 442 741 286 726 207 c 1
 851 206 l 1
EndSplineSet
Validated: 1
EndChar

StartChar: yen
Encoding: 165 165 150
Width: 1060
VWidth: 0
Flags: W
HStem: -6 21G<367 620.881> 323 218<190 434 730 994> 638 218<239.638 391 943 1055> 1343 20G<463.106 510.5 1003.5 1060.71>
LayerCount: 2
Fore
SplineSet
367 -6 m 1
 395 138 l 2
 403 177 418 247 434 323 c 1
 404 323 373 323 342 323 c 0
 282 323 219 322 149 318 c 1
 190 541 l 1
 300 547 393 549 482 549 c 1
 487 573 491 595 494 613 c 1
 493 616 490 620 488 624 c 1
 408 626 319 631 206 638 c 1
 212 668 221 718 230 765 c 0
 237 800 244 834 249 856 c 1
 300 853 347 851 391 849 c 1
 331 994 270 1158 252 1222 c 1
 498 1363 l 1
 523 1284 617 992 677 852 c 1
 803 994 976 1287 1031 1376 c 1
 1233 1240 l 1
 1194 1184 1063 1008 943 853 c 1
 989 854 1039 854 1096 854 c 1
 1055 635 l 1
 942 635 857 631 765 628 c 1
 756 618 748 609 742 602 c 1
 739 584 733 565 730 547 c 1
 833 545 927 541 1037 541 c 1
 994 317 l 1
 884 317 785 320 682 321 c 1
 663 233 649 157 643 128 c 2
 617 -6 l 1
 367 -6 l 1
EndSplineSet
Validated: 1
EndChar

StartChar: Eth
Encoding: 208 208 152
Width: 1060
VWidth: 0
Flags: W
HStem: -10 205<362 626.539> 732 210<189 218 511 726> 1127 204<539.25 746.305>
VStem: 837 264<478.963 1030.94>
LayerCount: 2
Fore
SplineSet
622 1127 m 2
 592 1127 l 2
 576 1127 564 1127 546 1124 c 1
 542 1098 537 1068 531 1037 c 0
 523 996 517 973 511 942 c 1
 765 942 l 1
 726 733 l 1
 470 732 l 1
 422 488 379 280 362 198 c 1
 449 195 401 195 461 195 c 0
 464 195 l 0
 504 195 648 197 744 353 c 0
 772 398 797 489 808 544 c 0
 828 645 837 734 837 810 c 0
 837 1018 764 1127 622 1127 c 2
259 942 m 1
 266 977 l 2
 291 1106 311 1229 319 1317 c 1
 402 1325 448 1331 547 1331 c 0
 818 1331 958 1249 1045 1066 c 1
 1082 986 1101 885 1101 776 c 0
 1101 713 1095 646 1082 580 c 0
 1069 511 1047 442 1021 376 c 0
 926 135 741 14 558 -3 c 0
 502 -8 451 -10 396 -10 c 0
 312 -10 180 -3 66 -3 c 1
 73 31 73 30 95 128 c 1
 104 174 163 454 218 732 c 1
 148 732 l 1
 189 942 l 1
 259 942 l 1
EndSplineSet
Validated: 1
EndChar

StartChar: currency
Encoding: 164 164 153
Width: 1060
VWidth: 6
Flags: W
HStem: -20 13G<177.979 217.879 790.669 830.895> 127 150<472.335 667.217> 745 150<549.99 764.587> 1002 20G<379.105 419.159>
VStem: 221 224<325.844 598.949> 784 223<407.849 687.99>
LayerCount: 2
Fore
SplineSet
680 314 m 1
 728 352 755 430 773 524 c 0
 774 528 774 531 775 535 c 0
 781 565 784 593 784 619 c 0
 784 693 756 745 673 745 c 0
 542 745 482 642 452 488 c 0
 447 464 445 442 445 421 c 0
 445 334 486 277 571 277 c 0
 619 278 643 287 680 314 c 1
300 677 m 1
 176 832 l 1
 403 1022 l 1
 525 871 l 1
 573 887 629 895 689 895 c 0
 761 895 817 886 862 869 c 1
 1029 1009 l 1
 1183 818 l 1
 1005 669 l 1
 1006 655 1007 640 1007 625 c 0
 1007 594 1004 563 998 533 c 0
 983 454 956 378 913 313 c 1
 1034 162 l 1
 807 -28 l 1
 669 141 l 1
 631 132 590 127 543 127 c 2
 541 127 l 2
 483 127 433 133 391 145 c 1
 194 -20 l 1
 41 171 l 1
 225 325 l 1
 222 343 221 362 221 383 c 0
 221 412 224 443 230 475 c 0
 245 553 269 620 300 677 c 1
EndSplineSet
Validated: 1
EndChar

StartChar: sterling
Encoding: 163 163 154
Width: 1060
VWidth: 0
Flags: W
HStem: -16 204<647.553 830.947> -13 171<173 345.28> 666 200<282 440 681 991> 1149 202<713.921 885.281>
VStem: 94 177<158.009 271.749> 441 237<382.927 661 866 1115.09> 830 226<194.17 266>
LayerCount: 2
Fore
SplineSet
348 193 m 1x7e
 321 223 309 250 299 272 c 1
 292 267 276 239 272 218 c 0
 272 216 271 214 271 212 c 0
 265 170 274 158 283 158 c 0
 305 158 328 173 348 193 c 1x7e
991 670 m 1
 915 661 832 661 734 661 c 2
 678 661 l 1
 678 568 674 495 654 385 c 0
 644 333 629 278 617 254 c 1
 677 210 711 188 759 188 c 0
 785 188 825 198 830 224 c 0
 831 229 837 262 838 267 c 1
 1066 266 l 1
 1056 213 l 1
 1026 77 907 -15 766 -16 c 0xbe
 648 -16 594 9 499 79 c 1
 420 -6 306 -13 219 -13 c 0
 127 -13 94 42 94 119 c 0
 94 141 97 166 102 191 c 0
 128 327 229 456 325 456 c 4
 384 456 391 427 412 382 c 1
 418 402 419 407 423 429 c 0
 440 517 441 555 441 621 c 0
 441 634 441 648 441 664 c 1
 389 666 305 666 260 666 c 2
 243 666 l 1
 282 866 l 1
 440 866 l 1
 441 937 438 977 451 1043 c 0
 491 1248 652 1351 841 1351 c 0
 1004 1351 1109 1256 1115 1129 c 1
 893 1075 l 1
 889 1137 845 1149 801 1149 c 0
 799 1149 797 1149 795 1149 c 0
 741 1149 705 1116 692 1051 c 0
 682 997 683 927 681 861 c 1
 776 864 l 1
 795 864 815 864 833 864 c 0
 907 864 973 865 1030 871 c 1
 991 670 l 1
EndSplineSet
Validated: 1
EndChar

StartChar: cent
Encoding: 162 162 155
Width: 1060
VWidth: 6
Flags: W
HStem: -9 281<462.056 610> 742 291<579 786.133>
VStem: 212 217<305.279 617.383>
LayerCount: 2
Fore
SplineSet
439 525 m 4
 432 489 429 458 429 432 c 0
 429 275 536 272 569 272 c 6
 579 272 l 6
 662 272 716 323 768 386 c 5
 936 282 l 5
 869 183 772 126 634 111 c 5
 610 -9 l 5
 376 -9 l 5
 402 122 l 5
 365 131 328 146 299 170 c 4
 236 223 212 296 212 385 c 0
 212 428 217 474 227 524 c 4
 267 731 380 847 551 889 c 5
 579 1033 l 5
 813 1033 l 5
 787 902 l 5
 837 895 882 881 913 859 c 4
 957 828 986 782 996 741 c 5
 798 662 l 5
 796 692 779 742 663 742 c 4
 541 742 461 637 439 525 c 4
EndSplineSet
Validated: 1
EndChar

StartChar: percent
Encoding: 37 37 156
Width: 1060
VWidth: 0
Flags: W
HStem: -14 193<704.126 810.775> 392 193<743.387 859.526> 722 193<415.126 523.979> 1128 193<454.389 570.526> 1356 20G<1050.68 1101.25>
VStem: 192 219<917.391 1086.93> 481 219<182.981 351.095> 571 229<963.111 1125.07> 860 229<230.977 389.073>
LayerCount: 2
Fore
SplineSet
753 179 m 0xfe80
 785 179 846 253 856 304 c 0
 859 317 860 328 860 338 c 0
 860 374 842 390 807 392 c 0
 806 392 806 392 805 392 c 0
 773 392 711 322 702 277 c 0
 700 268 700 259 700 251 c 0
 700 210 720 179 753 179 c 0xfe80
464 915 m 0
 496 915 557 989 567 1040 c 0
 570 1053 571 1064 571 1074 c 0xfd80
 571 1110 553 1126 518 1128 c 0
 517 1128 517 1128 516 1128 c 0
 484 1128 422 1058 413 1013 c 0
 411 1004 411 995 411 987 c 0
 411 946 431 915 464 915 c 0
38 82 m 1
 352 504 l 2
 482 679 641 788 689 853 c 1
 620 776 524 722 422 722 c 0
 285 722 192 824 192 955 c 0
 192 974 194 992 198 1012 c 0
 230 1175 397 1318 561 1321 c 0
 563 1321 566 1321 568 1321 c 0
 708 1321 800 1231 800 1108 c 0xfd80
 800 1091 798 1075 795 1057 c 0
 795 1055 794 1052 792 1040 c 0
 786 1013 772 975 752 939 c 1
 1065 1376 l 1
 1268 1264 l 1
 954 837 l 1
 860 705 688 591 577 450 c 1
 648 529 751 583 850 585 c 0
 852 585 855 585 857 585 c 0
 997 585 1089 495 1089 372 c 0
 1089 355 1087 339 1084 321 c 0
 1084 319 1083 316 1083 314 c 0
 1048 152 890 -14 711 -14 c 0
 574 -14 481 88 481 219 c 0xfe80
 481 238 483 256 487 276 c 0
 494 311 506 345 524 377 c 1
 241 -28 l 1
 38 82 l 1
EndSplineSet
Validated: 1
EndChar

StartChar: guillemotleft
Encoding: 171 171 157
Width: 1060
VWidth: 6
Flags: W
VStem: 324 235<100.693 204.688> 726 235<89.7536 198.129>
LayerCount: 2
Fore
SplineSet
538 566 m 5
 707 696 876 857 926 997 c 5
 1140 925 l 5
 1063 736 903 613 757 504 c 5
 862 386 949 267 961 95 c 5
 726 9 l 5
 717 158 647 310 516 451 c 5
 538 566 l 5
136 576 m 5
 305 706 474 867 524 1007 c 5
 738 936 l 5
 661 747 501 624 355 515 c 5
 460 397 547 278 559 106 c 5
 324 19 l 5
 315 168 245 320 114 461 c 5
 136 576 l 5
EndSplineSet
Validated: 1
EndChar

StartChar: section
Encoding: 167 167 159
Width: 1060
VWidth: 4
Flags: W
HStem: -285 200<379.17 561.031> 1051 21G<826 1048> 1168 200<636.125 817.613>
VStem: 144 223<-70.2459 32> 162 250<568.719 712.711> 338 252<901.007 1121.22> 608 250<-38.2227 179.979> 785 251<366.99 514.876> 829 223<1051 1153.74>
LayerCount: 2
Fore
SplineSet
720 354 m 1xe9
 772 382 779 396 785 429 c 1
 785 431 785 433 785 435 c 0
 785 454 780 474 761 495 c 0
 665 603 548 679 478 729 c 1
 426 701 418 687 412 654 c 1
 412 652 412 650 412 648 c 0
 412 629 417 609 436 588 c 0
 531 482 615 428 712 361 c 1
 720 354 l 1xe9
356 883 m 1
 356 883 338 904 338 965 c 0
 338 987 341 1015 347 1048 c 0
 387 1256 606 1362 760 1368 c 0
 766 1368 772 1368 778 1368 c 0
 953 1368 1052 1267 1052 1117 c 0
 1052 1096 1050 1074 1046 1051 c 1
 826 1051 l 1
 828 1061 829 1071 829 1080 c 0xe480
 829 1141 784 1168 727 1168 c 1
 695 1168 617 1151 598 1054 c 0
 597 1051 597 1047 596 1043 c 0
 593 1027 590 1009 590 990 c 0
 590 958 599 925 631 901 c 0
 752 811 868 725 956 627 c 0
 1013 563 1036 526 1036 472 c 0xe5
 1036 453 1033 433 1028 408 c 0
 1005 291 940 238 851 180 c 1
 851 180 858 151 858 108 c 0
 858 87 856 61 851 35 c 0
 811 -173 591 -279 437 -285 c 0
 431 -285 425 -285 419 -285 c 0
 243 -285 144 -183 144 -33 c 0
 144 -12 146 9 150 32 c 1
 370 32 l 1
 368 22 367 12 367 3 c 0
 367 -58 412 -85 469 -85 c 1
 501 -85 581 -68 600 29 c 0
 601 32 601 36 602 40 c 0
 605 55 608 74 608 92 c 0xf2
 608 124 599 157 566 182 c 0
 445 272 330 358 242 456 c 0
 184 520 162 557 162 612 c 0
 162 630 164 651 169 675 c 0
 196 816 356 883 356 883 c 1
EndSplineSet
Validated: 1
EndChar

StartChar: braceleft
Encoding: 123 123 160
Width: 1060
VWidth: 66
Flags: W
HStem: -282 218<719.561 835> 1266 218<958.328 1139>
VStem: 439 266<-60 96.5336> 577 261<219.381 403.806> 676 249<952.751 1230.62> 698 246<830.456 1145.35>
LayerCount: 2
Fore
SplineSet
630 600 m 1xc8
 719 577 838 506 838 381 c 0xd0
 838 364 836 347 833 330 c 0
 813 229 743 134 713 54 c 0
 709 46 708 38 707 31 c 0
 706 25 705 20 705 15 c 0
 705 -39 768 -59 882 -64 c 1
 835 -282 l 1
 703 -276 543 -274 471 -166 c 0
 449 -132 439 -96 439 -60 c 0xe0
 439 -45 441 -29 444 -14 c 0
 458 59 501 133 537 198 c 1
 557 234 569 264 574 290 c 0
 576 301 577 311 577 320 c 0xd0
 577 427 446 447 338 479 c 1
 359 592 l 1
 385 723 l 1
 516 758 668 778 694 911 c 0
 696 923 698 937 698 952 c 0xc4
 698 968 696 985 693 1004 c 1
 686 1050 676 1100 676 1152 c 0
 676 1173 678 1195 682 1216 c 0
 692 1268 718 1320 768 1368 c 0
 882 1476 1043 1478 1177 1484 c 1
 1139 1266 l 1
 1011 1261 940 1238 927 1170 c 0
 926 1162 925 1153 925 1144 c 0xc8
 925 1083 944 1014 944 940 c 0xc4
 944 918 943 895 938 872 c 0
 935 857 931 842 925 826 c 0
 878 698 728 623 630 600 c 1xc8
EndSplineSet
Validated: 1
EndChar

StartChar: bar
Encoding: 124 124 161
Width: 1060
VWidth: 66
Flags: W
VStem: 315 594
LayerCount: 2
Fore
SplineSet
387 152 m 0
 458 517 564 1111 620 1399 c 2
 638 1492 l 1
 909 1492 l 5
 881 1347 l 6
 827 1070 740 558 675 224 c 6
 645 74 l 6
 623 -41 612 -97 587 -198 c 5
 315 -197 l 1
 331 -135 340 -92 351 -37 c 0
 360 10 370 66 387 152 c 0
EndSplineSet
Validated: 1
EndChar

StartChar: braceright
Encoding: 125 125 162
Width: 1060
VWidth: 66
Flags: W
HStem: -282 218<134 314.195> 1266 218<438 554.26>
VStem: 329 246<7.29584 371.66> 347 249<-28.4185 245.296> 437 260<797.347 983.059> 569 265<1105.54 1266>
LayerCount: 2
Fore
SplineSet
644 600 m 1xe0
 555 623 437 696 437 820 c 0
 437 822 437 824 437 826 c 0xc8
 437 842 439 857 442 872 c 0
 462 974 530 1068 561 1148 c 0
 564 1156 566 1163 567 1170 c 0
 568 1176 569 1182 569 1187 c 0
 569 1242 507 1261 393 1266 c 1
 438 1484 l 1
 571 1478 732 1476 804 1368 c 0
 826 1335 834 1301 834 1266 c 0xc4
 834 1249 832 1233 829 1216 c 0
 815 1143 773 1069 737 1004 c 1
 717 968 705 937 700 911 c 0
 698 900 697 890 697 881 c 0xc8
 697 774 829 755 937 723 c 1
 911 592 l 1
 888 479 l 1
 757 444 605 424 579 291 c 0
 576 277 575 262 575 246 c 0xe0
 575 231 576 215 579 198 c 1
 586 152 596 102 596 50 c 0
 596 29 594 7 590 -14 c 0
 580 -66 555 -118 505 -166 c 0
 391 -274 229 -276 95 -282 c 1
 134 -64 l 1
 262 -58 332 -36 345 32 c 0
 346 39 346 46 347 54 c 0
 347 56 347 59 347 61 c 0xd0
 347 121 329 189 329 262 c 0
 329 284 330 307 335 330 c 0
 338 345 342 361 348 376 c 0
 395 504 546 577 644 600 c 1xe0
EndSplineSet
Validated: 1
EndChar

StartChar: at
Encoding: 64 64 163
Width: 1060
VWidth: 6
Flags: HW
HStem: -308 200<431.906 753.577> 118 200<565.774 698.584> 614 200<573.573 728.056> 1046 205<422.838 668.542>
VStem: 22 225<149.044 793.128> 332 219<325.676 594.028> 745 219<366.397 594.566 754 958.864>
LayerCount: 2
Back
SplineSet
691 209 m 4
 742 209 794 312 800 329 c 5
 809 377 l 5
 797 417 767 448 749 448 c 4
 709 448 665 414 649 333 c 6
 647 322 l 5
 643 299 641 280 641 265 c 4
 641 219 659 209 691 209 c 4
858 629 m 5
 878 731 l 5
 879 735 879 738 879 742 c 4
 879 785 832 825 774 825 c 4
 726 825 671 797 632 720 c 5
 479 797 l 5
 579 970 698 1029 794 1029 c 7
 861 1029 922 998 936 975 c 5
 936 975 929 1178 757 1178 c 4
 579 1178 396 905 321 518 c 4
 306 441 299 367 299 297 c 4
 299 18 411 -185 562 -185 c 4
 635 -185 695 -158 731 -137 c 5
 788 -320 l 5
 736 -349 636 -380 520 -380 c 4
 262 -380 83 -181 83 212 c 4
 83 309 94 418 117 538 c 4
 230 1120 513 1385 787 1385 c 4
 1057 1385 1130 1195 1130 981 c 4
 1130 889 1116 793 1099 705 c 5
 1007 233 l 5
 1004 216 1003 200 1003 184 c 4
 1003 120 1023 66 1023 66 c 5
 802 -22 l 5
 791 78 l 5
 791 78 726 -9 560 -9 c 4
 448 -9 410 81 410 190 c 4
 410 228 414 268 422 308 c 4
 440 400 474 488 507 530 c 4
 590 636 671 667 740 670 c 4
 742 670 744 670 746 670 c 4
 788 670 839 643 858 629 c 5
EndSplineSet
Fore
SplineSet
647 496 m 0
 643 474 641 455 641 437 c 0
 641 391 655 362 687 362 c 0
 785 362 820 480 848 530 c 1
 861 598 l 1
 820 642 820 658 771 658 c 0
 721 658 670 616 647 496 c 0
854 267 m 1
 783 204 755 162 629 162 c 0
 487 162 418 272 418 405 c 0
 418 431 421 458 426 485 c 0
 468 701 598 858 782 858 c 0
 851 858 873 832 900 798 c 1
 908 839 913 881 913 919 c 0
 913 1017 879 1095 765 1095 c 0
 600 1095 426 922 344 500 c 0
 330 426 322 356 322 292 c 0
 322 89 398 -53 569 -53 c 0
 617 -53 673 -41 737 -5 c 1
 775 -196 l 1
 687 -238 588 -253 518 -253 c 0
 209 -253 96 -3 96 274 c 0
 96 347 104 422 118 495 c 0
 216 1001 491 1300 803 1300 c 0
 1051 1300 1138 1127 1138 949 c 0
 1138 912 1134 874 1127 838 c 2
 1063 508 l 2
 1056 472 1047 427 1047 391 c 0
 1047 352 1055 313 1078 265 c 1
 877 169 l 1
 863 205 860 213 854 267 c 1
EndSplineSet
Validated: 1
EndChar

StartChar: brokenbar
Encoding: 166 166 164
Width: 1060
VWidth: 66
Flags: W
VStem: 315 594
LayerCount: 2
Fore
SplineSet
504 779 m 1
 548 1018 591 1250 620 1399 c 2
 638 1492 l 1
 909 1492 l 1
 881 1347 l 2
 853 1202 815 993 776 779 c 1
 504 779 l 1
734 539 m 1
 713 426 693 318 675 224 c 2
 645 74 l 2
 623 -41 612 -97 587 -198 c 1
 315 -197 l 1
 331 -135 340 -92 351 -37 c 0
 360 10 370 66 387 152 c 0
 409 264 434 399 460 539 c 1
 734 539 l 1
EndSplineSet
Validated: 1
EndChar

StartChar: copyright
Encoding: 169 169 165
Width: 1060
VWidth: 6
Flags: W
HStem: -336 155<358.066 579.932> -17 152<482.596 607.085> 859 174<608.071 720.548> 1202 153<615.139 820.135>
VStem: 101 141<-28.5763 561.074> 311 153<140.321 584.213> 729 152<804.624 856.952> 947 150<459.531 1020.15>
LayerCount: 2
Fore
SplineSet
682 1033 m 0
 683 1033 684 1033 685 1033 c 0
 692 1033 698 1035 710 1035 c 0
 785 1032 861 962 881 810 c 1
 729 753 l 1
 722 810 724 859 678 859 c 0
 602 859 519 689 484 510 c 0
 473 456 464 377 464 306 c 0
 464 215 479 135 526 135 c 0
 588 135 620 182 658 273 c 1
 777 234 l 1
 710 93 630 -17 506 -17 c 0
 351 -17 311 134 311 283 c 0
 311 359 322 433 332 487 c 0
 371 688 438 812 479 874 c 0
 530 952 606 1019 682 1033 c 0
730 1202 m 0
 564 1202 346 905 270 512 c 0
 251 416 242 324 242 242 c 0
 242 -10 325 -181 461 -181 c 0
 646 -181 846 118 922 510 c 2
 925 527 l 2
 940 604 947 677 947 745 c 0
 947 1016 840 1202 730 1202 c 0
759 1355 m 0
 989 1355 1097 1129 1097 822 c 0
 1097 723 1086 617 1064 506 c 0
 976 51 721 -336 431 -336 c 0
 206 -336 101 -112 101 193 c 0
 101 293 112 401 134 513 c 0
 223 969 471 1355 759 1355 c 0
EndSplineSet
Validated: 1
EndChar

StartChar: registered
Encoding: 174 174 166
Width: 1060
VWidth: 6
Flags: W
HStem: -336 155<358.066 579.932> 0 21G<605 652.348> 891 153<629 709.832> 1202 153<615.139 820.135>
VStem: 101 141<-28.5763 561.074> 725 136<566.393 880.162> 947 150<459.531 1020.15>
LayerCount: 2
Fore
SplineSet
721 722 m 0
 724 744 725 763 725 780 c 0
 725 863 690 891 638 891 c 0
 635 891 632 891 629 891 c 1
 561 538 l 1
 582 531 600 528 615 528 c 0
 673 528 695 576 711 657 c 0
 715 677 717 698 721 722 c 0
618 0 m 1
 592 82 575 316 561 378 c 1
 542 381 544 377 530 381 c 1
 505 254 497 203 486 148 c 0
 479 111 471 73 457 10 c 1
 309 12 l 1
 369 321 501 1007 501 1007 c 1
 550 1042 603 1039 656 1043 c 0
 664 1044 672 1044 680 1044 c 0
 814 1044 861 935 861 800 c 0
 861 763 857 723 851 684 c 1
 829 570 782 433 708 392 c 1
 731 298 752 112 776 92 c 1
 618 0 l 1
730 1202 m 0
 564 1202 346 905 270 512 c 0
 251 416 242 324 242 242 c 0
 242 -10 325 -181 461 -181 c 0
 646 -181 846 118 922 510 c 2
 925 527 l 2
 940 604 947 677 947 745 c 0
 947 1016 840 1202 730 1202 c 0
759 1355 m 0
 989 1355 1097 1129 1097 822 c 0
 1097 723 1086 617 1064 506 c 0
 976 51 721 -336 431 -336 c 0
 206 -336 101 -112 101 193 c 0
 101 293 112 401 134 513 c 0
 223 969 471 1355 759 1355 c 0
EndSplineSet
Validated: 1
EndChar

StartChar: germandbls
Encoding: 223 223 167
Width: 1060
VWidth: 0
Flags: W
HStem: -37 21G<102.452 136.5> -2 201<550.5 751.424> 634 206<539 693.68> 1122 206<544.601 732.841>
VStem: 418 214<119 319.735> 751 251<902.047 1101.27> 810 248<265.381 553.75>
LayerCount: 2
Fore
SplineSet
262 1003 m 0xfc
 292 1159 441 1328 648 1328 c 0
 856 1328 1002 1262 1002 1085 c 0xfc
 1002 1062 999 1036 994 1009 c 1
 970 886 911 815 821 779 c 1
 939 758 1058 687 1058 495 c 0
 1058 461 1054 423 1046 381 c 0
 987 76 844 -2 624 -2 c 0
 477 -2 418 57 418 181 c 0
 418 215 423 254 431 298 c 0
 433 306 435 314 437 322 c 1
 640 320 l 1
 636 298 632 277 632 258 c 0
 632 224 644 199 685 199 c 0
 739 199 776 247 805 395 c 0
 808 411 810 427 810 443 c 0xfa
 810 539 746 634 499 634 c 1
 539 840 l 1
 704 840 730 905 749 1003 c 0
 751 1011 751 1019 751 1026 c 0
 751 1094 684 1122 631 1122 c 1
 564 1122 525 1073 512 1007 c 0
 482 851 444 637 408 450 c 0
 400 410 394 370 386 331 c 0
 370 251 353 176 322 117 c 0
 279 35 167 -9 106 -37 c 1
 62 211 l 1
 84 221 105 235 118 261 c 0
 131 287 138 323 153 398 c 0
 156 413 159 429 163 448 c 0
 199 635 228 829 262 1003 c 0xfc
EndSplineSet
Validated: 1
EndChar

StartChar: ampersand
Encoding: 38 38 168
Width: 1060
VWidth: 0
Flags: W
HStem: -22 203<364.933 629.142> 1146 201<553.471 702.42>
VStem: 89 256<199.876 472.868> 282 240<870.455 1111.19> 706 252<967.676 1145>
LayerCount: 2
Fore
SplineSet
746 94 m 17xd8
 643 12 535 -22 415 -22 c 0
 236 -22 89 46 89 255 c 0xe8
 89 289 93 326 101 367 c 0
 138 559 259 670 384 758 c 1
 320 830 282 917 282 995 c 0
 282 1009 283 1023 286 1037 c 0
 327 1249 508 1347 688 1347 c 0
 836 1347 958 1294 958 1145 c 0
 958 1126 956 1105 952 1082 c 0
 915 890 784 784 658 700 c 1
 816 400 l 1
 832 417 844 446 851 483 c 0
 858 518 861 561 861 608 c 0
 861 622 860 637 860 652 c 1
 1104 652 l 1
 1048 364 926 246 926 246 c 1
 1009 102 l 25
 816 -32 l 25
 746 94 l 17xd8
466 573 m 1
 412 530 366 444 352 370 c 0
 348 349 345 327 345 306 c 0
 345 240 371 181 458 181 c 0
 544 181 612 208 651 238 c 1
 466 573 l 1
563 867 m 1
 633 915 692 995 704 1056 c 0
 705 1063 706 1071 706 1078 c 0
 706 1114 689 1146 643 1146 c 0
 585 1146 535 1096 527 1053 c 0
 523 1035 522 1018 522 1001 c 0xd8
 522 951 537 907 563 867 c 1
EndSplineSet
Validated: 1
EndChar

StartChar: uni00B5
Encoding: 181 181 169
Width: 1060
VWidth: 6
Flags: W
HStem: -17 21G<849 897.454> 2 204<373.094 616.375> 1000 20G<309.286 490>
VStem: 238 252<702.308 991.764>
LayerCount: 2
Fore
SplineSet
316 8 m 1x70
 233 -398 l 25
 -17 -395 l 1
 110 229 l 0
 126 311 145 408 164 504 c 0
 202 701 238 897 238 973 c 0
 238 980 238 987 237 992 c 1
 490 1020 l 1
 490 1017 490 1013 490 1010 c 0
 490 910 435 652 368 298 c 1
 368 296 368 294 368 292 c 0
 368 230 384 206 466 206 c 1x70
 664 206 720 370 730 418 c 1
 844 1000 l 1
 1101 1000 l 1
 965 306 l 1
 964 302 964 299 964 295 c 0
 964 245 1012 186 1056 166 c 1
 878 -17 l 1xb0
 820 12 786 58 775 108 c 1
 685 31 563 5 412 2 c 1
 403 2 l 2
 374 2 345 4 316 8 c 1x70
EndSplineSet
Validated: 1
EndChar

StartChar: paragraph
Encoding: 182 182 170
Width: 1060
VWidth: 0
Flags: W
HStem: -10 21G<723 907> 1112 216<795.979 913>
LayerCount: 2
Fore
SplineSet
899 1041 m 2
 913 1112 l 1
 902 1112 846 1112 824 1112 c 0
 814 1112 804 1112 796 1112 c 1
 738 816 684 520 626 224 c 0
 608 132 544 -2 498 -41 c 1
 312 61 l 1
 342 103 379 141 395 221 c 2
 438 440 l 1
 298 450 200 568 200 772 c 0
 200 818 205 869 216 924 c 0
 234 1016 270 1108 337 1174 c 0
 479 1315 653 1328 878 1328 c 0
 1011 1328 1048 1320 1166 1320 c 1
 907 -9 l 1
 690 -10 l 1
 756 332 814 604 899 1041 c 2
EndSplineSet
Validated: 1
EndChar

StartChar: dieresis
Encoding: 168 168 173
Width: 1060
VWidth: -28
Flags: W
HStem: 1119 240<386 619 806 1041>
LayerCount: 2
Fore
SplineSet
806 1359 m 1
 1088 1356 l 1
 1041 1116 l 1
 760 1119 l 1
 806 1359 l 1
386 1359 m 1
 665 1359 l 1
 619 1119 l 1
 340 1119 l 1
 386 1359 l 1
EndSplineSet
Validated: 1
EndChar

StartChar: acute
Encoding: 180 180 174
Width: 1060
VWidth: -43
Flags: W
HStem: 1267 442
VStem: 479 585
LayerCount: 2
Fore
SplineSet
479 1441 m 1
 631 1489 827 1601 963 1709 c 1
 1064 1537 l 1
 931 1425 687 1314 535 1267 c 1
 479 1441 l 1
EndSplineSet
Validated: 1
EndChar

StartChar: degree
Encoding: 176 176 175
Width: 1060
VWidth: -8
Flags: W
HStem: 1278 132<723.419 884.316> 1535 142<730.329 892.047>
VStem: 529 191<1415.96 1521.38> 894 192<1424.68 1530.9>
LayerCount: 2
Fore
SplineSet
819 1535 m 0
 766 1535 727 1504 721 1473 c 0
 720 1470 720 1468 720 1465 c 0
 720 1437 748 1410 795 1410 c 0
 847 1410 887 1442 893 1473 c 0
 894 1476 894 1479 894 1482 c 0
 894 1510 867 1535 819 1535 c 0
532 1473 m 0
 555 1589 700 1677 848 1677 c 0
 983 1677 1086 1604 1086 1503 c 0
 1086 1493 1085 1483 1083 1473 c 0
 1061 1358 930 1278 770 1278 c 0
 630 1278 529 1346 529 1444 c 0
 529 1453 530 1463 532 1473 c 0
EndSplineSet
Validated: 1
EndChar

StartChar: macron
Encoding: 175 175 176
Width: 1060
VWidth: -34
Flags: W
HStem: 1463 194<560 1022>
VStem: 522 538
LayerCount: 2
Fore
SplineSet
1060 1657 m 1
 1022 1463 l 5
 1005 1463 l 4
 947 1461 848 1456 774 1456 c 4
 700 1456 608 1457 540 1459 c 4
 522 1460 l 5
 560 1657 l 1
 579 1655 l 0
 644 1653 758 1652 850 1652 c 0
 911 1652 998 1657 1043 1657 c 0
 1060 1657 l 1
EndSplineSet
Validated: 1
EndChar

StartChar: dotlessi
Encoding: 305 305 177
Width: 1060
VWidth: 0
Flags: W
HStem: -18 200<569 919.134> 1019 20G<528.5 748.308>
VStem: 396 272<123 442.612>
LayerCount: 2
Fore
SplineSet
556 1039 m 1
 806 1013 l 1
 753 740 673 326 673 326 c 1
 670 309 668 292 668 275 c 0
 668 226 686 182 754 182 c 0
 847 182 914 215 985 273 c 1
 1045 83 l 1
 945 12 789 -18 665 -18 c 0
 473 -18 396 61 396 185 c 0
 396 208 399 232 404 258 c 2
 497 737 l 1
 497 737 463 703 363 655 c 1
 252 839 l 1
 376 879 501 937 556 1039 c 1
EndSplineSet
Validated: 1
EndChar

StartChar: asterisk
Encoding: 42 42 191
Width: 1060
VWidth: 0
Flags: W
LayerCount: 2
Fore
SplineSet
564 792 m 1
 599 1198 l 1
 893 1200 l 1
 784 792 l 1
 1101 972 l 1
 1167 724 l 1
 783 610 l 1
 1006 340 l 1
 752 164 l 1
 625 518 l 1
 353 160 l 1
 181 332 l 1
 497 612 l 1
 169 706 l 1
 310 966 l 1
 564 792 l 1
EndSplineSet
Validated: 1
EndChar

StartChar: ordfeminine
Encoding: 170 170 193
Width: 1060
VWidth: 6
Flags: W
HStem: 430 153<279 753> 659 108<477.315 637.487> 919 108<497.275 675.016> 1034 21G<450.458 502> 1108 112<512.227 695.447>
VStem: 335 142<768.484 895.569> 703 138<917.642 1101.4>
LayerCount: 2
Fore
SplineSet
479 836 m 0
 478 830 477 823 477 818 c 0
 477 779 507 767 538 767 c 0
 598 767 655 822 671 852 c 1
 676 878 l 1
 660 900 626 919 591 919 c 0
 555 919 490 895 479 836 c 0
802 836 m 2
 799 820 797 807 797 795 c 0
 797 769 805 750 823 734 c 1
 745 653 l 1
 720 675 703 680 688 719 c 1
 638 677 589 659 489 659 c 0
 405 659 335 716 335 798 c 0
 335 808 336 818 338 828 c 0
 347 876 374 923 412 956 c 0
 474 1008 534 1027 612 1027 c 0
 647 1027 682 1015 700 1001 c 1
 702 1012 703 1021 703 1030 c 0
 703 1095 652 1108 623 1108 c 0
 560 1108 521 1076 483 1034 c 1
 387 1093 l 1
 459 1191 551 1218 649 1220 c 1
 759 1220 841 1164 841 1061 c 0
 841 1048 840 1034 837 1019 c 0
 802 836 l 2
781 583 m 5
 753 432 l 5
 736 432 l 5
 678 430 608 430 534 430 c 4
 507 430 480 430 453 430 c 4
 400 430 298 430 250 433 c 5
 279 585 l 5
 298 585 l 5
 363 583 508 583 600 583 c 4
 660 583 721 583 781 583 c 5
EndSplineSet
Validated: 1
EndChar

StartChar: logicalnot
Encoding: 172 172 194
Width: 1060
VWidth: 6
Flags: W
HStem: 410 244<209 806>
LayerCount: 2
Fore
SplineSet
209 654 m 1
 254 656 305 657 355 657 c 0
 455 657 555 654 623 654 c 0
 664 654 703 654 742 654 c 0
 824 654 976 653 1083 652 c 1
 1101 652 l 1
 1070 496 l 1
 1072 496 l 1
 1011 180 l 1
 761 180 l 1
 806 410 l 1
 722 410 638 410 574 410 c 0
 531 410 440 413 340 413 c 0
 283 413 224 412 168 409 c 1
 191 531 l 1
 209 654 l 1
EndSplineSet
Validated: 1
EndChar

StartChar: uni00AD
Encoding: 173 173 195
Width: 1060
VWidth: 6
Flags: W
HStem: 413 244<209 1053>
LayerCount: 2
Fore
SplineSet
209 654 m 5
 254 656 305 657 355 657 c 0
 455 657 555 654 623 654 c 4
 664 654 703 654 742 654 c 4
 824 654 976 653 1083 652 c 5
 1101 652 l 5
 1053 407 l 5
 1035 407 l 5
 901 410 699 410 574 410 c 4
 531 410 440 413 340 413 c 0
 283 413 224 412 168 409 c 5
 191 531 l 5
 209 654 l 5
EndSplineSet
Validated: 1
EndChar

StartChar: cedilla
Encoding: 184 184 198
Width: 1060
VWidth: 12
Flags: W
HStem: -398 172<369.374 592.321> -119 176<460 596.985>
VStem: 596 224<-218.703 -122.055>
LayerCount: 2
Fore
SplineSet
683 56 m 1
 680 48 667 -16 666 -19 c 1
 751 -23 820 -68 820 -157 c 0
 820 -169 819 -182 816 -195 c 0
 791 -325 663 -398 505 -398 c 0
 439 -398 350 -380 301 -344 c 1
 390 -196 l 1
 420 -214 461 -226 512 -226 c 0
 548 -226 586 -214 596 -176 c 1
 596 -174 l 2
 597 -171 597 -167 597 -164 c 0
 597 -139 577 -119 535 -119 c 0
 487 -119 454 -121 424 -131 c 1
 460 57 l 1
 683 56 l 1
EndSplineSet
Validated: 1
EndChar

StartChar: ordmasculine
Encoding: 186 186 200
Width: 1060
VWidth: 6
Flags: W
HStem: 430 153<279 753> 656 110<504.746 685.877> 1109 109<556.077 745.147>
VStem: 312 177<781.498 1030.94> 755 176<839.989 1100.29>
LayerCount: 2
Fore
SplineSet
781 583 m 1
 753 432 l 1
 736 432 l 1
 678 430 608 430 534 430 c 0
 507 430 480 430 453 430 c 0
 400 430 298 430 250 433 c 1
 279 585 l 1
 298 585 l 1
 363 583 508 583 600 583 c 0
 660 583 721 583 781 583 c 1
675 793 m 1
 713 821 734 879 747 947 c 0
 748 950 748 952 749 955 c 0
 753 975 755 994 755 1012 c 0
 755 1069 732 1109 665 1109 c 0
 561 1109 515 1032 493 920 c 0
 490 904 489 889 489 875 c 0
 489 809 522 766 590 766 c 1
 628 766 646 774 675 793 c 1
568 656 m 1
 386 656 312 732 312 848 c 0
 312 868 314 889 318 911 c 0
 357 1112 475 1218 676 1218 c 0
 811 1218 880 1180 914 1109 c 0
 926 1084 931 1052 931 1020 c 0
 931 997 928 975 924 953 c 0
 894 799 801 656 570 656 c 2
 568 656 l 1
EndSplineSet
Validated: 1
EndChar

StartChar: onequarter
Encoding: 188 188 201
Width: 1060
VWidth: 0
Flags: W
HStem: 0 21G<210.769 253.245 765 908.925> 214 115<690 806 969 1016> 1039 21G<311.053 357> 1356 20G<542 643.333>
LayerCount: 2
Fore
SplineSet
545 1376 m 1
 663 1352 l 1
 529 666 l 1
 399 666 l 1
 498 1179 l 1
 455 1134 394 1078 320 1039 c 5
 269 1153 l 1
 440 1235 539 1368 545 1376 c 1
829 329 m 1
 863 506 l 1
 809 436 744 375 690 328 c 1
 829 329 l 1
530 304 m 1
 553 329 837 567 908 712 c 1
 1044 713 l 1
 969 329 l 1
 1038 329 l 1
 1016 214 l 1
 947 214 l 1
 905 0 l 1
 765 0 l 1
 806 213 l 1
 561 211 l 1
 530 304 l 1
69 85 m 1
 604 700 l 0
 1034 1382 l 1
 1206 1280 l 1
 691 649 l 0
 240 -32 l 1
 69 85 l 1
EndSplineSet
Validated: 1
EndChar

StartChar: onehalf
Encoding: 189 189 202
Width: 1060
VWidth: 0
Flags: W
HStem: -20 21G<198.769 241.216> 6 114<752 1002> 589 112<806.93 959.484> 1039 21G<311.053 357> 1356 20G<542 643.333>
VStem: 655 136<466 571.857> 962 133<427.844 583.145>
LayerCount: 2
Fore
SplineSet
545 1376 m 1
 663 1352 l 1
 529 666 l 1
 399 666 l 1
 498 1179 l 1
 455 1134 394 1078 320 1039 c 5
 269 1153 l 1
 440 1235 539 1368 545 1376 c 1
791 466 m 1
 655 444 l 1
 653 459 653 484 656 503 c 0
 657 508 657 513 658 517 c 0
 678 619 771 701 906 701 c 0
 1027 701 1095 658 1095 556 c 0
 1095 538 1093 519 1089 498 c 0
 1069 393 995 337 944 292 c 1
 909 263 758 150 752 120 c 1
 1024 120 l 1
 1002 6 l 1
 549 6 l 1
 552 22 555 39 558 57 c 0
 561 71 563 85 569 100 c 0
 588 152 642 205 709 259 c 0
 787 320 941 408 959 499 c 0
 961 509 962 519 962 527 c 0
 962 570 937 589 892 589 c 0
 853 589 803 565 793 512 c 0
 790 499 788 484 791 466 c 1
57 97 m 1
 592 712 l 0
 1022 1394 l 1
 1194 1292 l 1
 678 661 l 0
 228 -20 l 1
 57 97 l 1
EndSplineSet
Validated: 1
EndChar

StartChar: threequarters
Encoding: 190 190 203
Width: 1060
VWidth: 0
Flags: W
HStem: 0 21G<210.769 253.245 765 908.925> 214 115<690 806 969 1016> 651 115<302.494 468.625> 999 108<371 463.721> 1270 107<377.947 527.148>
VStem: 163 136<770.981 844> 502 140<799.232 968.295> 532 141<1140.6 1266.49>
LayerCount: 2
Fore
SplineSet
829 329 m 1xfc
 863 506 l 1
 809 436 744 375 690 328 c 1
 829 329 l 1xfc
530 304 m 1
 553 329 837 567 908 712 c 1
 1044 713 l 1
 969 329 l 1
 1038 329 l 1
 1016 214 l 1
 947 214 l 1
 905 0 l 1
 765 0 l 1
 806 213 l 1
 561 211 l 1
 530 304 l 1
167 844 m 5
 301 844 l 5
 300 837 299 830 299 824 c 0
 299 777 338 766 376 766 c 4
 440 766 489 817 499 868 c 4
 501 880 502 891 502 900 c 0xfe
 502 937 485 954 465 969 c 4
 438 990 393 999 350 999 c 5
 371 1107 l 5
 379 1107 l 6
 448 1107 517 1139 531 1209 c 4
 532 1213 532 1217 532 1221 c 0
 532 1251 508 1270 464 1270 c 4
 406 1270 365 1211 351 1192 c 5
 255 1266 l 5
 260 1274 331 1377 481 1377 c 6
 487 1377 l 6
 599 1377 673 1347 673 1257 c 0xfd
 673 1245 672 1232 669 1218 c 4
 656 1149 586 1072 531 1062 c 5
 607 1036 642 984 642 915 c 0xfe
 642 900 640 884 637 868 c 4
 622 793 596 754 545 711 c 4
 499 672 435 651 350 651 c 4
 220 651 163 713 163 800 c 0
 163 814 164 829 167 844 c 5
69 85 m 1
 604 700 l 0
 1034 1382 l 1
 1206 1280 l 1
 691 649 l 0
 240 -32 l 1
 69 85 l 1
EndSplineSet
Validated: 1
EndChar

StartChar: Thorn
Encoding: 222 222 204
Width: 1060
VWidth: 0
Flags: W
HStem: -10 21G<102 367.5> 439 208<480 780.707> 988 211<589 836.891> 1308 20G<562 610.124>
VStem: 878 271<738.385 949.972>
LayerCount: 2
Fore
SplineSet
875 829 m 0
 877 840 878 850 878 860 c 0
 878 956 781 988 707 988 c 0
 698 988 l 1
 637 988 592 984 547 983 c 1
 533 912 l 2
 497 725 480 649 480 649 c 1
 516 648 551 647 584 647 c 0
 700 647 844 669 875 829 c 0
352 -10 m 1
 102 -9 l 1
 361 1320 l 1
 467 1320 510 1327 614 1328 c 1
 589 1199 l 1
 601 1199 613 1199 626 1199 c 0
 851 1199 1019 1186 1107 1045 c 0
 1135 1000 1149 966 1149 919 c 0
 1149 897 1146 873 1140 844 c 0
 1100 637 937 439 593 439 c 0
 545 439 494 440 440 442 c 1
 388 174 383 149 352 -10 c 1
EndSplineSet
Validated: 1
EndChar

StartChar: eth
Encoding: 240 240 205
Width: 1060
VWidth: 6
Flags: W
HStem: 1 210<430.598 665.338>
VStem: 137 254<249.134 613.141> 834 254<417.793 782.674>
LayerCount: 2
Fore
SplineSet
761 825 m 1
 515 825 431 651 402 504 c 0
 395 467 391 429 391 394 c 0
 391 294 425 211 525 211 c 0
 695 211 783 333 823 540 c 0
 830 576 834 608 834 636 c 0
 834 705 811 757 761 825 c 1
557 1258 m 1
 542 1292 496 1323 495 1331 c 1
 736 1444 l 1
 758 1404 791 1363 812 1328 c 1
 1126 1422 l 1
 1145 1220 l 1
 888 1181 l 1
 1000 1005 1088 863 1088 672 c 0
 1088 630 1084 586 1075 539 c 0
 1009 201 806 1 484 1 c 2
 482 1 l 1
 254 2 137 158 137 374 c 0
 137 416 141 459 150 504 c 0
 187 695 322 994 695 1018 c 1
 689 1029 667 1071 644 1101 c 1
 546 1072 477 1041 391 1012 c 1
 371 1214 l 1
 371 1214 492 1236 557 1258 c 1
EndSplineSet
Validated: 1
EndChar

StartChar: thorn
Encoding: 254 254 206
Width: 1060
VWidth: -2
Flags: W
HStem: -8 201<458.967 675.666> 811 200<575.127 793.401>
VStem: 37 249<-398 -118.344> 332 237<1002.56 1285> 812 260<442.384 798.521>
LayerCount: 2
Fore
SplineSet
248 739 m 1
 309 1054 l 2
 325 1137 329 1220 332 1285 c 1
 565 1311 l 1
 567 1297 569 1279 569 1259 c 0
 569 1244 568 1228 565 1211 c 0
 509 921 l 1
 577 983 667 1011 779 1011 c 0
 993 1011 1072 895 1072 717 c 0
 1072 666 1066 610 1054 551 c 0
 989 215 872 -8 510 -8 c 0
 410 -8 371 29 348 60 c 1
 344 20 344 -17 338 -61 c 1
 320 -152 l 2
 302 -246 292 -330 286 -398 c 1
 37 -405 l 1
 42 -332 56 -237 74 -146 c 2
 248 739 l 1
794 531 m 0
 806 593 812 643 812 684 c 0
 812 771 784 811 724 811 c 0
 595 811 538 744 476 656 c 1
 410 311 l 1
 437 253 480 193 555 193 c 0
 670 193 742 264 794 531 c 0
EndSplineSet
Validated: 1
EndChar

StartChar: Aogonek
Encoding: 260 260 209
Width: 1060
VWidth: 32
Flags: W
HStem: -501 196<608.644 844.515> 0 21G<6 271.5> 281 223<484.995 748> 1305 20G<665.601 902.276>
VStem: 352 256<-381 -174.69> 761 273<82.375 281>
LayerCount: 2
Fore
SplineSet
1028 0 m 1
 769 -100 629 -143 609 -248 c 0
 608 -251 608 -253 608 -256 c 0
 608 -293 658 -305 718 -305 c 0
 776 -305 822 -276 856 -254 c 1
 952 -395 l 1
 899 -443 770 -501 670 -501 c 0
 505 -501 352 -455 352 -307 c 0
 352 -292 354 -275 357 -257 c 0
 396 -58 642 -12 760 82 c 1
 761 90 761 98 761 106 c 0
 761 127 759 147 757 167 c 2
 748 281 l 1
 595 278 511 282 385 252 c 1
 337 162 l 2
 305 101 277 43 266 0 c 1
 6 0 l 1
 22 61 61 143 103 223 c 2
 676 1325 l 1
 900 1325 l 1
 1023 244 l 2
 1028 194 1034 144 1034 93 c 0
 1034 62 1032 32 1026 2 c 1
 1028 0 l 1
749 504 m 1
 749 506 749 509 749 511 c 0
 749 625 711 773 711 905 c 0
 711 937 713 968 719 998 c 1
 680 830 547 625 482 486 c 1
 545 499 665 499 749 504 c 1
EndSplineSet
Validated: 1
EndChar

StartChar: aogonek
Encoding: 261 261 210
Width: 1060
VWidth: 32
Flags: W
HStem: -502 196<538.917 770.812> -11 200<371.489 599.03> 470 200<434.401 689.996> 820 208<475.93 731.788>
VStem: 100 258<203.885 397.341> 279 256<-382 -190.754> 769 252<623 784.924>
LayerCount: 2
Fore
SplineSet
361 317 m 0xfa
 359 305 358 294 358 284 c 0
 358 212 413 189 469 189 c 0
 579 189 680 291 709 347 c 1
 719 394 l 1
 691 436 629 470 565 470 c 0
 499 470 382 427 361 317 c 0xfa
741 101 m 1
 650 23 561 -11 379 -11 c 0
 226 -11 100 94 100 246 c 0xfa
 100 264 101 283 105 302 c 0
 122 392 169 479 240 540 c 0
 354 637 462 670 604 670 c 0
 668 670 730 649 763 623 c 1
 767 643 769 661 769 678 c 0
 769 796 678 820 625 820 c 0
 510 820 440 760 371 683 c 1
 196 793 l 1
 327 975 495 1025 674 1028 c 1
 873 1028 1021 923 1021 734 c 0
 1021 709 1018 683 1013 655 c 2
 947 316 l 2
 942 288 939 264 939 242 c 0
 939 193 954 158 987 127 c 1
 747 -162 556 -147 536 -249 c 0
 535 -252 535 -254 535 -257 c 0
 535 -294 585 -306 645 -306 c 0
 703 -306 748 -277 782 -255 c 1
 879 -396 l 1
 826 -444 696 -502 596 -502 c 0
 431 -502 279 -456 279 -308 c 0xf6
 279 -292 280 -276 284 -258 c 0
 319 -78 711 -51 741 101 c 1
EndSplineSet
Validated: 1
EndChar

StartChar: dcaron
Encoding: 271 271 211
Width: 1060
VWidth: 32
Flags: W
HStem: -7 180<379.824 548.881> 813 200<494.676 678.807>
VStem: 115 244<190.833 564.302> 633 210<7 92.4667> 881 230<1237.92 1403>
LayerCount: 2
Fore
SplineSet
377 478 m 4
 365 417 359 365 359 321 c 0
 359 227 388 173 457 173 c 4
 514 173 594 247 662 349 c 5
 727 683 l 5
 707 738 664 813 596 813 c 4
 510 813 428 741 377 478 c 4
134 459 m 4
 208 840 356 1013 603 1013 c 4
 710 1013 767 958 797 930 c 5
 797 939 797 948 797 957 c 0
 797 1021 803 1073 818 1152 c 4
 836 1243 859 1339 881 1412 c 5
 1111 1403 l 5
 1091 1335 1068 1251 1050 1157 c 4
 996 877 923 516 875 267 c 4
 873 259 872 251 870 243 c 4
 854 160 847 73 843 7 c 5
 655 -13 l 5
 655 -13 633 37 633 77 c 0
 633 83 633 88 634 93 c 5
 588 40 505 -7 389 -7 c 4
 204 -7 115 92 115 284 c 0
 115 336 121 394 134 459 c 4
1368 1364 m 1
 1316 1249 1274 1138 1209 984 c 1
 1068 1018 l 1
 1110 1163 1159 1307 1195 1412 c 1
 1368 1364 l 1
EndSplineSet
Validated: 1
EndChar

StartChar: Dcroat
Encoding: 272 272 212
Width: 1060
VWidth: 0
Flags: W
HStem: -10 205<362 626.539> 732 210<189 218 511 726> 1127 204<539.25 746.305>
VStem: 837 264<478.963 1030.94>
LayerCount: 2
Fore
SplineSet
622 1127 m 2
 592 1127 l 2
 576 1127 564 1127 546 1124 c 1
 542 1098 537 1068 531 1037 c 0
 523 996 517 973 511 942 c 1
 765 942 l 1
 726 733 l 1
 470 732 l 1
 422 488 379 280 362 198 c 1
 449 195 401 195 461 195 c 0
 464 195 l 0
 504 195 648 197 744 353 c 0
 772 398 797 489 808 544 c 0
 828 645 837 734 837 810 c 0
 837 1018 764 1127 622 1127 c 2
259 942 m 1
 266 977 l 2
 291 1106 311 1229 319 1317 c 1
 402 1325 448 1331 547 1331 c 0
 818 1331 958 1249 1045 1066 c 1
 1082 986 1101 885 1101 776 c 0
 1101 713 1095 646 1082 580 c 0
 1069 511 1047 442 1021 376 c 0
 926 135 741 14 558 -3 c 0
 502 -8 451 -10 396 -10 c 0
 312 -10 180 -3 66 -3 c 1
 73 31 73 30 95 128 c 1
 104 174 163 454 218 732 c 1
 148 732 l 1
 189 942 l 1
 259 942 l 1
EndSplineSet
Validated: 1
EndChar

StartChar: dcroat
Encoding: 273 273 213
Width: 1060
VWidth: -2
Flags: W
HStem: -7 180<448.737 626.89> 813 200<566.558 759.294> 1093 194<649 891 1179 1182>
VStem: 164 259<195.099 564.302>
LayerCount: 2
Fore
SplineSet
441 478 m 0
 430 420 423 369 423 326 c 0
 423 229 455 173 530 173 c 0
 591 173 675 247 746 349 c 1
 811 683 l 1
 789 738 742 813 670 813 c 0
 578 813 492 741 441 478 c 0
182 459 m 0
 256 840 412 1013 675 1013 c 0
 789 1013 851 958 883 930 c 1
 883 944 882 957 882 970 c 0
 882 1011 885 1049 891 1093 c 1
 611 1093 l 1
 649 1287 l 1
 932 1287 l 1
 943 1332 954 1375 966 1412 c 1
 1213 1403 l 1
 1202 1368 1190 1329 1179 1287 c 1
 1220 1287 l 1
 1182 1093 l 1
 1137 1093 l 1
 1085 824 1021 497 976 267 c 0
 974 259 973 251 971 243 c 0
 955 160 947 73 944 7 c 1
 744 -13 l 1
 744 -13 719 37 719 78 c 0
 719 83 719 88 720 93 c 1
 672 40 584 -7 460 -7 c 0
 260 -7 164 94 164 291 c 0
 164 341 170 397 182 459 c 0
EndSplineSet
Validated: 1
EndChar

StartChar: Eogonek
Encoding: 280 280 218
Width: 1060
VWidth: 32
Flags: W
HStem: -501 195<517.644 753.027> 0 204<398 562> 646 203<525 824> 1118 205<577 1106>
VStem: 261 256<-381 -180.858>
LayerCount: 2
Fore
SplineSet
358 1319 m 1
 415 1323 485 1323 563 1323 c 0
 594 1323 627 1323 661 1323 c 2
 771 1323 l 2
 920 1323 1056 1320 1130 1320 c 2
 1146 1320 l 1
 1106 1118 l 1
 577 1118 l 1
 525 849 l 1
 863 849 l 1
 824 646 l 1
 486 646 l 1
 480 615 l 2
 440 408 413 283 398 204 c 1
 814 206 l 2
 870 206 944 233 944 233 c 1
 978 34 l 1
 670 -126 538 -147 518 -249 c 0
 517 -252 517 -254 517 -257 c 0
 517 -294 567 -306 627 -306 c 0
 685 -306 730 -277 764 -255 c 1
 861 -396 l 1
 808 -444 679 -501 579 -501 c 0
 414 -501 261 -455 261 -307 c 0
 261 -292 263 -275 266 -257 c 0
 291 -132 390 -89 562 0 c 1
 102 0 l 1
 358 1319 l 1
EndSplineSet
Validated: 1
EndChar

StartChar: eogonek
Encoding: 281 281 219
Width: 1060
VWidth: 32
Flags: W
HStem: -502 196<476.917 708.812> 434 196<483.871 801.981> 818 203<557.305 772.997>
VStem: 161 251<236.674 401.747> 217 256<-382 -184.974> 802 250<630.362 790.713>
LayerCount: 2
Fore
SplineSet
454 606 m 1xe4
 571 626 665 630 798 630 c 1
 801 647 802 663 802 678 c 0
 802 775 747 818 670 818 c 0
 568 818 483 722 454 606 c 1xe4
707 1021 m 0
 955 1021 1052 894 1052 680 c 0
 1052 619 1044 551 1030 477 c 0
 1026 457 1020 434 1020 434 c 1
 734 430 519 416 413 396 c 1
 413 390 412 383 412 377 c 0xf4
 412 275 459 196 546 196 c 0
 652 196 689 205 767 294 c 1
 942 166 l 1
 754 -61 495 -142 474 -249 c 0
 473 -252 473 -254 473 -257 c 0
 473 -294 523 -306 583 -306 c 0
 641 -306 686 -277 720 -255 c 1
 817 -396 l 1
 764 -444 634 -502 534 -502 c 0
 369 -502 217 -456 217 -308 c 0xec
 217 -292 218 -276 222 -258 c 0
 244 -147 365 -95 495 -10 c 1
 266 -8 161 132 161 350 c 0xf4
 161 401 167 457 178 516 c 0
 234 802 424 1021 707 1021 c 0
EndSplineSet
Validated: 1
EndChar

StartChar: Hbar
Encoding: 294 294 232
Width: 1060
VWidth: 0
Flags: W
HStem: 0 21G<60 336 675 933.895> 599 215<473.475 791> 991 207<233 253 550 868 1163 1203> 1302 20G<317 570.129>
LayerCount: 2
Fore
SplineSet
293 1198 m 1
 317 1320 l 1
 574 1322 l 1
 550 1198 l 1
 907 1198 l 1
 914 1234 921 1271 930 1317 c 1
 1186 1317 l 1
 1163 1198 l 1
 1243 1198 l 1
 1203 991 l 1
 1123 991 l 1
 930 0 l 1
 675 0 l 1
 791 599 l 1
 759 599 l 2
 613 599 550 596 427 570 c 1
 359 220 354 185 318 0 c 1
 60 0 l 1
 253 991 l 1
 193 991 l 1
 233 1198 l 1
 293 1198 l 1
868 991 m 1
 509 991 l 1
 469 785 l 1
 565 806 626 814 746 814 c 2
 833 814 l 1
 847 886 859 943 868 991 c 1
EndSplineSet
Validated: 1
EndChar

StartChar: hbar
Encoding: 295 295 233
Width: 1060
VWidth: -2
Flags: W
HStem: -11 11G<140 389.9 761 854.148> 812 200<608.755 823.18> 1114 207<257 358 639 931>
VStem: 390 249<1321 1402> 749 248<17.0521 338.023> 844 255<425.82 791.26>
LayerCount: 2
Fore
SplineSet
1082 566 m 2xf4
 1014 218 l 2
 1004 166 997 116 997 77 c 0
 997 55 999 36 1004 22 c 1
 766 -32 l 1
 756 -14 749 16 749 59 c 0xf8
 749 91 753 129 762 176 c 2
 823 491 l 2
 838 566 844 623 844 667 c 0
 844 805 782 812 712 812 c 0
 640 812 563 737 519 682 c 1
 386 0 l 1
 140 0 l 1
 358 1114 l 1
 217 1114 l 1
 257 1321 l 1
 390 1321 l 1
 393 1350 397 1377 399 1402 c 1
 648 1411 l 1
 646 1384 643 1353 639 1321 c 1
 971 1321 l 1
 931 1114 l 1
 604 1114 l 1
 589 1045 573 995 545 929 c 1
 587 957 671 1012 785 1012 c 0
 989 1012 1099 930 1099 725 c 0
 1099 678 1094 626 1082 566 c 2xf4
EndSplineSet
Validated: 1
EndChar

StartChar: Iogonek
Encoding: 302 302 240
Width: 1060
VWidth: 32
Flags: W
HStem: -500 196<439.644 675.515> 4 214<175 408 716.421 849> 1112 212<389 584 840 1069>
VStem: 183 256<-380 -167.005>
LayerCount: 2
Fore
SplineSet
389 1324 m 1
 546 1328 647 1329 743 1329 c 0
 848 1329 948 1328 1111 1326 c 1
 1069 1115 l 1
 946 1115 935 1120 840 1120 c 1
 665 219 l 1
 711 219 696 220 747 220 c 0
 792 220 839 219 890 216 c 1
 849 -1 l 1
 589 -66 460 -145 440 -247 c 0
 439 -250 439 -252 439 -255 c 0
 439 -292 489 -304 549 -304 c 0
 607 -304 653 -275 687 -253 c 1
 783 -394 l 1
 730 -442 601 -500 501 -500 c 0
 336 -500 183 -454 183 -306 c 0
 183 -291 185 -274 188 -256 c 0
 211 -137 301 -77 465 4 c 1
 390 3 275 -3 133 -3 c 1
 175 213 l 1
 261 217 299 218 356 218 c 2
 408 218 l 1
 584 1119 l 1
 518 1118 461 1118 354 1112 c 1
 389 1324 l 1
EndSplineSet
Validated: 1
EndChar

StartChar: iogonek
Encoding: 303 303 241
Width: 1060
VWidth: 32
Flags: W
HStem: -501 195<578.77 813.661> 813 200<284.635 512> 1181 225<602 850>
VStem: 322 256<-297.583 -175.314> 387 272<119.5 398.462>
LayerCount: 2
Fore
SplineSet
602 1406 m 1xe0
 893 1406 l 1
 850 1181 l 1
 559 1181 l 1
 602 1406 l 1xe0
551 1013 m 2
 806 1013 l 1
 753 740 663 274 663 274 c 2
 661 261 659 249 659 239 c 0xe8
 659 200 681 182 754 182 c 0
 847 182 914 215 985 273 c 1
 1045 83 l 1
 1043 81 1040 79 1037 77 c 0
 740 -127 602 -130 579 -248 c 0
 579 -250 578 -253 578 -255 c 0
 578 -289 628 -306 688 -306 c 0
 746 -306 792 -276 826 -254 c 1
 922 -396 l 1
 869 -444 740 -501 640 -501 c 0
 475 -501 322 -455 322 -307 c 0xf0
 322 -292 324 -275 327 -257 c 0
 349 -145 444 -96 587 -14 c 1
 529 -8 479 3 451 20 c 0
 400 51 387 97 387 142 c 0xe8
 387 164 390 186 394 206 c 2
 512 813 l 1
 463 813 372 807 273 785 c 1
 280 971 l 1
 379 999 471 1013 551 1013 c 2
EndSplineSet
Validated: 1
EndChar

StartChar: IJ
Encoding: 306 306 243
Width: 1060
VWidth: 0
Flags: W
HStem: 0 212<52 135 392 406.204 637.871 817.755> 1108 216<267 306.05 574.765 624.944 788.081 961.241 1197 1269> 1119 210<267 311 564.404 623>
VStem: 484 238<215.402 432.253> 962 235<639.033 1103.1>
LayerCount: 2
Fore
SplineSet
731 0 m 0xd8
 548 0 484 130 484 292 c 0
 484 338 489 386 498 435 c 1
 733 434 l 1
 726 387 722 348 722 316 c 0
 722 245 739 212 766 212 c 0
 827 212 855 303 920 639 c 0
 934 714 962 906 962 1027 c 0
 962 1058 961 1085 956 1104 c 1
 907 1104 912 1108 884 1108 c 1
 805 1105 794 1096 773 1090 c 1
 787 1302 l 1
 810 1309 836 1321 925 1324 c 1
 1034 1324 1196 1323 1313 1323 c 1
 1269 1106 l 1
 1233 1106 1247 1107 1197 1107 c 1
 1197 988 1185 750 1163 639 c 0
 1089 260 1001 0 731 0 c 0xd8
267 1324 m 1
 354 1328 409 1329 462 1329 c 0
 520 1329 574 1328 664 1326 c 1
 623 1115 l 1
 567 1120 l 1
 392 220 l 1
 446 216 l 1
 404 -1 l 1
 358 4 325 5 290 5 c 0
 264 5 237 4 205 4 c 0
 164 4 95 -3 10 -3 c 1
 52 213 l 1
 91 216 112 218 135 218 c 1
 311 1119 l 1xb8
 229 1112 l 1
 267 1324 l 1
EndSplineSet
Validated: 1
EndChar

StartChar: ij
Encoding: 307 307 244
Width: 1060
VWidth: 0
Flags: W
HStem: -390 202<375.428 678.594> -18 200<420 621.669> 794 186<196 325.609 722 892.304> 813 200<200.562 326 726.592 894> 1181 225<417 666 967 1214>
VStem: 201 268<120.5 398.352>
LayerCount: 2
Fore
SplineSet
365 1013 m 2xdc
 621 1013 l 1
 477 274 l 1
 473 251 469 232 469 218 c 0
 469 193 480 182 518 182 c 0
 578 182 590 184 639 242 c 1
 698 83 l 1
 629 12 526 -18 447 -18 c 0
 393 -18 305 -4 266 20 c 0
 215 52 201 98 201 143 c 0
 201 165 204 187 208 206 c 2
 326 813 l 1
 316 813 308 813 301 813 c 0xdc
 277 813 268 811 190 794 c 1
 196 980 l 1xec
 295 1008 285 1013 365 1013 c 2xdc
975 -78 m 1
 945 -231 832 -389 546 -389 c 3
 520 -389 494 -390 468 -390 c 0
 373 -390 273 -376 101 -244 c 1
 284 -70 l 1
 389 -186 493 -188 557 -188 c 0
 563 -188 l 0
 569 -188 576 -188 581 -188 c 3
 701 -188 718 -83 727 -48 c 1
 894 813 l 1
 884 813 874 813 864 813 c 0xdc
 829 813 794 811 716 794 c 1
 722 980 l 1xec
 821 1008 853 1013 933 1013 c 2
 1187 1013 l 1
 975 -78 l 1
967 1406 m 1
 1257 1406 l 1
 1214 1181 l 1
 924 1181 l 1
 967 1406 l 1
417 1406 m 1
 709 1406 l 1
 666 1181 l 1
 374 1181 l 1
 417 1406 l 1
EndSplineSet
Validated: 1
EndChar

StartChar: Lcaron
Encoding: 317 317 254
Width: 1060
VWidth: 32
Flags: W
HStem: -3 210<451 994.823> 1305 20<411.099 669>
LayerCount: 2
Fore
SplineSet
972 1274 m 1
 942 1159 922 1048 887 894 c 1
 701 916 l 1
 715 1061 736 1206 752 1311 c 1
 972 1274 l 1
EndSplineSet
Refer: 35 76 N 1 0 0 1 0 0 2
Validated: 1
EndChar

StartChar: lcaron
Encoding: 318 318 255
Width: 1060
VWidth: 32
Flags: W
HStem: -18 215<564.04 893.08>
VStem: 261 265<236.501 560.039>
LayerCount: 2
Fore
SplineSet
1019 1393 m 1
 989 1278 969 1167 934 1013 c 1
 748 1035 l 1
 762 1180 783 1325 799 1430 c 1
 1019 1393 l 1
EndSplineSet
Refer: 12 108 N 1 0 0 1 0 0 2
Validated: 1
EndChar

StartChar: Lslash
Encoding: 321 321 258
Width: 1060
VWidth: 0
Flags: W
HStem: -3 210<561 994.823> 999 20G<909.374 957.667> 1305 20G<521.092 779>
LayerCount: 2
Fore
SplineSet
367 513 m 1
 221 443 l 1
 156 637 l 1
 415 762 l 1
 525 1325 l 1
 779 1325 l 1
 695 896 l 1
 951 1019 l 1
 1016 824 l 1
 647 647 l 1
 561 207 l 1
 879 207 l 1
 939 210 950 213 997 228 c 1
 1031 31 l 1
 981 15 915 -3 840 -3 c 2
 266 -3 l 1
 367 513 l 1
EndSplineSet
Validated: 1
EndChar

StartChar: lslash
Encoding: 322 322 259
Width: 1060
VWidth: -2
Flags: W
HStem: -18 200<649.904 908.134> 1230 200<354.636 583>
VStem: 377 272<119.5 397.503>
LayerCount: 2
Fore
SplineSet
622 1430 m 2
 876 1430 l 1
 857 1334 825 1162 789 979 c 1
 1052 1105 l 1
 1117 910 l 1
 741 730 l 1
 693 484 653 274 653 274 c 2
 650 260 649 248 649 238 c 0
 649 199 670 182 743 182 c 0
 836 182 903 215 974 273 c 1
 1034 83 l 1
 934 12 778 -18 654 -18 c 0
 569 -18 480 -4 441 20 c 0
 390 51 377 97 377 142 c 0
 377 164 380 186 384 206 c 2
 460 595 l 1
 323 529 l 1
 258 723 l 1
 508 843 l 1
 583 1230 l 1
 534 1230 442 1224 343 1202 c 1
 350 1388 l 1
 449 1416 542 1430 622 1430 c 2
EndSplineSet
Validated: 1
EndChar

StartChar: Eng
Encoding: 330 330 266
Width: 1060
VWidth: 0
Flags: W
HStem: -396 222<357 582.402> -3 21G<77.8983 328> 1087 209<644.704 859.503> 1299 20G<423.667 499>
VStem: 291 220<1147 1266.64> 880 248<784.738 1063.34>
LayerCount: 2
Fore
SplineSet
792 1296 m 1
 1031 1296 1128 1164 1128 982 c 0
 1128 943 1123 902 1115 860 c 0
 1070 629 1030 400 984 165 c 2
 977 131 l 2
 927 -125 848 -396 348 -396 c 2
 314 -396 l 1
 357 -174 l 1
 642 -174 689 -58 721 106 c 2
 866 852 l 2
 875 898 880 935 880 966 c 0
 880 1058 838 1087 749 1087 c 0
 644 1087 546 938 497 870 c 1
 328 0 l 1
 74 -3 l 1
 281 1059 l 2
 288 1097 291 1132 291 1162 c 0
 291 1221 281 1259 281 1259 c 1
 495 1319 l 1
 503 1290 511 1265 511 1222 c 0
 511 1207 510 1190 508 1171 c 1
 598 1246 676 1296 792 1296 c 1
EndSplineSet
Validated: 1
EndChar

StartChar: eng
Encoding: 331 331 267
Width: 1060
VWidth: 6
Flags: W
HStem: -407 219<377 508.487> 0 21G<100 355.847> 819 207<611.449 872> 1032 20G<403.583 506>
VStem: 267 251<927 1006.09> 782 270<594.734 911>
LayerCount: 2
Fore
SplineSet
518 927 m 1
 584 977 689 1026 799 1026 c 0
 945 1026 1052 974 1052 848 c 0
 1052 832 1051 814 1047 796 c 2
 946 278 l 1
 869 -119 749 -407 335 -407 c 1
 377 -188 l 1
 593 -188 646 34 677 191 c 2
 774 699 l 2
 779 723 782 744 782 762 c 0
 782 798 768 819 723 819 c 0
 660 819 587 781 488 707 c 1
 352 0 l 1
 100 0 l 1
 237 706 l 2
 260 824 267 876 267 924 c 0
 267 949 265 972 263 1004 c 1
 504 1052 l 1
 508 1031 518 987 518 943 c 0
 518 938 518 932 518 927 c 1
EndSplineSet
Validated: 1
EndChar

StartChar: Scedilla
Encoding: 350 350 284
Width: 1060
VWidth: 32
Flags: W
HStem: -449 172<317.374 540.324> -170 370<409.245 544.985> -2 202<620.508 702.971> 1118 210<561.444 813.489>
VStem: 98 268<237.995 420> 238 274<893.215 1073.97> 544 224<-270.692 -174.055> 795 266<286.982 530.142>
LayerCount: 2
Fore
SplineSet
367 702 m 0xbb
 287 742 238 809 238 918 c 0
 238 945 241 974 247 1006 c 0
 290 1226 473 1328 728 1328 c 0
 731 1328 734 1328 737 1328 c 0
 977 1328 1158 1246 1170 1078 c 1
 877 976 l 1
 851 1077 772 1118 702 1118 c 0
 616 1118 529 1082 516 1014 c 0
 513 1000 512 987 512 976 c 0
 512 909 556 889 602 870 c 0
 716 822 785 813 905 752 c 1
 987 708 1061 627 1061 486 c 0
 1061 458 1058 429 1052 396 c 0
 1003 142 828 28 630 -1 c 1
 626 -19 616 -68 615 -71 c 1
 700 -75 768 -120 768 -209 c 0
 768 -221 767 -233 764 -247 c 0
 739 -377 611 -449 453 -449 c 0
 387 -449 298 -431 249 -395 c 1
 338 -248 l 1
 368 -266 410 -277 461 -277 c 0
 497 -277 534 -266 544 -228 c 1
 544 -226 l 2
 545 -223 545 -219 545 -216 c 0
 545 -191 525 -170 483 -170 c 0xd7
 435 -170 402 -173 372 -183 c 1
 408 -2 l 1
 183 30 98 157 98 317 c 0
 98 351 102 386 109 422 c 1
 374 420 l 1
 369 394 366 371 366 350 c 0
 366 252 421 200 546 200 c 0
 654 200 763 236 791 382 c 0
 794 397 795 411 795 424 c 0
 795 506 742 552 680 582 c 0
 574 633 488 641 367 702 c 0xbb
EndSplineSet
Validated: 1
EndChar

StartChar: scedilla
Encoding: 351 351 285
Width: 1060
VWidth: 32
Flags: W
HStem: -460 172<279.374 502.327> 829 200<524.05 789.29>
VStem: 120 256<200.492 330> 258 254<701.61 814.437> 506 224<-281.692 -184.42> 706 256<227.481 410.738>
LayerCount: 2
Fore
SplineSet
356 549 m 0xe4
 296 582 258 641 258 722 c 0
 258 740 260 760 264 781 c 0
 300 967 502 1029 677 1029 c 0
 816 1029 967 1014 1054 893 c 1
 845 730 l 1
 802 788 737 829 641 829 c 0
 559 829 523 807 515 768 c 0
 513 759 512 752 512 745 c 0
 512 728 518 714 536 701 c 1
 749 607 962 569 962 355 c 0xd4
 962 331 959 306 954 278 c 0
 923 116 761 28 649 0 c 0
 630 -4 612 -8 592 -11 c 1
 591 -16 589 -26 587 -36 c 0
 583 -56 578 -80 578 -82 c 1
 662 -86 730 -131 730 -219 c 0
 730 -231 729 -244 726 -258 c 0
 701 -388 573 -460 415 -460 c 0
 349 -460 260 -442 211 -406 c 1
 300 -259 l 1
 330 -277 373 -288 424 -288 c 0
 460 -288 496 -277 506 -239 c 1
 506 -237 l 2xc8
 507 -233 507 -229 507 -226 c 0
 507 -201 488 -181 446 -181 c 0
 398 -181 364 -184 334 -194 c 1
 370 -12 l 1
 209 15 120 112 120 254 c 0
 120 278 123 303 128 330 c 1
 381 330 l 1
 377 312 376 296 376 281 c 0
 376 210 419 182 509 182 c 0
 568 182 685 202 702 290 c 0
 704 303 706 315 706 326 c 0
 706 364 690 389 657 415 c 1
 597 459 440 504 356 549 c 0xe4
EndSplineSet
Validated: 1
EndChar

StartChar: Tcommaaccent
Encoding: 354 354 288
Width: 1060
VWidth: 32
Flags: W
HStem: -449 172<283.374 506.324> 1118 207<296 572 832 1124.96>
VStem: 510 224<-269.703 -173.055>
LayerCount: 2
Fore
SplineSet
353 -9 m 1
 572 1118 l 1
 374 1118 332 1117 256 1117 c 1
 296 1324 l 1
 418 1324 873 1325 1061 1325 c 0
 1134 1325 1201 1316 1224 1309 c 1
 1125 1106 l 1
 1125 1106 1075 1118 1015 1118 c 2
 832 1118 l 1
 613 -9 l 1
 594 -9 l 1
 590 -30 581 -68 581 -70 c 1
 666 -74 734 -119 734 -208 c 0
 734 -220 733 -232 730 -246 c 0
 705 -376 577 -449 419 -449 c 0
 353 -449 264 -431 215 -395 c 1
 304 -247 l 1
 334 -265 376 -277 427 -277 c 0
 463 -277 500 -265 510 -227 c 1
 510 -225 l 2
 511 -221 511 -217 511 -214 c 0
 511 -190 492 -170 450 -170 c 0
 402 -170 369 -172 339 -182 c 1
 372 -9 l 1
 353 -9 l 1
EndSplineSet
Validated: 1
EndChar

StartChar: tcommaaccent
Encoding: 355 355 289
Width: 1060
VWidth: 32
Flags: W
HStem: -445 172<335.374 557.827> -4 200<636.754 763.92> 811 204<228.233 303 597 938>
VStem: 195 261<217.373 523.07>
LayerCount: 2
Fore
SplineSet
473 435 m 1
 465 395 l 2
 459 364 456 338 456 315 c 0
 456 242 488 211 550 200 c 0
 567 197 601 196 614 196 c 0
 679 196 711 209 739 223 c 0
 797 252 821 320 832 339 c 1
 1020 239 l 1
 1005 211 930 100 805 35 c 0
 758 10 705 0 646 -4 c 1
 642 -25 633 -65 633 -67 c 1
 718 -71 786 -116 786 -205 c 0
 786 -217 785 -229 782 -243 c 0
 757 -373 629 -445 471 -445 c 0
 405 -445 316 -427 267 -391 c 1
 356 -244 l 1
 386 -262 428 -273 479 -273 c 0
 515 -273 551 -262 561 -224 c 1
 562 -222 l 2
 563 -218 563 -214 563 -211 c 0
 563 -186 544 -166 502 -166 c 0
 454 -166 420 -169 390 -179 c 1
 425 2 l 1
 316 18 237 60 207 164 c 0
 199 193 195 223 195 253 c 0
 195 298 203 345 213 397 c 2
 222 440 l 1
 241 530 266 648 303 811 c 1
 289 811 l 2
 261 811 232 807 205 800 c 1
 227 1003 l 1
 253 1012 298 1015 331 1015 c 2
 346 1015 l 1
 360 1085 379 1179 393 1249 c 1
 643 1243 l 1
 630 1177 611 1088 597 1020 c 1
 706 1019 972 1016 980 1016 c 1
 938 812 l 1
 801 812 688 814 555 814 c 1
 517 647 496 535 473 435 c 1
EndSplineSet
Validated: 1
EndChar

StartChar: tcaron
Encoding: 357 357 291
Width: 1060
VWidth: 32
Flags: W
HStem: -6 202<542.117 798.614> 805 204<596 1023>
VStem: 252 254<229.428 472.672>
LayerCount: 2
Fore
SplineSet
949 1476 m 1
 919 1361 899 1249 864 1095 c 1
 678 1117 l 1
 692 1262 714 1407 730 1512 c 1
 949 1476 l 1
EndSplineSet
Refer: 19 116 N 1 0 0 1 0 0 2
Validated: 1
EndChar

StartChar: Tbar
Encoding: 358 358 292
Width: 1060
VWidth: 0
Flags: W
HStem: -9 21G<353 616.899> 504 217<268 453 755 922> 1118 207<296 572 832 1124.96>
LayerCount: 2
Fore
SplineSet
453 504 m 1
 226 504 l 1
 268 721 l 1
 495 721 l 1
 572 1118 l 1
 374 1118 332 1117 256 1117 c 1
 296 1324 l 1
 418 1324 873 1325 1061 1325 c 0
 1134 1325 1201 1316 1224 1309 c 1
 1125 1106 l 1
 1125 1106 1075 1118 1015 1118 c 2
 832 1118 l 1
 755 721 l 1
 964 721 l 1
 922 504 l 1
 713 504 l 1
 613 -9 l 1
 353 -9 l 1
 453 504 l 1
EndSplineSet
Validated: 1
EndChar

StartChar: tbar
Encoding: 359 359 293
Width: 1060
VWidth: 0
Flags: W
HStem: -6 202<559.167 847.105> 433 205<144 303 599 799> 805 204<637 1064>
VStem: 278 261<217.055 432.438>
LayerCount: 2
Fore
SplineSet
555 433 m 1
 548 396 l 2
 542 365 539 338 539 315 c 0
 539 241 571 211 633 200 c 0
 651 198 684 196 697 196 c 0
 762 196 795 210 823 224 c 0
 880 252 904 320 915 340 c 1
 1104 240 l 1
 1089 212 1012 100 888 36 c 0
 823 2 745 -6 660 -6 c 0
 476 -6 332 16 290 164 c 0
 282 193 278 222 278 253 c 0
 278 299 286 346 296 398 c 2
 303 433 l 1
 104 433 l 1
 144 638 l 1
 347 638 l 1
 358 687 370 742 384 805 c 1
 370 805 l 2
 342 805 314 801 286 793 c 1
 309 997 l 1
 335 1005 380 1009 413 1009 c 2
 428 1009 l 1
 442 1079 462 1180 476 1250 c 1
 726 1244 l 1
 713 1178 693 1081 679 1013 c 1
 788 1013 1099 1009 1107 1009 c 1
 1064 805 l 1
 927 805 770 807 637 807 c 1
 623 743 610 687 599 638 c 1
 839 638 l 1
 799 433 l 1
 555 433 l 1
EndSplineSet
Validated: 1
EndChar

StartChar: Uogonek
Encoding: 370 370 304
Width: 1060
VWidth: 32
Flags: W
HStem: -503 196<460.666 696.8> 1329 1G<309.5 586 952 1140.14>
VStem: 147 263<225.728 664.844> 205 255<-383 -170.806 478.868 938.399> 963 248<1182.47 1323.62>
LayerCount: 2
Fore
SplineSet
963 1350 m 1xe8
 1211 1322 l 1
 1194 1272 1186 1237 1178 1195 c 0
 1176 1186 1175 1176 1173 1166 c 0
 1144 1018 1122 888 1100 775 c 2
 1088 716 l 2
 1042 479 994 253 856 121 c 0
 681 -47 484 -130 461 -250 c 4
 460 -253 460 -255 460 -258 c 0
 460 -295 510 -307 570 -307 c 0
 628 -307 674 -278 708 -256 c 1
 805 -397 l 1
 752 -445 622 -503 522 -503 c 0
 357 -503 205 -457 205 -309 c 0xd8
 205 -293 206 -277 210 -259 c 0
 232 -147 303 -89 412 -6 c 1
 216 17 147 129 147 315 c 0
 147 358 150 405 157 456 c 0
 167 533 189 657 216 795 c 0
 250 970 291 1168 328 1329 c 1
 586 1329 l 1
 549 1161 501 932 464 743 c 0
 454 693 445 645 437 602 c 0
 425 538 415 485 413 448 c 0
 412 423 410 395 410 366 c 0
 410 285 426 203 529 200 c 1
 731 209 777 431 833 718 c 0
 857 844 881 993 915 1166 c 0
 929 1238 941 1287 963 1350 c 1xe8
EndSplineSet
Validated: 1
EndChar

StartChar: uogonek
Encoding: 371 371 305
Width: 1060
VWidth: 32
Flags: W
HStem: -503 196<538.666 774.8> 2 204<361.758 610.114> 1000 21G<294.286 475 844.086 1105>
VStem: 91 262<212.007 426.129> 223 252<702.308 991.764> 283 255<-383 -193.951>
LayerCount: 2
Fore
SplineSet
775 108 m 1xe4
 685 31 548 5 397 2 c 1
 388 2 l 2
 249 2 91 45 91 187 c 0xf0
 91 200 92 214 95 229 c 0
 111 311 130 408 149 504 c 0
 187 701 223 897 223 973 c 0
 223 980 223 987 222 992 c 1
 475 1020 l 1
 475 1017 475 1013 475 1010 c 0xe8
 475 910 420 652 353 298 c 1
 353 296 353 294 353 292 c 0xf0
 353 230 369 206 451 206 c 1
 604 213 705 291 730 418 c 2
 848 1021 l 1
 1105 1021 l 1
 965 306 l 1
 964 302 964 299 964 295 c 0
 964 245 1012 186 1056 166 c 1
 776 -155 559 -148 539 -250 c 0
 538 -253 538 -255 538 -258 c 0
 538 -295 588 -307 648 -307 c 0
 706 -307 752 -278 786 -256 c 1
 883 -397 l 1
 830 -445 700 -503 600 -503 c 0
 435 -503 283 -457 283 -309 c 0
 283 -293 284 -277 288 -259 c 0
 326 -61 597 -72 775 108 c 1xe4
EndSplineSet
Validated: 1
EndChar

StartChar: longs
Encoding: 383 383 317
Width: 1060
VWidth: -2
Flags: W
HStem: 0 21G<324 584.893> 807 205<328 481> 1217 201<833.602 1083.52>
LayerCount: 2
Fore
SplineSet
1082 1206 m 1
 1057 1215 999 1217 960 1217 c 0
 828 1217 803 1143 791 1083 c 0
 786 1056 778 1012 778 1012 c 1
 581 0 l 1
 324 0 l 1
 481 807 l 1
 288 807 l 1
 328 1012 l 1
 521 1012 l 1
 524 1028 527 1045 531 1064 c 0
 556 1194 666 1418 982 1418 c 0
 1043 1418 1121 1414 1167 1404 c 1
 1082 1206 l 1
EndSplineSet
Validated: 1
EndChar

StartChar: Euro
Encoding: 8364 8364 318
Width: 1060
VWidth: 0
Flags: W
HStem: -31 213<531.13 754.947> 394 190<170.122 251 550 711> 676 188<229.749 292 613 865> 1125 218<716.897 929.511>
VStem: 250 263<196.198 394>
LayerCount: 2
Fore
SplineSet
962 866 m 1
 865 682 l 1
 853 682 l 0
 796 680 763 676 687 676 c 0
 630 676 669 676 569 676 c 1
 565 653 558 631 554 609 c 0
 552 601 552 593 550 584 c 1
 580 583 583 583 621 583 c 0
 707 583 698 584 787 585 c 0
 813 585 l 1
 711 392 l 1
 519 394 l 1
 515 366 513 342 513 321 c 0
 513 219 553 182 601 182 c 1
 619 182 l 2
 685 182 770 209 839 315 c 1
 1009 156 l 1
 859 0 762 -31 575 -31 c 0
 496 -31 376 -3 313 107 c 0
 269 183 250 255 250 356 c 0
 250 368 250 381 251 394 c 1
 224 395 200 396 176 396 c 0
 147 396 119 395 86 394 c 1
 108 448 140 522 177 583 c 1
 217 583 256 584 274 584 c 1
 277 601 280 617 283 632 c 0
 286 647 288 662 292 676 c 1
 212 677 180 677 133 681 c 1
 167 737 210 826 238 870 c 1
 265 867 293 867 348 866 c 1
 389 978 418 1032 467 1108 c 0
 584 1287 760 1343 859 1343 c 0
 967 1343 1075 1312 1147 1209 c 1
 1003 950 l 1
 969 1053 917 1125 820 1125 c 0
 727 1125 656 1040 613 864 c 1
 656 864 681 864 722 864 c 0
 804 864 765 864 799 864 c 1
 851 866 887 868 929 868 c 0
 962 866 l 1
EndSplineSet
Validated: 1
EndChar

StartChar: uniE000
Encoding: 57344 57344 319
Width: 1060
VWidth: 6
Flags: W
HStem: 390 154<532.77 688.114> 486 158<295.487 455.189>
VStem: 159 649
LayerCount: 2
Fore
SplineSet
171 491 m 2x60
 252 603 323 644 387 644 c 0x60
 491 644 567 544 625 544 c 0
 648 544 675 560 710 624 c 0
 724 650 l 1
 808 546 l 1
 798 532 l 0
 723 430 656 390 595 390 c 0xa0
 491 390 421 486 363 486 c 0
 336 486 312 475 274 409 c 0
 261 387 l 1
 159 475 l 1
 171 491 l 2x60
EndSplineSet
Validated: 1
EndChar

StartChar: uniE001
Encoding: 57345 57345 320
Width: 1060
VWidth: 6
Flags: W
HStem: -312 150<326.205 532.989> -26 21G<711 750.5> -11 152<354.499 523.328> 513 151<493.606 641.495> 894 150<560.211 698.241> 1191 152<568.675 792.512>
VStem: 94 124<-23.537 581.797> 267 133<141.58 403.207> 705 120<643.324 889.795> 902 115<444.238 1047.95>
LayerCount: 2
Fore
SplineSet
404 -11 m 1xbfc0
 305 -6 267 87 267 196 c 0
 267 230 270 265 277 299 c 0
 277 300 278 302 278 303 c 1
 293 380 326 461 373 524 c 1
 451 628 531 661 601 664 c 0
 604 664 606 664 609 664 c 0
 645 664 672 652 689 641 c 1
 698 705 705 757 705 797 c 0
 705 861 688 894 636 894 c 0
 577 894 563 860 481 727 c 0
 470 709 l 1
 378 770 l 1
 387 787 l 0
 476 963 566 1041 665 1044 c 1
 706 1044 760 1025 790 967 c 1
 810 928 825 870 825 795 c 0
 825 756 821 712 811 663 c 0
 727 229 l 1
 723 201 721 184 721 172 c 0
 721 152 726 148 735 133 c 1
 736 131 738 128 741 126 c 1
 752 132 762 149 772 169 c 0
 823 267 849 386 874 515 c 0
 893 612 902 702 902 784 c 0
 902 1028 822 1191 688 1191 c 0
 510 1191 321 901 246 515 c 0
 227 418 218 328 218 246 c 0
 218 1 298 -162 425 -162 c 0
 485 -162 549 -129 610 -72 c 0
 625 -57 l 1
 683 -153 l 1
 670 -166 l 0
 593 -239 481 -312 395 -312 c 0
 204 -312 94 -85 94 225 c 0
 94 316 103 414 123 515 c 0
 210 962 470 1343 717 1343 c 0
 908 1343 1017 1116 1017 807 c 0
 1017 716 1008 617 988 515 c 0
 959 364 909 222 849 98 c 1
 835 71 784 -26 717 -26 c 0
 716 -26 715 -26 714 -26 c 0
 712 -26 l 1xdfc0
 711 -25 l 0
 693 -20 666 -9 651 16 c 0
 650 16 l 0
 641 34 620 59 617 110 c 1
 588 80 565 65 531 38 c 1
 494 11 449 -11 404 -11 c 1xbfc0
432 141 m 0xbfc0
 458 141 489 155 509 170 c 1
 585 229 612 299 630 334 c 1
 636 367 648 433 652 452 c 1
 629 495 603 513 572 513 c 0
 571 513 570 513 569 513 c 0
 514 511 428 415 408 310 c 0
 408 308 407 307 407 305 c 1
 402 277 400 252 400 231 c 0
 400 173 415 141 432 141 c 0xbfc0
EndSplineSet
Validated: 1
EndChar

StartChar: uniE002
Encoding: 57346 57346 321
Width: 1060
VWidth: 6
Flags: W
HStem: -310 150<393.811 599.099> -9 153<470 642.322> 702 152<627.643 777.205> 1198 153<634.581 833.957>
VStem: 162 124<-20.9354 584.854> 378 131<147.481 375> 862 118<823.808 1172.55>
LayerCount: 2
Fore
SplineSet
937 703 m 0
 937 703 931 678 929 666 c 0
 845 231 l 1
 842 213 841 198 841 184 c 0
 841 143 853 119 873 98 c 0
 887 83 l 1
 777 4 l 1
 769 20 l 1
 760 39 739 63 736 113 c 1
 707 83 684 68 650 41 c 1
 613 14 568 -9 522 -9 c 1
 418 -4 378 138 378 269 c 0
 378 307 382 345 388 378 c 0
 388 379 389 380 389 381 c 1
 391 393 394 407 397 422 c 0
 411 496 435 600 506 711 c 0
 578 823 668 851 737 854 c 0
 739 854 741 854 743 854 c 0
 786 854 821 835 840 821 c 1
 844 854 849 882 851 903 c 0
 856 946 862 993 862 1037 c 0
 862 1124 839 1198 742 1198 c 0
 585 1198 389 905 314 518 c 0
 295 421 286 330 286 248 c 0
 286 4 365 -160 492 -160 c 0
 552 -160 617 -126 678 -69 c 0
 693 -54 l 1
 750 -150 l 1
 737 -163 l 0
 660 -236 549 -310 463 -310 c 0
 272 -310 162 -82 162 228 c 0
 162 319 171 417 191 518 c 0
 278 964 525 1351 772 1351 c 0
 932 1351 980 1221 980 1054 c 0
 980 945 960 819 937 703 c 0
552 144 m 0
 578 144 608 158 628 173 c 1
 704 232 730 301 748 336 c 1
 804 621 l 1
 781 665 732 702 703 702 c 0
 603 702 541 498 517 375 c 0
 516 370 515 365 514 360 c 1
 511 340 509 320 509 301 c 0
 509 218 535 144 552 144 c 0
EndSplineSet
Validated: 1
EndChar

StartChar: gravecomb
Encoding: 768 768 322
Width: 1060
VWidth: -43
Flags: W
HStem: 1267 442
VStem: 492 547
LayerCount: 2
Fore
SplineSet
1039 1441 m 5
 915 1267 l 5
 781 1314 581 1425 492 1537 c 5
 659 1709 l 5
 753 1601 905 1489 1039 1441 c 5
EndSplineSet
Validated: 1
EndChar

StartChar: acutecomb
Encoding: 769 769 323
Width: 1060
VWidth: -43
Flags: W
HStem: 1267 442
VStem: 479 585
LayerCount: 2
Fore
SplineSet
479 1441 m 1
 631 1489 827 1601 963 1709 c 1
 1064 1537 l 1
 931 1425 687 1314 535 1267 c 1
 479 1441 l 1
EndSplineSet
Validated: 1
EndChar

StartChar: uni0302
Encoding: 770 770 324
Width: 1060
VWidth: -10
Flags: W
HStem: 1252 447
LayerCount: 2
Fore
SplineSet
849 1699 m 5
 1171 1408 l 5
 1002 1252 l 5
 801 1453 l 5
 543 1264 l 5
 426 1402 l 5
 849 1699 l 5
EndSplineSet
Validated: 1
EndChar

StartChar: tildecomb
Encoding: 771 771 325
Width: 1060
VWidth: -12
Flags: W
HStem: 1376 178<886.761 1044.95> 1506 180<580.682 746.52>
LayerCount: 2
Fore
SplineSet
667 1686 m 0x40
 883 1686 876 1554 966 1554 c 0
 1016 1554 1053 1585 1072 1654 c 1
 1238 1600 l 1
 1198 1504 1115 1376 953 1376 c 0x80
 755 1376 760 1506 659 1506 c 0
 617 1506 572 1469 551 1406 c 1
 382 1484 l 1
 433 1577 526 1686 667 1686 c 0x40
EndSplineSet
Validated: 1
EndChar

StartChar: uni0304
Encoding: 772 772 326
Width: 1060
VWidth: -34
Flags: W
HStem: 1463 194<560 1022>
VStem: 522 538
LayerCount: 2
Fore
SplineSet
1060 1657 m 1
 1022 1463 l 5
 1005 1463 l 4
 947 1461 848 1456 774 1456 c 4
 700 1456 608 1457 540 1459 c 4
 522 1460 l 5
 560 1657 l 1
 579 1655 l 0
 644 1653 758 1652 850 1652 c 0
 911 1652 998 1657 1043 1657 c 0
 1060 1657 l 1
EndSplineSet
Validated: 1
EndChar

StartChar: uni0305
Encoding: 773 773 327
Width: 1060
VWidth: -34
Flags: W
HStem: 1458 203<410 1162>
LayerCount: 2
Fore
SplineSet
1201 1658 m 1
 1162 1457 l 5
 370 1458 l 5
 410 1661 l 1
 1201 1658 l 1
EndSplineSet
Validated: 1
EndChar

StartChar: uni0306
Encoding: 774 774 328
Width: 1060
VWidth: -12
Flags: W
HStem: 1325 183<691.572 940.181>
LayerCount: 2
Fore
SplineSet
803 1508 m 0
 911 1508 990 1571 1011 1649 c 1
 1224 1619 l 1
 1166 1442 1014 1325 774 1325 c 1
 549 1325 431 1403 427 1628 c 1
 652 1658 l 1
 656 1541 728 1508 803 1508 c 0
EndSplineSet
Validated: 1
EndChar

StartChar: uni0308
Encoding: 776 776 329
Width: 1060
VWidth: -28
Flags: W
HStem: 1414 240<468 700 888 1122>
LayerCount: 2
Fore
SplineSet
888 1654 m 1
 1169 1651 l 1
 1122 1411 l 1
 841 1414 l 1
 888 1654 l 1
468 1654 m 1
 747 1654 l 1
 700 1414 l 1
 421 1414 l 1
 468 1654 l 1
EndSplineSet
Validated: 1
EndChar

StartChar: uni0307
Encoding: 775 775 330
Width: 1060
VWidth: -28
Flags: W
HStem: 1425 246<635 873>
VStem: 588 331
LayerCount: 2
Fore
SplineSet
635 1671 m 1
 919 1671 l 1
 873 1425 l 1
 588 1425 l 1
 635 1671 l 1
EndSplineSet
Validated: 1
EndChar

StartChar: uni030A
Encoding: 778 778 331
Width: 1060
VWidth: -8
Flags: W
HStem: 1278 132<723.419 884.316> 1535 142<730.329 892.047>
VStem: 529 191<1415.96 1521.38> 894 192<1424.68 1530.9>
LayerCount: 2
Fore
SplineSet
819 1535 m 4
 766 1535 727 1504 721 1473 c 4
 720 1470 720 1468 720 1465 c 0
 720 1437 748 1410 795 1410 c 4
 847 1410 887 1442 893 1473 c 4
 894 1476 894 1479 894 1482 c 0
 894 1510 867 1535 819 1535 c 4
532 1473 m 0
 555 1589 700 1677 848 1677 c 0
 983 1677 1086 1604 1086 1503 c 0
 1086 1493 1085 1483 1083 1473 c 0
 1061 1358 930 1278 770 1278 c 0
 630 1278 529 1346 529 1444 c 0
 529 1453 530 1463 532 1473 c 0
EndSplineSet
Validated: 1
EndChar

StartChar: uni0237
Encoding: 567 567 332
Width: 1060
VWidth: 0
Flags: W
HStem: -389 201<315.358 531.515> -28 20G<206.054 261> 834 179<518.258 726.491>
VStem: 735 254<536.195 824.726>
LayerCount: 2
Fore
SplineSet
827 -78 m 1
 797 -231 685 -389 399 -389 c 3
 276 -389 126 -361 40 -156 c 1
 232 -8 l 1
 290 -153 352 -188 415 -188 c 0
 421 -188 428 -188 433 -188 c 3
 553 -188 570 -83 579 -48 c 1
 732 713 l 1
 734 724 735 736 735 746 c 0
 735 799 706 834 650 834 c 0
 600 834 530 806 440 737 c 1
 320 872 l 1
 473 992 563 1013 716 1013 c 1
 941 1013 989 859 989 775 c 0
 989 763 988 751 986 743 c 1
 827 -78 l 1
EndSplineSet
Validated: 1
EndChar

StartChar: uni030B
Encoding: 779 779 333
Width: 1060
VWidth: -43
Flags: W
HStem: 1143 545
LayerCount: 2
Fore
SplineSet
721 1286 m 5
 856 1381 1002 1547 1099 1688 c 5
 1275 1561 l 5
 1182 1417 976 1237 840 1143 c 5
 721 1286 l 5
339 1293 m 5
 474 1388 620 1554 717 1695 c 5
 893 1568 l 5
 800 1424 595 1244 459 1150 c 5
 339 1293 l 5
EndSplineSet
Validated: 1
EndChar

StartChar: uni030C
Encoding: 780 780 334
Width: 1060
VWidth: -10
Flags: W
HStem: 1206 447
LayerCount: 2
Fore
SplineSet
756 1206 m 1
 448 1503 l 1
 619 1641 l 1
 804 1452 l 1
 1083 1653 l 1
 1191 1497 l 1
 756 1206 l 1
EndSplineSet
Validated: 1
EndChar

StartChar: uni030F
Encoding: 783 783 335
Width: 1060
VWidth: -43
Flags: W
HStem: 1170 545
LayerCount: 2
Fore
SplineSet
833 1313 m 1
 657 1170 l 1
 557 1264 423 1444 386 1588 c 1
 611 1715 l 1
 654 1574 734 1408 833 1313 c 1
1218 1320 m 1
 1043 1178 l 1
 943 1272 807 1452 770 1596 c 1
 996 1722 l 1
 1039 1581 1119 1415 1218 1320 c 1
EndSplineSet
Validated: 1
EndChar

StartChar: uni0191
Encoding: 401 401 339
Width: 1060
VWidth: 0
Flags: W
HStem: -303 264<-9 115.696> 642 216<566 852.395> 1115 209<617 1136.92>
LayerCount: 2
Fore
SplineSet
420 78 m 1
 378 -108 272 -303 -60 -303 c 1
 -9 -39 l 1
 95 -39 130 -8 156 85 c 1
 396 1324 l 1
 1081 1324 l 2
 1183 1324 1225 1307 1256 1290 c 1
 1138 1087 l 1
 1115 1101 1096 1114 998 1115 c 1
 927 1115 l 2
 823 1115 800 1115 617 1114 c 1
 566 856 l 1
 686 856 649 858 771 858 c 0
 861 858 924 840 961 822 c 1
 854 620 l 1
 820 637 771 642 726 642 c 0
 684 642 661 642 641 642 c 0
 611 642 589 642 524 640 c 1
 504 539 450 236 420 78 c 1
EndSplineSet
Validated: 1
EndChar

StartChar: florin
Encoding: 402 402 340
Width: 1060
VWidth: -2
Flags: W
HStem: -340 244<77 216.679> 807 205<343 445 743 1015.06> 1217 201<797.852 1013.84>
LayerCount: 2
Fore
SplineSet
569 126 m 1
 517 -120 348 -340 28 -340 c 1
 77 -96 l 1
 219 -96 278 -30 315 138 c 1
 445 807 l 1
 303 807 l 1
 343 1012 l 1
 485 1012 l 1
 488 1028 491 1045 495 1064 c 0
 520 1194 630 1418 946 1418 c 0
 1142 1418 1212 1368 1260 1213 c 1
 1029 1116 l 1
 1019 1198 986 1217 925 1217 c 0
 793 1217 767 1143 755 1083 c 0
 750 1056 743 1012 743 1012 c 1
 811 1012 854 1012 927 1012 c 0
 1032 1012 1071 1000 1099 991 c 1
 1016 794 l 1
 996 801 977 807 921 807 c 2
 701 807 l 1
 569 126 l 1
EndSplineSet
Validated: 1
EndChar

StartChar: alpha
Encoding: 945 945 341
Width: 1060
VWidth: 4
Flags: W
HStem: -32 21G<861 936.919> -7 206<414.61 541.372> 815 203<512.727 640.716> 1017 20G<975 1060.86>
VStem: 136 254<216.122 625.63>
LayerCount: 2
Fore
SplineSet
946 493 m 1xd8
 955 416 951 360 964 263 c 0
 972 205 999 179 1060 153 c 1
 922 -32 l 1
 800 0 761 87 755 147 c 0
 752 170 750 193 747 215 c 1
 653 67 566 -7 435 -7 c 0
 213 -7 136 151 136 346 c 0
 136 404 143 465 155 527 c 0
 226 894 440 1018 615 1018 c 0xe8
 780 1018 847 923 865 767 c 1
 915 866 948 944 1002 1037 c 1
 1208 967 l 1
 1118 841 1031 661 946 493 c 1xd8
408 524 m 0
 395 458 390 406 390 364 c 0
 390 203 466 199 475 199 c 2
 483 199 l 2
 536 199 600 326 673 495 c 1
 669 711 658 815 585 815 c 0
 536 815 448 730 408 524 c 0
EndSplineSet
Validated: 1
EndChar

StartChar: beta
Encoding: 946 946 342
Width: 1060
VWidth: 0
Flags: W
HStem: 0 199<529.476 768.285> 634 207<569 723.341> 1122 206<572.828 758.944>
VStem: 35 233<-284.046 -122.094> 779 253<902.175 1103.21> 837 251<282.88 556.422>
LayerCount: 2
Back
SplineSet
67 1003 m 4xf4
 67 1159 183 1328 390 1328 c 4
 626 1328 798 1243 798 1009 c 5xf4
 798 886 753 815 670 779 c 5
 814 754 972 661 972 381 c 4
 972 76 844 -2 624 -2 c 4
 437 -2 373 95 373 298 c 4
 373 306 374 314 374 322 c 5
 578 320 l 5
 578 257 583 199 646 199 c 4
 700 199 728 247 728 395 c 4xfa
 728 504 664 634 376 634 c 5
 376 840 l 5
 541 840 554 905 554 1003 c 4
 554 1088 472 1122 413 1122 c 5
 346 1122 316 1073 316 1007 c 4
 316 851 321 637 321 450 c 4
 321 410 322 370 322 331 c 4
 322 251 319 176 299 117 c 4
 272 35 169 -9 113 -37 c 5
 21 211 l 5
 41 221 59 235 67 261 c 4
 75 287 76 323 76 398 c 4
 76 413 76 429 76 448 c 4
 76 635 67 829 67 1003 c 4xf4
EndSplineSet
Fore
SplineSet
360 112 m 1xf4
 354 83 350 59 346 39 c 0
 322 -85 295 -203 268 -300 c 1
 35 -283 l 1
 64 -183 89 -74 111 37 c 0
 147 224 255 829 289 1003 c 0
 319 1159 464 1328 662 1328 c 0
 845 1328 1032 1284 1032 1085 c 0xf8
 1032 1062 1029 1037 1024 1010 c 0
 989 832 891 802 853 779 c 1
 989 754 1088 670 1088 495 c 0
 1088 461 1084 423 1076 382 c 0
 1011 50 858 0 614 0 c 0
 612 0 608 0 606 0 c 0
 478 0 436 39 360 112 c 1xf4
655 199 m 0
 777 199 812 291 831 387 c 0
 835 407 837 425 837 442 c 0xf4
 837 583 709 634 529 634 c 1
 569 841 l 1
 709 841 754 883 777 1003 c 0
 778 1010 779 1017 779 1024 c 0
 779 1073 744 1122 660 1122 c 0
 600 1122 556 1083 539 993 c 0
 520 893 474 640 427 398 c 1
 491 223 591 199 655 199 c 0
EndSplineSet
Validated: 1
EndChar

StartChar: gamma
Encoding: 947 947 343
Width: 1060
VWidth: 14
Flags: W
HStem: 1021 20G<228.126 248.5>
LayerCount: 2
Fore
SplineSet
396 -376 m 1
 416 -272 461 -26 461 60 c 0
 461 63 461 66 461 68 c 0
 452 315 375 583 312 740 c 0
 288 799 275 804 264 811 c 0
 251 820 229 820 204 820 c 0
 199 820 194 819 189 819 c 1
 232 1041 l 1
 265 1041 304 1040 331 1036 c 0
 392 1026 464 1010 506 917 c 0
 573 765 625 552 656 351 c 1
 772 568 1002 1061 1002 1061 c 1
 1216 986 l 1
 1216 986 891 387 723 15 c 1
 713 -67 693 -175 670 -291 c 0
 664 -320 659 -350 653 -379 c 1
 396 -376 l 1
EndSplineSet
Validated: 1
EndChar

StartChar: delta
Encoding: 948 948 344
Width: 1060
VWidth: 6
Flags: W
HStem: 1 197<461.413 674.187> 1182 197<548.887 946.828>
VStem: 160 255<237.108 579.219> 292 252<1040.5 1168.06> 795 257<373.65 660.398>
LayerCount: 2
Back
SplineSet
625 247 m 1
 672 299 685 403 685 530 c 0
 685 536 685 540 685 546 c 0
 683 703 648 830 520 830 c 0
 369 830 324 690 324 482 c 0
 324 316 387 197 508 197 c 1
 563 198 589 211 625 247 c 1
507 -6 m 1
 197 -6 72 184 72 464 c 0
 72 835 213 1032 505 1032 c 0
 702 1032 812 963 882 831 c 0
 923 752 941 639 941 543 c 0
 941 258 845 -6 509 -6 c 2
 507 -6 l 1
EndSplineSet
Fore
SplineSet
660 748 m 1xe8
 489 716 441 556 424 469 c 0
 419 442 415 411 415 380 c 0
 415 290 446 198 564 198 c 0
 733 198 778 429 793 506 c 0
 794 513 795 521 795 530 c 0
 795 592 759 688 660 748 c 1xe8
1042 504 m 0
 991 244 848 1 526 1 c 2
 524 1 l 1
 292 2 160 135 160 348 c 0xe8
 160 385 164 423 172 464 c 0
 209 655 319 824 441 854 c 1
 400 876 388 894 365 915 c 0
 331 947 292 1008 292 1073 c 0
 292 1083 293 1093 295 1103 c 0
 341 1341 540 1379 750 1379 c 0
 874 1379 1008 1351 1123 1322 c 1
 1040 1111 l 1
 914 1148 800 1182 704 1182 c 0
 619 1182 544 1177 544 1124 c 0xd8
 544 1098 580 1078 607 1063 c 0
 822 948 1052 858 1052 602 c 0
 1052 572 1049 539 1042 504 c 0
EndSplineSet
Validated: 1
EndChar

StartChar: epsilon
Encoding: 949 949 345
Width: 1060
VWidth: 0
Flags: W
HStem: -4 197<455.385 847.942> 469 196<557.549 808> 825 199<528.153 1006.22>
VStem: 159 268<226.728 395>
LayerCount: 2
Fore
SplineSet
1064 138 m 1
 983 85 795 -4 572 -4 c 0
 390 -4 301 14 237 73 c 0
 184 123 159 201 159 263 c 0
 159 276 160 289 162 301 c 0
 187 431 268 548 427 584 c 1
 299 598 251 666 251 746 c 0
 251 760 252 774 255 789 c 0
 291 973 533 1024 755 1024 c 2
 768 1024 l 2
 1001 1024 1103 963 1119 951 c 1
 1017 775 l 1
 996 790 863 825 718 825 c 0
 603 825 528 813 518 761 c 0
 518 759 517 756 517 754 c 0
 517 687 720 665 816 665 c 2
 823 665 l 1
 828 665 l 1
 846 665 l 1
 808 468 l 1
 782 468 756 469 730 469 c 0
 529 469 450 418 428 306 c 0
 427 301 427 296 427 291 c 0
 427 245 473 193 636 193 c 0
 804 193 921 249 981 295 c 1
 1064 138 l 1
EndSplineSet
Validated: 1
EndChar

StartChar: zeta
Encoding: 950 950 346
Width: 1060
VWidth: 0
Flags: W
HStem: -347 198<597 750.76> 0 215<504.294 774.015> 1155 197<443.042 865.222> 1356 20G<1167 1239.4>
VStem: 218 262<238.095 589.261> 775 229<-111.306 66>
LayerCount: 2
Fore
SplineSet
479 1414 m 1
 511 1372 543 1352 623 1352 c 0
 789 1352 1099 1358 1235 1376 c 1
 1279 1176 l 1
 1101 978 560 846 494 504 c 0
 484 455 480 412 480 374 c 0
 480 272 515 215 582 215 c 0
 586 215 754 216 758 216 c 0
 932 216 1004 127 1004 5 c 0
 1004 -18 1002 -41 997 -66 c 0
 952 -297 687 -337 595 -347 c 1
 597 -149 l 1
 684 -136 766 -115 773 -77 c 0
 775 -69 775 -62 775 -55 c 0
 775 -2 726 0 648 0 c 0
 642 0 636 0 628 0 c 0
 624 0 494 0 490 0 c 0
 326 0 218 117 218 337 c 0
 218 387 224 443 236 504 c 0
 305 861 594 991 872 1164 c 1
 741 1157 733 1155 605 1155 c 0
 491 1155 377 1175 318 1274 c 1
 479 1414 l 1
EndSplineSet
Validated: 1
EndChar

StartChar: eta
Encoding: 951 951 347
Width: 1060
VWidth: 6
Flags: W
HStem: 0 21G<110 365.847> 819 207<632.674 917> 1032 20G<413.583 516>
VStem: 277 251<927 1006.09> 669 253<-314.845 61.7188> 843 273<612.836 924>
LayerCount: 2
Fore
SplineSet
1011 296 m 1xf4
 942 -61 l 2
 932 -112 922 -204 922 -266 c 0
 922 -285 923 -301 925 -312 c 1
 675 -374 l 1
 673 -333 669 -296 669 -248 c 0xf8
 669 -202 673 -147 688 -68 c 2
 742 210 l 1
 839 717 l 2
 842 732 843 745 843 756 c 0
 843 801 820 819 767 819 c 0
 704 819 597 781 498 707 c 1
 362 0 l 1
 110 0 l 1
 247 706 l 2
 270 824 277 876 277 924 c 0
 277 949 275 972 273 1004 c 1
 514 1052 l 1
 518 1031 528 987 528 943 c 0
 528 938 528 932 528 927 c 1
 594 977 733 1026 843 1026 c 0
 991 1026 1116 988 1116 860 c 0
 1116 846 1114 830 1111 814 c 2
 1011 296 l 1xf4
EndSplineSet
Validated: 1
EndChar

StartChar: theta
Encoding: 952 952 348
Width: 1060
VWidth: 0
Flags: W
HStem: -16 203<430.841 653.413> 567 222<461.781 824> 1147 203<628.057 831.918>
VStem: 126 264<228.391 548.623> 876 257<791.969 1102.8>
LayerCount: 2
Fore
SplineSet
405 277 m 0
 438 203 472 187 546 187 c 0
 625 187 686 249 732 326 c 1
 762 372 799 476 824 566 c 1
 807 566 790 567 772 567 c 0
 687 567 581 562 405 549 c 1
 397 496 390 435 390 381 c 0
 390 339 394 302 405 277 c 0
784 1350 m 1
 918 1350 1133 1299 1133 917 c 0
 1133 841 1124 752 1105 647 c 1
 1103 636 l 2
 1071 469 1008 312 942 217 c 0
 838 70 672 -16 507 -16 c 0
 385 -16 244 25 183 127 c 0
 143 193 126 274 126 367 c 0
 126 432 134 503 149 579 c 0
 217 931 308 1090 397 1187 c 0
 481 1279 627 1347 784 1350 c 1
867 789 m 1
 873 833 876 878 876 919 c 0
 876 952 874 983 869 1009 c 0
 850 1115 804 1147 744 1147 c 0
 679 1147 636 1122 582 1051 c 0
 537 992 493 906 455 774 c 1
 600 786 724 789 828 789 c 0
 841 789 854 789 867 789 c 1
EndSplineSet
Validated: 1
EndChar

StartChar: iota
Encoding: 953 953 349
Width: 1060
VWidth: 0
Flags: W
HStem: -18 202<632.5 838.17> 813 200<294.635 522>
VStem: 397 278<119.5 396.496>
LayerCount: 2
Fore
SplineSet
561 1013 m 2
 816 1013 l 1
 763 740 678 296 678 296 c 2
 676 285 675 275 675 265 c 0
 675 217 700 184 748 184 c 0
 793 184 891 252 925 336 c 1
 1086 238 l 1
 1029 98 903 -18 675 -18 c 0
 590 -18 500 -4 461 20 c 0
 410 51 397 97 397 142 c 0
 397 164 400 186 404 206 c 2
 522 813 l 1
 473 813 382 807 283 785 c 1
 290 971 l 1
 389 999 481 1013 561 1013 c 2
EndSplineSet
Validated: 1
EndChar

StartChar: kappa
Encoding: 954 954 350
Width: 1060
VWidth: 0
Flags: W
HStem: 0 5G<90 351.902 779 832.27> 1002 20G<285.106 547 1054 1092.1>
LayerCount: 2
Fore
SplineSet
708 588 m 1
 805 469 1027 248 1051 110 c 1
 791 -16 l 1
 767 95 613 251 508 380 c 1
 508 380 440 318 396 246 c 1
 348 0 l 1
 90 0 l 1
 289 1022 l 1
 547 1022 l 1
 479 676 l 1
 610 821 1026 1038 1082 1058 c 1
 1184 856 l 1
 955 738 782 662 708 588 c 1
EndSplineSet
Validated: 1
EndChar

StartChar: lambda
Encoding: 955 955 351
Width: 1060
VWidth: 14
Flags: W
HStem: 0 244<856.5 1032.07> 1178 211<468.874 660.5>
LayerCount: 2
Fore
SplineSet
202 -39 m 1
 16 103 l 1
 114 237 451 630 616 978 c 1
 599 1084 592 1178 534 1178 c 0
 482 1178 464 1140 457 1102 c 1
 247 1104 l 1
 288 1317 427 1389 586 1389 c 0
 735 1389 800 1298 814 1200 c 0
 851 948 895 504 913 348 c 1
 920 283 928 244 964 244 c 1
 990 244 1027 265 1027 265 c 1
 1060 52 l 1
 1034 28 1004 0 902 0 c 0
 811 0 719 89 695 250 c 0
 684 330 665 479 655 606 c 1
 571 459 400 228 202 -39 c 1
EndSplineSet
Validated: 1
EndChar

StartChar: nu
Encoding: 957 957 353
Width: 1060
VWidth: 6
Flags: W
HStem: -8 21G<354 516.5> 1034 20G<387.538 481.5 1069.29 1142.5>
VStem: 903 262<603.726 981.42>
LayerCount: 2
Fore
SplineSet
424 1054 m 1
 539 771 579 508 597 251 c 1
 792 372 850 488 892 704 c 0
 900 746 903 782 903 814 c 0
 903 889 886 938 878 972 c 1
 1131 1054 l 1
 1154 993 1165 927 1165 859 c 0
 1165 815 1161 771 1152 726 c 0
 1048 190 683 -8 350 -8 c 1
 358 33 362 80 362 131 c 0
 362 399 263 770 187 924 c 1
 424 1054 l 1
EndSplineSet
Validated: 1
EndChar

StartChar: xi
Encoding: 958 958 354
Width: 1060
VWidth: 0
Flags: W
HStem: -347 198<603 755.602> 0 215<452.843 775.378> 661 197<773.604 932> 1155 197<448.412 672.934> 1356 20G<1055 1127.82>
VStem: 154 269<143 427.717> 464 269<883.756 1007.65> 780 229<-114.829 82>
LayerCount: 2
Fore
SplineSet
478 1428 m 1
 510 1386 549 1352 631 1352 c 0
 795 1352 987 1358 1123 1376 c 1
 1171 1177 l 1
 1075 1103 751 1046 735 964 c 0
 734 957 733 950 733 944 c 0
 733 869 832 858 971 858 c 1
 932 661 l 1
 655 595 456 504 424 339 c 0
 423 335 423 331 423 326 c 0
 423 285 454 215 588 215 c 0
 590 215 760 216 762 216 c 0
 906 216 1009 155 1009 9 c 0
 1009 -14 1006 -39 1001 -66 c 0
 959 -280 725 -335 601 -347 c 1
 603 -149 l 1
 690 -136 769 -117 777 -77 c 0
 779 -68 780 -60 780 -53 c 0
 780 -15 752 0 678 0 c 0
 670 0 664 0 658 0 c 0
 654 0 498 0 494 0 c 0
 317 0 154 46 154 240 c 0
 154 266 157 294 163 325 c 0
 212 577 457 716 580 752 c 1
 545 762 464 790 464 906 c 0
 464 924 466 944 470 967 c 0
 487 1057 577 1125 676 1161 c 1
 676 1161 617 1155 587 1155 c 0
 471 1155 378 1182 318 1264 c 1
 478 1428 l 1
EndSplineSet
Validated: 1
EndChar

StartChar: pi
Encoding: 960 960 356
Width: 1060
VWidth: 6
Flags: W
HStem: 0 237<795.5 1011.7> 822 198<593 726.153 986 1087.51>
VStem: 658 251<152.5 526.824> 729 261<488.813 821.088>
LayerCount: 2
Fore
SplineSet
1012 1020 m 0xd0
 1053 1020 1071 1038 1105 1088 c 1
 1241 1014 l 1
 1195 940 1149 822 1017 822 c 2
 986 822 l 1
 989 808 990 792 990 774 c 0xd0
 990 733 983 678 965 587 c 2
 912 316 l 2
 910 304 909 293 909 284 c 0
 909 253 920 237 937 237 c 0
 962 237 979 240 1001 259 c 1
 1067 85 l 1
 1029 43 979 0 852 0 c 0
 739 0 658 99 658 206 c 0xe0
 658 315 667 365 709 583 c 0
 724 661 729 708 729 740 c 0
 729 779 722 797 714 822 c 1
 593 821 l 1
 475 215 l 2
 461 142 433 44 408 -13 c 1
 162 21 l 1
 193 89 206 146 220 219 c 2
 335 814 l 1
 287 805 263 797 225 770 c 1
 208 956 l 1
 264 988 368 1019 468 1019 c 2
 468 1019 800 1020 1012 1020 c 0xd0
EndSplineSet
Validated: 1
EndChar

StartChar: rho
Encoding: 961 961 357
Width: 1060
VWidth: -2
Flags: W
HStem: -6 198<486.281 677.885> 818 214<567.584 781.823>
VStem: 64 285<-380.192 -310.451 -216.356 38.625> 64 257<-350 40.4081> 818 282<421.336 785.547>
LayerCount: 2
Fore
SplineSet
803 517 m 0xc8
 804 522 805 527 806 532 c 0
 814 572 818 611 818 646 c 0
 818 745 783 818 683 818 c 0
 585 818 483 734 444 533 c 0
 436 492 432 454 432 420 c 0
 432 277 495 192 575 192 c 0
 711 192 771 351 803 517 c 0xc8
211 562 m 2
 268 854 482 1032 744 1032 c 0
 941 1032 1038 963 1082 831 c 0
 1095 792 1100 745 1100 695 c 0
 1100 644 1095 592 1085 543 c 0
 1030 258 901 -6 579 -6 c 2
 577 -6 l 2
 440 -6 397 17 346 96 c 1
 348 79 349 62 349 45 c 0xe8
 349 -15 338 -70 333 -99 c 0
 325 -143 321 -183 321 -218 c 0
 321 -286 333 -337 342 -377 c 1
 75 -438 l 1
 68 -411 64 -364 64 -308 c 0xd8
 64 -236 71 -149 86 -70 c 2
 211 562 l 2
EndSplineSet
Validated: 1
EndChar

StartChar: sigma1
Encoding: 962 962 358
Width: 1060
VWidth: 4
Flags: W
HStem: -347 198<597 750.32> 10 212<513.768 770.383> 807 211<626.319 896.804>
VStem: 208 266<261.549 618.581> 774 230<-114.829 82.5>
LayerCount: 2
Fore
SplineSet
486 528 m 0
 478 485 474 447 474 414 c 0
 474 281 534 225 595 222 c 0
 598 222 764 213 767 213 c 0
 908 205 1004 153 1004 12 c 0
 1004 -11 1002 -38 996 -66 c 0
 954 -280 720 -335 595 -347 c 1
 597 -149 l 1
 684 -136 764 -117 772 -77 c 0
 774 -69 774 -62 774 -55 c 0
 774 -17 746 -4 672 0 c 0
 665 0 659 1 652 1 c 0
 648 1 495 10 491 10 c 0
 428 13 355 34 311 73 c 1
 238 140 208 230 208 342 c 0
 208 398 216 460 229 527 c 0
 295 867 503 1018 818 1018 c 0
 913 1018 1006 999 1061 957 c 0
 1113 917 1148 858 1160 806 c 1
 920 704 l 1
 917 742 899 807 759 807 c 0
 612 807 514 671 486 528 c 0
EndSplineSet
Validated: 1
EndChar

StartChar: sigma
Encoding: 963 963 359
Width: 1060
VWidth: 6
Flags: W
HStem: -6 203<459.176 675.071> 830 202<569.385 788.946>
VStem: 157 260<238.301 580.72> 798 259<386.504 680.17 684.431 689.655 694.061 814> 816 255<421.624 813.081>
LayerCount: 2
Fore
SplineSet
1058 814 m 1xf0
 1067 778 1071 736 1071 692 c 0xe8
 1071 642 1066 590 1057 543 c 0
 1002 258 854 -6 518 -6 c 2
 516 -6 l 2
 262 -6 157 121 157 321 c 0
 157 365 162 413 172 464 c 0
 244 832 420 1029 708 1032 c 0
 710 1032 713 1032 716 1032 c 0
 843 1032 1184 1021 1233 1012 c 1
 1184 804 l 1
 1155 809 1110 812 1058 814 c 1xf0
683 247 m 1
 740 299 773 403 798 530 c 0xf0
 799 536 800 540 801 546 c 0
 811 601 816 643 816 682 c 0
 816 734 807 777 789 828 c 1
 789 828 714 830 691 830 c 0
 540 830 468 690 428 482 c 0
 421 445 417 410 417 379 c 0
 417 269 462 197 556 197 c 1
 611 198 640 211 683 247 c 1
EndSplineSet
Validated: 1
EndChar

StartChar: tau
Encoding: 964 964 360
Width: 1060
VWidth: 0
Flags: W
HStem: -3 220<702.664 841.67> 825 195<292.599 540 791.201 1156>
VStem: 427 267<221.583 512.921>
LayerCount: 2
Fore
SplineSet
768 1020 m 1
 890 1020 l 2
 938 1020 987 1020 1029 1020 c 2
 1176 1020 l 1
 1194 1020 l 1
 1156 823 l 1
 852 825 l 1
 800 825 l 1
 751 621 736 540 713 440 c 1
 705 400 l 2
 697 361 694 329 694 305 c 0
 694 229 726 217 757 217 c 0
 814 217 835 243 878 319 c 1
 1059 233 l 1
 1028 177 913 -3 716 -3 c 0
 511 -3 427 65 427 232 c 0
 427 279 434 334 446 397 c 2
 455 440 l 1
 479 544 496 633 540 826 c 1
 520 825 436 824 436 824 c 2
 366 823 346 811 290 779 c 1
 211 933 l 1
 270 977 373 1019 469 1019 c 2
 768 1020 l 1
EndSplineSet
Validated: 1
EndChar

StartChar: upsilon
Encoding: 965 965 361
Width: 1060
VWidth: 6
Flags: W
HStem: -4 209<347 644.328> 1012 20G<348.172 533 1035.44 1108.5>
VStem: 155 271<219.474 555.944> 266 267<719.969 1004.45> 849 277<546.442 970.73>
LayerCount: 2
Fore
SplineSet
163 364 m 0xe8
 175 424 186 487 198 547 c 0
 234 730 266 899 266 979 c 0
 266 988 266 996 265 1003 c 1
 533 1032 l 1
 533 1029 533 1026 533 1023 c 0xd8
 533 946 499 770 461 573 c 0
 450 517 449 512 438 455 c 0
 431 418 426 380 426 345 c 0
 426 267 449 205 517 205 c 0
 575 205 639 228 710 309 c 0
 785 395 796 431 842 669 c 0
 847 695 849 723 849 752 c 0
 849 825 836 903 829 963 c 1
 1098 1049 l 1
 1119 1002 1126 930 1126 862 c 0
 1126 791 1119 724 1112 690 c 0
 1111 686 1111 682 1110 678 c 0
 1108 666 1105 653 1103 641 c 0
 1066 450 1010 303 802 123 c 0
 726 57 594 -4 431 -4 c 0
 263 -4 155 123 155 287 c 0
 155 312 158 338 163 364 c 0xe8
EndSplineSet
Validated: 1
EndChar

StartChar: phi
Encoding: 966 966 362
Width: 1060
VWidth: 0
Flags: W
HStem: 835 205<791.301 920.931>
VStem: 124 235<217.943 662.916> 929 228<513.47 828.188>
LayerCount: 2
Fore
SplineSet
628 -11 m 1
 590 -215 560 -377 557 -398 c 1
 313 -396 l 1
 315 -375 347 -211 386 -8 c 1
 297 9 228 58 182 133 c 0
 141 198 124 275 124 364 c 0
 124 426 133 495 147 569 c 0
 191 797 281 979 390 1060 c 1
 555 940 l 1
 458 856 410 765 373 573 c 0
 364 525 359 470 359 418 c 0
 359 314 379 219 427 199 c 1
 512 640 l 2
 573 955 743 1040 887 1040 c 0
 1005 1040 1157 1019 1157 783 c 0
 1157 740 1152 690 1141 632 c 2
 1139 621 l 2
 1107 457 1045 272 979 179 c 0
 891 56 764 9 628 -11 c 1
666 196 m 1
 806 229 866 405 911 624 c 1
 915 643 l 2
 924 690 929 726 929 753 c 0
 929 823 899 835 849 835 c 2
 848 835 l 2
 810 835 786 823 751 644 c 0
 723 502 699 369 666 196 c 1
EndSplineSet
Validated: 1
EndChar

StartChar: chi
Encoding: 967 967 363
Width: 1060
VWidth: 14
Flags: W
HStem: -398 228<711.752 899.367> 822 219<232 336.447> 1037 20G<939.487 988.714>
LayerCount: 2
Fore
SplineSet
466 372 m 1xa0
 466 372 407 653 353 754 c 0
 321 812 268 822 190 822 c 1
 232 1041 l 1
 257 1041 279 1041 300 1041 c 0xc0
 403 1041 465 1033 526 934 c 0
 605 805 628 576 628 576 c 1
 760 777 953 1057 953 1057 c 1
 1128 959 l 1
 1128 959 922 650 696 317 c 1
 724 145 797 -170 851 -170 c 0
 863 -170 868 -166 877 -150 c 1
 1001 -250 l 1
 988 -288 917 -398 815 -398 c 0
 610 -398 558 -38 525 78 c 1
 204 -401 l 1
 10 -287 l 1
 466 372 l 1xa0
EndSplineSet
Validated: 1
EndChar

StartChar: psi
Encoding: 968 968 364
Width: 1060
VWidth: 6
Flags: W
HStem: 1012 8G<278.63 449 587.129 828 1092 1177>
VStem: 110 232<209.046 548.199> 220 229<706.373 1006.57> 947 238<588.851 982.933>
LayerCount: 2
Back
SplineSet
618.5 196 m 5
 752.5 229 778.455 405.156 780.5 624 c 5
 780.5 643 l 6
 780.5 812 746.5 835 677 835 c 6
 676 835 l 6
 638.5 835 616.5 823 616.5 644 c 4
 616.5 502 617.5 369 618.5 196 c 5
619.5 -11 m 5
 621.5 -215 623.5 -377 624.5 -398 c 5
 380.5 -396 l 5
 378.5 -375 378.5 -211 378.5 -8 c 5
 286.5 9 207.5 58 146.5 133 c 4
 56.5 243 26.5 389 26.5 569 c 4
 26.5 797 80.5 978.8 173.5 1059.8 c 5
 362.5 939.8 l 5
 281.5 855.8 252.5 765 252.5 573 c 4
 252.5 427.789 300.5 229 378.5 199 c 5
 378.5 640 l 6
 378.5 955 531 1040 675 1040 c 4
 814 1040 1008.5 1010 1008.5 632 c 6
 1008.5 621 l 6
 1008.5 457 982.5 272 934.5 179 c 4
 870.5 56 751.5 9 619.5 -11 c 5
EndSplineSet
Fore
SplineSet
119 366 m 0xd0
 131 426 143 489 155 549 c 0
 191 730 220 899 220 979 c 0
 220 989 220 998 219 1005 c 1
 449 1032 l 1
 449 1029 449 1025 449 1022 c 0xb0
 449 944 417 769 379 573 c 0
 368 517 366 503 355 446 c 0
 346 401 342 362 342 329 c 0
 342 243 371 198 426 198 c 1
 482 482 528 693 573 927 c 2
 591 1020 l 1
 828 1020 l 1
 800 875 l 2
 754 639 720 475 668 212 c 1
 811 251 888 480 938 738 c 0
 945 772 947 805 947 837 c 0
 947 891 939 941 928 985 c 1
 1172 1046 l 1
 1182 1006 1185 951 1185 898 c 0
 1185 840 1181 783 1174 749 c 0
 1173 745 1173 741 1172 737 c 0
 1170 725 1167 712 1165 700 c 0
 1128 509 1078 277 870 97 c 0
 815 49 758 29 629 8 c 1
 603 -124 l 2
 581 -239 569 -295 544 -396 c 1
 306 -395 l 1
 322 -333 331 -290 342 -235 c 0
 351 -188 361 -132 378 -46 c 0
 381 -32 383 -18 386 -4 c 1
 384 -4 383 -4 381 -4 c 0
 196 -4 110 117 110 273 c 0
 110 303 113 334 119 366 c 0xd0
EndSplineSet
Validated: 1
EndChar

StartChar: omega
Encoding: 969 969 365
Width: 1060
VWidth: 6
Flags: W
HStem: -12 212<241 438.484 686.221 795.042> 1019 30G<288 401.4 1060.65 1129>
VStem: 101 238<200.287 562.871> 903 249<435.937 959.628>
LayerCount: 2
Fore
SplineSet
532 684 m 1
 768 703 l 1
 749 618 732 524 713 431 c 1
 712 423 711 414 709 405 c 0
 692 312 684 260 684 232 c 0
 684 206 691 200 705 200 c 0
 782 200 836 270 865 420 c 0
 887 536 903 643 903 737 c 0
 903 816 892 887 865 947 c 1
 1115 1039 l 1
 1143 971 1152 889 1152 806 c 0
 1152 669 1126 529 1109 441 c 0
 1066 218 954 -12 709 -12 c 0
 595 -12 551 20 542 104 c 1
 499 32 459 -10 325 -10 c 0
 157 -10 101 117 101 274 c 0
 101 329 108 386 119 444 c 0
 152 612 215 866 361 1049 c 1
 563 949 l 1
 457 822 396 675 356 468 c 0
 345 410 339 361 339 320 c 0
 339 241 359 196 395 196 c 0
 437 196 457 287 478 395 c 0
 480 404 481 414 483 424 c 0
 503 530 515 584 532 684 c 1
EndSplineSet
Validated: 1
EndChar

StartChar: Gamma
Encoding: 915 915 370
Width: 1060
VWidth: 0
Flags: W
HStem: 0 21G<149 406.882> 1118 210<620 1156.1>
LayerCount: 2
Fore
SplineSet
407 1328 m 1
 1090 1328 l 2
 1165 1328 1224 1310 1268 1294 c 1
 1158 1097 l 1
 1117 1112 1105 1115 1047 1118 c 1
 620 1118 l 1
 403 0 l 1
 149 0 l 1
 407 1328 l 1
EndSplineSet
Validated: 1
EndChar

StartChar: Theta
Encoding: 920 920 374
Width: 1060
VWidth: 0
Flags: W
HStem: -16 203<449.632 659.323> 615 203<542 806> 1147 203<669.448 859.293>
VStem: 129 272<235.708 671.361> 904 267<596.974 1100.79>
LayerCount: 2
Fore
SplineSet
810 1350 m 1
 949 1350 1171 1299 1171 917 c 0
 1171 841 1162 752 1142 647 c 1
 1140 636 l 2
 1107 469 1042 312 973 217 c 0
 866 70 694 -16 523 -16 c 0
 397 -16 251 25 188 127 c 0
 147 193 129 274 129 367 c 0
 129 432 138 503 153 579 c 0
 223 931 318 1090 410 1187 c 0
 497 1279 648 1347 810 1350 c 1
564 187 m 0
 706 187 833 463 870 640 c 1
 874 657 l 2
 889 726 904 825 904 915 c 0
 904 1038 874 1147 769 1147 c 0
 625 1147 481 869 425 592 c 0
 412 527 401 458 401 396 c 0
 401 280 439 187 564 187 c 0
542 818 m 1
 863 818 l 1
 806 615 l 1
 485 615 l 1
 542 818 l 1
EndSplineSet
Validated: 1
EndChar

StartChar: Delta
Encoding: 916 916 384
Width: 1060
VWidth: 0
Flags: W
HStem: 0 199<348 737> 1305 20G<657.588 893.011>
LayerCount: 2
Fore
SplineSet
737 199 m 1
 737 320 702 660 702 869 c 0
 702 922 704 967 710 998 c 1
 672 832 416 343 348 199 c 1
 737 199 l 1
149 0 m 1
 -2 38 l 1
 668 1325 l 1
 891 1325 l 1
 1020 42 l 1
 875 0 l 1
 149 0 l 1
EndSplineSet
Validated: 1
EndChar

StartChar: Lambda
Encoding: 923 923 385
Width: 1060
VWidth: 0
Flags: W
HStem: -27 21G<158.615 239.474 748.124 835.032> 1305 20G<657.588 893.011>
VStem: 749 271<38.6673 184.582>
LayerCount: 2
Fore
SplineSet
473 486 m 1
 230 -27 l 1
 -2 38 l 1
 668 1325 l 1
 891 1325 l 1
 1020 42 l 1
 749 -21 l 1
 726 504 l 1
 726 507 726 510 726 513 c 0
 726 621 701 758 701 883 c 0
 701 923 703 962 710 998 c 1
 671 830 538 625 473 486 c 1
EndSplineSet
Validated: 1
EndChar

StartChar: Xi
Encoding: 926 926 386
Width: 1060
VWidth: 0
Flags: W
HStem: -3 204<132 934.946> 646 203<477 815> 1118 205<349 1097>
LayerCount: 2
Back
SplineSet
102 1319 m 1
 158 1323 228 1323 306 1323 c 0
 337 1323 370 1323 404 1323 c 2
 514 1323 l 2
 663 1323 799 1320 873 1320 c 2
 889 1320 l 1
 889 1118 l 1
 360 1118 l 1
 360 849 l 1
 698 849 l 1
 698 646 l 1
 360 646 l 1
 360 615 l 2
 360 408 358 280 358 201 c 1
 774 203 l 2
 830 203 899 230 899 230 c 1
 971 31 l 1
 923 18 882 -3 784 -3 c 2
 102 -3 l 1
 102 1319 l 1
EndSplineSet
Fore
SplineSet
477 849 m 1
 854 849 l 1
 815 646 l 1
 438 646 l 1
 477 849 l 1
349 1319 m 1
 406 1323 476 1323 554 1323 c 0
 585 1323 618 1323 652 1323 c 2
 763 1323 l 2
 912 1323 1048 1320 1122 1320 c 2
 1137 1320 l 1
 1097 1118 l 1
 307 1118 l 1
 349 1319 l 1
132 201 m 1
 805 203 l 2
 861 203 935 230 935 230 c 1
 969 31 l 1
 918 18 872 -3 774 -3 c 2
 92 -3 l 1
 132 201 l 1
EndSplineSet
Validated: 1
EndChar

StartChar: Pi
Encoding: 928 928 387
Width: 1060
VWidth: 0
Flags: W
HStem: 0 21G<130 388.931 679.5 930> 1100 196<601 864 1118 1221>
VStem: 677 253<9 365.803>
LayerCount: 2
Fore
SplineSet
385 0 m 1
 130 0 l 1
 341 1087 l 1
 311 1083 283 1078 252 1072 c 1
 247 1266 l 1
 343 1287 463 1296 583 1296 c 2
 1259 1296 l 1
 1221 1100 l 1
 1118 1100 l 1
 977 378 l 2
 952 251 939 126 930 9 c 1
 677 -4 l 1
 682 117 700 255 725 384 c 2
 864 1100 l 1
 721 1100 l 2
 677 1100 639 1100 601 1099 c 1
 385 0 l 1
EndSplineSet
Validated: 1
EndChar

StartChar: Sigma
Encoding: 931 931 388
Width: 1060
VWidth: 0
Flags: W
HStem: 0 201<467 980.946> 1118 205<638 1143>
LayerCount: 2
Fore
SplineSet
662 658 m 1
 279 1134 l 1
 433 1322 l 1
 456 1324 474 1324 493 1324 c 0
 522 1324 553 1323 600 1323 c 0
 631 1323 664 1323 698 1323 c 2
 809 1323 l 2
 957 1323 1093 1320 1168 1320 c 2
 1183 1320 l 1
 1143 1118 l 1
 638 1118 l 1
 952 726 l 1
 914 566 l 1
 467 201 l 1
 594 202 723 202 851 203 c 0
 907 203 981 230 981 230 c 1
 1015 31 l 1
 964 18 918 -3 820 -3 c 2
 176 0 l 1
 95 183 l 1
 662 658 l 1
EndSplineSet
Validated: 1
EndChar

StartChar: Phi
Encoding: 934 934 389
Width: 1060
VWidth: 0
Flags: W
HStem: 0 21G<360 655>
VStem: 129 236<448.632 786.344> 951 235<605.678 982.679>
LayerCount: 2
Fore
SplineSet
446 420 m 1
 559 1004 l 1
 553 1000 548 996 542 991 c 0
 468 933 404 840 371 669 c 0
 367 649 365 625 365 601 c 0
 365 545 377 486 406 453 c 0
 416 440 431 429 446 420 c 1
731 412 m 1
 770 430 805 455 831 483 c 1
 875 524 925 634 939 703 c 1
 941 715 l 2
 947 746 951 782 951 818 c 0
 951 868 943 918 923 957 c 0
 904 994 879 1019 850 1035 c 1
 818 864 790 715 740 460 c 2
 731 412 l 1
407 214 m 1
 329 231 259 261 217 308 c 0
 160 372 129 455 129 552 c 0
 129 585 133 620 140 656 c 0
 193 927 295 1050 384 1125 c 0
 436 1169 513 1206 603 1228 c 1
 623 1333 l 1
 643 1434 l 1
 927 1434 l 1
 896 1276 l 2
 894 1264 891 1253 889 1242 c 1
 1029 1218 1186 1135 1186 870 c 0
 1186 823 1181 769 1170 709 c 1
 1168 700 l 2
 1143 571 1073 450 1009 377 c 0
 933 292 819 233 692 209 c 1
 677 135 665 81 645 0 c 1
 360 1 l 1
 377 69 387 115 399 175 c 0
 401 187 404 200 407 214 c 1
EndSplineSet
Validated: 1
EndChar

StartChar: Psi
Encoding: 936 936 390
Width: 1060
VWidth: 6
Flags: W
HStem: 0 21G<425 689> 440 216<465.084 516 798 895.037>
VStem: 199 252<671.299 1020.77> 298 255<1108.7 1413.4> 1070 260<1125.69 1415>
LayerCount: 2
Fore
SplineSet
209 839 m 0xe8
 222 904 233 965 244 1021 c 0
 276 1185 298 1306 298 1381 c 0
 298 1393 297 1403 296 1412 c 1
 553 1441 l 1
 553 1436 553 1431 553 1426 c 0xd8
 553 1348 532 1229 497 1050 c 0
 487 998 484 985 472 923 c 0
 460 861 451 808 451 766 c 0
 451 696 477 656 561 656 c 1
 610 896 654 1111 696 1325 c 2
 715 1427 l 1
 951 1428 l 1
 920 1270 l 2
 882 1073 845 887 798 656 c 1
 933 656 959 772 1027 1121 c 1
 1045 1221 1062 1330 1070 1415 c 1
 1330 1433 l 1
 1323 1344 1306 1234 1292 1162 c 0
 1289 1148 1287 1136 1285 1125 c 0
 1211 742 1146 443 767 443 c 1
 735 290 704 138 674 0 c 1
 425 0 l 1
 442 68 476 239 488 299 c 0
 497 344 507 392 516 440 c 1
 288 440 199 578 199 741 c 0
 199 773 203 806 209 839 c 0xe8
EndSplineSet
Validated: 1
EndChar

StartChar: Omega
Encoding: 937 937 391
Width: 1060
VWidth: 0
Flags: W
HStem: 1 216<69 244 868 1079.16> 1225 217<645.258 897.36>
VStem: 130 269<357.144 819.298> 964 258<694.383 1155.48>
LayerCount: 2
Fore
SplineSet
405 1 m 1
 29 1 l 1
 69 217 l 1
 244 217 l 1
 185 319 130 429 130 567 c 0
 130 601 133 637 141 676 c 0
 214 1052 310 1157 404 1261 c 0
 492 1359 638 1442 819 1442 c 0
 1023 1442 1222 1376 1222 1020 c 0
 1222 943 1213 851 1192 744 c 2
 1189 732 l 2
 1136 461 983 325 868 217 c 1
 951 218 l 2
 1010 218 1080 246 1080 246 c 1
 1084 33 l 1
 1032 19 993 0 917 0 c 0
 915 0 913 0 911 0 c 2
 629 0 l 1
 623 211 l 1
 690 272 872 444 928 734 c 2
 931 753 l 2
 933 765 936 775 938 787 c 0
 952 857 964 924 964 990 c 0
 964 1019 962 1048 956 1076 c 0
 934 1189 847 1225 780 1225 c 0
 708 1225 640 1195 581 1120 c 0
 512 1032 461 943 410 683 c 0
 402 643 399 602 399 562 c 0
 399 394 460 242 504 215 c 1
 405 1 l 1
EndSplineSet
Validated: 1
EndChar

StartChar: tonos
Encoding: 900 900 392
Width: 1060
VWidth: -43
Flags: W
HStem: 1222 454
VStem: 585 450
LayerCount: 2
Fore
SplineSet
585 1334 m 1
 703 1451 741 1523 810 1676 c 1
 1035 1622 l 1
 972 1468 865 1338 747 1222 c 1
 585 1334 l 1
EndSplineSet
Validated: 1
EndChar

StartChar: uni03D0
Encoding: 976 976 413
Width: 1060
VWidth: 0
Flags: W
HStem: 0 202<499.561 753.757> 632 206<491 701.217> 1120 208<579.785 746.358>
VStem: 180 253<273.408 617.995> 763 252<906.7 1101.24> 820 251<275.047 559.246>
LayerCount: 2
Back
SplineSet
588 199 m 4xf8
 710 199 728 291 728 387 c 4xf4
 728 570 580 634 378 634 c 5
 378 841 l 5
 517 841 554 883 554 1003 c 4
 554 1058 509 1122 414 1122 c 5
 354 1122 318 1083 318 993 c 4
 318 893 321 640 322 398 c 5
 419 223 524.334 199 588 199 c 4xf8
309 112 m 5
 309 83 309 59 309 39 c 4
 309 -85 306 -203 298 -300 c 5
 62 -283 l 5
 72 -183 75 -74 75 37 c 4
 75 224 66 829 66 1003 c 4
 66 1159 177 1328 376 1328 c 4
 579 1328 799 1274 799 1010 c 4xf8
 799 832 708 802 673 779 c 5
 841 749.5 973 636.5 973 382.5 c 4
 973 50 829 0 585 0 c 4
 583 0 580 0 578 0 c 4
 449 0 399 39 309 112 c 5
EndSplineSet
Fore
SplineSet
222 736 m 0xf4
 304 1156 458 1328 682 1328 c 0
 845 1328 1015 1272 1015 1084 c 0xf8
 1015 1062 1012 1037 1007 1011 c 0
 987 909 934 816 831 779 c 1
 971 756 1071 667 1071 491 c 0
 1071 458 1068 421 1060 381 c 0
 1007 106 885 0 553 0 c 0
 266 0 180 157 180 386 c 0
 180 490 197 610 222 736 c 0xf4
491 838 m 1
 650 838 732 854 761 1005 c 0
 763 1013 763 1021 763 1028 c 0
 763 1091 708 1120 642 1120 c 0
 584 1120 524 1008 491 838 c 1
451 619 m 1
 439 556 433 501 433 454 c 0
 433 273 514 202 607 202 c 0
 755 202 789 261 815 395 c 0
 818 412 820 427 820 442 c 0xf4
 820 572 704 632 582 632 c 0
 549 632 501 629 451 619 c 1
EndSplineSet
Validated: 1
EndChar

StartChar: theta1
Encoding: 977 977 414
Width: 1060
VWidth: 0
Flags: W
HStem: -16 203<441.034 671.262> 564 228<504.354 848.783> 1140 210<611.829 886.595>
VStem: 130 263<234.724 508> 231 247<818.753 1013.35> 918 237<789.068 1108.84>
LayerCount: 2
Fore
SplineSet
899 786 m 1xec
 907 861 918 929 918 984 c 0
 918 1081 886 1140 759 1140 c 0
 636 1140 506 1049 482 927 c 0
 480 914 478 903 478 892 c 0
 478 809 553 792 652 792 c 0
 832 792 849 791 899 786 c 1xec
240 922 m 0
 287 1165 505 1350 794 1350 c 0
 929 1350 1155 1299 1155 910 c 0
 1155 836 1147 748 1128 647 c 1
 1126 636 l 2
 1094 469 1018 312 952 217 c 0
 848 70 682 -16 517 -16 c 0
 395 -16 254 25 193 127 c 0
 150 198 130 319 130 434 c 0
 130 459 131 484 133 508 c 1
 400 558 l 1
 396 518 393 465 393 416 c 0xf4
 393 361 397 310 408 284 c 0
 433 224 476 187 556 187 c 0
 641 187 707 249 755 326 c 1
 786 371 825 472 850 562 c 1
 824 563 796 564 766 564 c 0
 481 564 231 592 231 835 c 0
 231 861 234 890 240 922 c 0
EndSplineSet
Validated: 1
EndChar

StartChar: Upsilon1
Encoding: 978 978 415
Width: 1060
VWidth: 4
Flags: W
HStem: 0 21G<388 652.901> 1038 21G<1058 1178.12> 1356 20G<1027 1171.5>
LayerCount: 2
Fore
SplineSet
710 1020 m 1
 801 1165 944 1376 1110 1376 c 0
 1233 1376 1271 1319 1271 1224 c 0
 1271 1182 1264 1132 1253 1076 c 0
 1253 1074 1252 1072 1252 1070 c 1
 1055 1038 l 1
 1061 1080 1068 1135 1070 1148 c 1
 1049 1135 826 907 775 646 c 2
 649 0 l 1
 388 0 l 1
 512 637 l 2
 516 660 519 686 519 712 c 0
 519 890 418 1119 253 1162 c 1
 369 1405 l 1
 559 1363 684 1162 710 1020 c 1
EndSplineSet
Validated: 1
EndChar

StartChar: phi1
Encoding: 981 981 418
Width: 1060
VWidth: 6
Flags: W
HStem: 1356 20G<633.129 908>
VStem: 89 245<266.517 589.823> 885 252<428.071 778.981>
LayerCount: 2
Fore
SplineSet
527 794 m 1
 424 740 370 627 342 482 c 0
 337 455 334 429 334 405 c 0
 334 326 363 263 422 228 c 1
 455 405 492 606 527 794 c 1
380 5 m 1
 176 41 89 163 89 337 c 0
 89 377 93 419 102 464 c 0
 163 779 317 968 569 1018 c 1
 588 1120 605 1211 619 1283 c 2
 637 1376 l 1
 908 1376 l 1
 880 1231 l 2
 868 1171 855 1100 841 1023 c 1
 987 1001 1067 936 1111 831 c 0
 1129 786 1137 731 1137 674 c 0
 1137 630 1132 585 1124 543 c 0
 1076 294 945 61 654 6 c 1
 645 -42 l 2
 623 -157 611 -213 586 -314 c 1
 314 -313 l 1
 330 -251 339 -208 350 -153 c 0
 358 -112 367 -64 380 5 c 1
731 247 m 1
 809 299 847 403 872 530 c 0
 873 536 874 540 875 546 c 0
 881 580 885 612 885 642 c 0
 885 717 863 777 802 808 c 1
 767 615 730 406 696 228 c 1
 707 234 719 240 731 247 c 1
EndSplineSet
Validated: 1
EndChar

StartChar: omega1
Encoding: 982 982 419
Width: 1060
VWidth: 6
Flags: W
HStem: -12 212<241 438.484 686.221 795.042> 821 201<233 268 488.648 864.766 1105 1187>
VStem: 101 238<200.287 546.193> 865 244<286.101 599.326 605.745 612.002 618.097 821> 883 241<324.471 817.81>
LayerCount: 2
Fore
SplineSet
233 1018 m 1xf0
 290 1022 373 1022 451 1022 c 0
 482 1022 515 1022 549 1022 c 2
 659 1022 l 2
 808 1022 1135 1018 1209 1018 c 2
 1225 1018 l 1
 1187 821 l 1
 1105 821 l 1
 1118 751 1124 681 1124 615 c 0xe8
 1124 551 1118 490 1109 441 c 0
 1066 218 954 -12 709 -12 c 0
 595 -12 551 20 542 104 c 1
 499 32 459 -10 325 -10 c 0
 157 -10 101 117 101 274 c 0
 101 329 108 386 119 444 c 0
 142 560 192 691 268 821 c 1
 197 821 l 1
 233 1018 l 1xf0
532 684 m 1
 768 703 l 1
 749 618 732 524 713 431 c 1
 712 423 711 414 709 405 c 0
 692 312 684 260 684 232 c 0
 684 206 691 200 705 200 c 0
 782 200 836 270 865 420 c 0xf0
 878 485 883 545 883 602 c 0
 883 682 872 755 854 821 c 1
 518 821 l 1
 447 725 385 616 356 468 c 0
 345 410 339 361 339 320 c 0
 339 241 359 196 395 196 c 0
 437 196 457 287 478 395 c 0
 480 404 481 414 483 424 c 0
 503 530 515 584 532 684 c 1
EndSplineSet
Validated: 1
EndChar

StartChar: uni03D7
Encoding: 983 983 420
Width: 1060
VWidth: 0
Flags: W
HStem: -365 187<607 800.388> 0 199<724.003 862.249> 824 196<364.9 591>
VStem: 463 252<671.21 904> 536 260<74.5 283.154>
LayerCount: 2
Fore
SplineSet
184 838 m 1xf0
 184 838 296 1020 522 1020 c 0
 660 1020 715 956 715 852 c 0xf0
 715 829 712 804 707 778 c 0
 694 712 667 655 636 609 c 1
 636 609 712 675 785 726 c 2
 805 740 l 1
 866 880 958 1021 1094 1021 c 0
 1180 1021 1205 973 1205 920 c 0
 1205 907 1204 892 1201 879 c 0
 1180 769 1013 668 895 588 c 1
 851 511 828 436 811 346 c 2
 809 336 l 2
 803 302 796 269 796 243 c 0
 796 217 803 199 822 199 c 0
 854 199 900 237 942 287 c 1
 1067 191 l 1
 1063 169 l 2
 1054 124 1047 81 1039 41 c 0
 989 -216 935 -365 569 -365 c 1
 607 -178 l 1
 810 -178 826 -156 861 26 c 0
 862 29 862 33 863 36 c 1
 832 16 794 0 737 0 c 0
 652 0 536 10 536 139 c 0xe8
 536 155 538 173 542 193 c 0
 561 291 598 369 629 415 c 1
 575 381 566 377 493 326 c 1
 477 313 l 1
 403 171 270 1 133 1 c 2
 132 1 l 2
 79 1 45 34 45 97 c 0
 45 110 46 123 49 138 c 0
 79 294 198 352 316 432 c 1
 360 509 439 636 456 726 c 0
 461 752 463 771 463 785 c 0
 463 821 448 824 429 824 c 0
 402 824 350 769 296 704 c 1
 184 838 l 1xf0
EndSplineSet
Validated: 1
EndChar

StartChar: uni03CF
Encoding: 975 975 421
Width: 1060
VWidth: 0
Flags: W
HStem: -364 177<589 746.295> -5 21G<74 335.91> 1315 20G<330.119 592 1042 1082.31>
LayerCount: 2
Fore
SplineSet
74 -5 m 1
 334 1335 l 1
 592 1335 l 1
 502 871 l 1
 633 1016 1020 1339 1064 1376 c 1
 1226 1199 l 1
 1018 1064 805 856 731 782 c 1
 828 663 1026 232 1050 94 c 1
 1002 -131 926 -364 554 -364 c 1
 589 -187 l 1
 751 -187 778 -125 796 -32 c 1
 772 79 636 445 531 574 c 1
 531 574 463 512 419 440 c 1
 332 -5 l 1
 246 -5 160 -5 74 -5 c 1
EndSplineSet
Validated: 1
EndChar

StartChar: uni03D8
Encoding: 984 984 422
Width: 1060
VWidth: 0
Flags: W
HStem: 1147 203<612.068 825.141>
VStem: 106 264<239.714 692.912> 878 259<571.203 1094.3>
LayerCount: 2
Fore
SplineSet
389 284 m 0
 414 224 458 187 538 187 c 0
 624 187 688 249 736 326 c 1
 777 385 831 541 851 640 c 1
 855 657 l 2
 868 726 878 809 878 885 c 0
 878 928 875 968 868 1002 c 0
 846 1108 801 1147 736 1147 c 0
 666 1147 620 1122 563 1051 c 0
 497 968 433 835 386 592 c 0
 376 542 370 479 370 421 c 0
 370 367 375 316 389 284 c 0
775 1350 m 1
 910 1350 1137 1298 1137 909 c 0
 1137 835 1129 748 1110 647 c 1
 1108 636 l 2
 1076 469 999 312 933 217 c 1
 856 108 743 31 623 0 c 1
 562 -316 l 1
 316 -316 l 1
 376 -3 l 1
 292 16 216 58 175 127 c 0
 130 202 106 296 106 405 c 0
 106 460 112 518 124 579 c 0
 192 931 299 1090 388 1187 c 0
 472 1279 618 1347 775 1350 c 1
EndSplineSet
Validated: 1
EndChar

StartChar: uni03D9
Encoding: 985 985 423
Width: 1060
VWidth: 6
Flags: W
HStem: 830 202<564.876 786.14>
VStem: 157 260<236.724 581.159> 814 258<425.211 804.393>
LayerCount: 2
Fore
SplineSet
382 9 m 1
 225 48 157 163 157 323 c 0
 157 367 162 414 172 464 c 0
 244 835 424 1032 716 1032 c 0
 913 1032 1010 963 1054 831 c 0
 1067 792 1072 745 1072 695 c 0
 1072 644 1067 592 1057 543 c 0
 1008 291 887 55 627 4 c 1
 565 -315 l 1
 319 -315 l 1
 382 9 l 1
683 247 m 1
 740 299 773 403 798 530 c 0
 799 536 800 540 801 546 c 0
 809 591 814 633 814 671 c 0
 814 765 783 830 691 830 c 0
 540 830 468 690 428 482 c 0
 421 445 417 410 417 379 c 0
 417 269 462 197 556 197 c 1
 611 198 640 211 683 247 c 1
EndSplineSet
Validated: 1
EndChar

StartChar: uni03DB
Encoding: 987 987 424
Width: 1060
VWidth: 4
Flags: W
HStem: -380 198<499 665.137> 807 211<581.008 1159>
VStem: 161 266<254.978 618.581> 700 237<-144.201 -44.6415>
LayerCount: 2
Fore
SplineSet
445 -3 m 0
 406 4 317 29 265 73 c 0
 190 136 161 225 161 335 c 0
 161 394 169 458 183 527 c 0
 249 867 457 1018 772 1018 c 0
 916 1018 1005 1021 1100 1021 c 0
 1132 1021 1164 1021 1199 1020 c 1
 1159 802 l 1
 1135 806 1017 807 899 807 c 0
 831 807 764 807 713 807 c 0
 566 807 468 671 440 528 c 0
 431 482 427 442 427 408 c 0
 427 241 520 209 567 197 c 0
 791 136 937 86 937 -51 c 0
 937 -65 935 -79 932 -95 c 0
 907 -224 780 -378 484 -380 c 1
 499 -182 l 1
 616 -168 689 -152 699 -99 c 0
 700 -96 700 -93 700 -91 c 0
 700 -26 527 -17 445 -3 c 0
EndSplineSet
Validated: 1
EndChar

StartChar: uni03DA
Encoding: 986 986 425
Width: 1060
VWidth: 4
Flags: W
HStem: -380 198<468 634.137> 1110 213<780.116 1197.56> 1128 204<659.557 1188.85>
VStem: 149 262<235.508 726.457> 670 236<-144.201 -45.7781>
LayerCount: 2
Fore
SplineSet
520 187 m 0xb8
 732 141 906 112 906 -45 c 0
 906 -60 904 -77 901 -95 c 0
 876 -224 749 -378 453 -380 c 1
 468 -182 l 1
 585 -168 659 -152 669 -99 c 0
 669 -96 670 -94 670 -92 c 0
 670 -27 492 -19 414 -3 c 1
 226 43 149 204 149 417 c 0
 149 485 157 559 172 636 c 0
 222 895 333 1054 400 1132 c 0
 493 1240 648 1332 823 1332 c 0xb8
 949 1332 1029 1323 1179 1323 c 0
 1196 1323 1214 1323 1233 1323 c 1
 1195 1110 l 1xd8
 1065 1124 862 1128 776 1128 c 0
 661 1128 503 992 432 628 c 0
 418 556 411 491 411 434 c 0
 411 290 453 201 520 187 c 0xb8
EndSplineSet
Validated: 1
EndChar

StartChar: uni03DD
Encoding: 989 989 427
Width: 1060
VWidth: -2
Flags: W
HStem: -347 242<38.9248 237.062> 807 205<771 1043.06> 1217 201<825.852 1168.57>
LayerCount: 2
Fore
SplineSet
603 150 m 2
 554 -103 453 -347 77 -347 c 0
 47 -347 15 -346 -18 -342 c 1
 41 -99 l 1
 68 -103 94 -105 118 -105 c 0
 242 -105 314 -8 345 150 c 2
 523 1064 l 2
 548 1194 658 1418 974 1418 c 0
 1170 1418 1193 1403 1273 1357 c 1
 1144 1163 l 1
 1080 1208 1043 1217 953 1217 c 0
 821 1217 795 1143 783 1083 c 0
 778 1056 771 1012 771 1012 c 1
 839 1012 882 1012 955 1012 c 0
 1060 1012 1099 1000 1127 991 c 1
 1044 794 l 1
 1024 801 1005 807 949 807 c 2
 729 807 l 1
 603 150 l 2
EndSplineSet
Validated: 1
EndChar

StartChar: uni0190
Encoding: 400 400 428
Width: 1060
VWidth: 0
Flags: W
HStem: 0 187<399.974 780.289> 630 205<582.828 750> 1022 21G<1037 1085.84> 1108 189<596.654 993.152>
VStem: 104 256<228.012 498.95> 276 256<885.854 1046.13>
LayerCount: 2
Fore
SplineSet
1021 158 m 1xf8
 940 105 778 0 520 0 c 0
 338 0 251 34 184 106 c 0
 127 168 104 239 104 313 c 0xf8
 104 338 107 364 112 390 c 0
 147 568 255 694 414 730 c 1
 325 761 276 845 276 936 c 0
 276 952 278 969 281 985 c 0
 319 1180 517 1297 807 1297 c 2
 820 1297 l 2
 1053 1297 1147 1234 1213 1193 c 1
 1069 1022 l 1
 1005 1064 917 1108 772 1108 c 0
 652 1108 549 1060 534 985 c 0
 532 977 532 970 532 963 c 0xf4
 532 868 664 835 767 835 c 2
 772 835 l 1
 790 835 l 1
 750 629 l 1
 724 629 698 630 672 630 c 0
 480 630 397 549 366 388 c 0
 362 368 360 349 360 331 c 0
 360 247 408 187 557 187 c 0
 748 187 871 271 931 317 c 1
 1021 158 l 1xf8
EndSplineSet
Validated: 1
EndChar

StartChar: uni0227
Encoding: 551 551 483
Width: 1060
VWidth: 0
Flags: W
HStem: -31 21<852.5 896.939> -11 200<330.5 589.68> 819 209<542.194 761.696> 1181 225<329 620>
VStem: 144 249<196.7 585.735> 329 291<1181 1406> 775 186<79.3457 275>
LayerCount: 2
Fore
SplineSet
329 1406 m 1x36
 620 1406 l 1
 620 1181 l 1
 329 1181 l 1
 329 1406 l 1x36
EndSplineSet
Refer: 0 97 N 1 0 0 1 0 0 3
Validated: 1
EndChar

StartChar: uni0228
Encoding: 552 552 484
Width: 1060
VWidth: 0
Flags: W
HStem: -443 172<343.374 566.321> -3 222<410 431 643.223 983.943> 704 221<549 861> 1219 223<606 1161>
VStem: 570 224<-263.703 -167.055>
LayerCount: 2
Fore
SplineSet
378 1438 m 1
 438 1442 510 1442 592 1442 c 0
 625 1442 659 1442 695 1442 c 2
 811 1442 l 2
 967 1442 1110 1439 1188 1439 c 2
 1204 1439 l 1
 1161 1219 l 1
 606 1219 l 1
 549 925 l 1
 904 925 l 1
 861 704 l 1
 506 704 l 1
 499 670 l 2
 455 444 427 305 410 219 c 1
 847 221 l 2
 906 221 984 251 984 251 c 1
 1018 34 l 1
 965 20 916 -3 813 -3 c 2
 653 -3 l 1
 648 -24 640 -62 640 -64 c 1
 725 -68 794 -113 794 -202 c 0
 794 -214 793 -227 790 -240 c 0
 765 -370 637 -443 479 -443 c 0
 413 -443 324 -425 275 -389 c 1
 364 -241 l 1
 394 -259 435 -271 486 -271 c 0
 522 -271 560 -259 570 -221 c 1
 570 -219 l 2
 571 -216 571 -212 571 -209 c 0
 571 -184 551 -164 509 -164 c 0
 461 -164 428 -166 398 -176 c 1
 431 -3 l 1
 97 -3 l 1
 378 1438 l 1
EndSplineSet
Validated: 1
EndChar

StartChar: uni0229
Encoding: 553 553 485
Width: 1060
VWidth: 0
Flags: W
HStem: -450 172<318.374 541.321> 434 196<493.871 811.981> 818 203<567.305 782.997>
VStem: 171 251<236.674 401.227> 545 224<-270.703 -174.055> 812 250<630.362 790.713>
LayerCount: 2
Fore
SplineSet
464 606 m 1
 581 626 675 630 808 630 c 1
 811 647 812 663 812 678 c 0
 812 775 757 818 680 818 c 0
 578 818 493 722 464 606 c 1
717 1021 m 0
 965 1021 1062 894 1062 680 c 0
 1062 619 1054 551 1040 477 c 0
 1036 457 1030 434 1030 434 c 1
 744 430 529 416 423 396 c 1
 423 390 422 383 422 377 c 0
 422 275 469 196 556 196 c 0
 662 196 699 205 777 294 c 1
 952 166 l 1
 880 80 790 17 630 -3 c 1
 625 -22 616 -68 615 -71 c 1
 700 -75 769 -120 769 -209 c 0
 769 -221 768 -234 765 -247 c 0
 740 -377 612 -450 454 -450 c 0
 388 -450 299 -432 250 -396 c 1
 339 -248 l 1
 369 -266 410 -278 461 -278 c 0
 497 -278 535 -266 545 -228 c 1
 545 -226 l 2
 546 -223 546 -219 546 -216 c 0
 546 -191 526 -171 484 -171 c 0
 436 -171 402 -173 372 -183 c 1
 408 0 l 1
 246 36 171 164 171 349 c 0
 171 401 176 456 188 516 c 0
 244 802 434 1021 717 1021 c 0
EndSplineSet
Validated: 1
EndChar

StartChar: uni0311
Encoding: 785 785 494
Width: 1060
VWidth: -12
Flags: W
HStem: 1358 21G<462 629 966.5 1116> 1508 183<682.68 936.089>
LayerCount: 2
Fore
SplineSet
813 1508 m 0
 738 1508 654 1475 604 1358 c 1
 391 1388 l 1
 483 1613 630 1691 855 1691 c 0
 1085 1691 1192 1583 1192 1419 c 0
 1192 1412 1191 1405 1191 1397 c 1
 966 1367 l 1
 967 1373 967 1379 967 1384 c 0
 967 1454 913 1508 813 1508 c 0
EndSplineSet
Validated: 1
EndChar

StartChar: uni0313
Encoding: 787 787 496
Width: 1060
VWidth: 26
Flags: W
HStem: 1099 498
VStem: 647 321
LayerCount: 2
Fore
SplineSet
748 1597 m 1
 968 1597 l 1
 927 1382 l 2
 898 1231 816 1155 676 1099 c 1
 647 1226 l 1
 712 1254 743 1277 762 1376 c 1
 705 1376 l 1
 748 1597 l 1
EndSplineSet
Validated: 1
EndChar

StartChar: uni0314
Encoding: 788 788 497
Width: 1060
VWidth: 26
Flags: W
HStem: 1099 498<759.991 839.692>
VStem: 682 162<1206.1 1375.29>
LayerCount: 2
Fore
SplineSet
951 1597 m 1
 908 1376 l 1
 851 1376 l 1
 846 1352 844 1332 844 1316 c 0
 844 1265 866 1247 908 1226 c 1
 831 1099 l 1
 734 1145 682 1204 682 1307 c 0
 682 1330 685 1355 690 1382 c 2
 731 1597 l 1
 951 1597 l 1
EndSplineSet
Validated: 1
EndChar

StartChar: uni0312
Encoding: 786 786 508
Width: 1060
VWidth: -43
Flags: W
HStem: 1236 419
VStem: 536 365
LayerCount: 2
Fore
SplineSet
536 1283 m 1
 596 1395 644 1504 718 1655 c 1
 901 1622 l 1
 855 1480 801 1339 760 1236 c 1
 536 1283 l 1
EndSplineSet
Validated: 1
EndChar

StartChar: uni0328
Encoding: 808 808 511
Width: 1060
VWidth: 32
Flags: W
HStem: -460 196<408.644 644.515>
VStem: 152 256<-340 -150.494>
LayerCount: 2
Fore
SplineSet
842 107 m 5
 619 -118 429 -105 409 -207 c 4
 408 -210 408 -212 408 -215 c 0
 408 -252 458 -264 518 -264 c 4
 576 -264 622 -235 656 -213 c 5
 752 -354 l 5
 699 -402 570 -460 470 -460 c 4
 305 -460 152 -414 152 -266 c 0
 152 -251 154 -234 157 -216 c 4
 195 -18 433 -40 606 108 c 5
 842 107 l 5
EndSplineSet
Validated: 1
EndChar

StartChar: ogonek
Encoding: 731 731 512
Width: 1060
VWidth: 32
Flags: W
HStem: -460 196<408.644 644.515>
VStem: 152 256<-340 -150.494>
LayerCount: 2
Fore
SplineSet
842 107 m 5
 619 -118 429 -105 409 -207 c 4
 408 -210 408 -212 408 -215 c 0
 408 -252 458 -264 518 -264 c 4
 576 -264 622 -235 656 -213 c 5
 752 -354 l 5
 699 -402 570 -460 470 -460 c 4
 305 -460 152 -414 152 -266 c 0
 152 -251 154 -234 157 -216 c 4
 195 -18 433 -40 606 108 c 5
 842 107 l 5
EndSplineSet
Validated: 1
EndChar

StartChar: uni01EA
Encoding: 490 490 515
Width: 1060
VWidth: 0
Flags: W
HStem: -506 196<422.666 658.8> 1147 203<628.057 831.918>
VStem: 126 263<228.391 675.552> 167 255<-386 -195.067> 876 257<596.174 1102.8>
LayerCount: 2
Fore
SplineSet
784 1350 m 1xe8
 918 1350 1133 1299 1133 917 c 0
 1133 841 1124 752 1105 647 c 1
 1103 636 l 2
 1071 469 1008 312 942 217 c 1
 757 -61 443 -151 423 -253 c 0
 422 -256 422 -258 422 -261 c 0
 422 -298 472 -310 532 -310 c 0
 590 -310 636 -281 670 -259 c 1
 767 -400 l 1
 714 -448 584 -506 484 -506 c 0
 319 -506 167 -460 167 -312 c 0xd8
 167 -296 168 -280 172 -262 c 0
 190 -167 324 -95 456 -14 c 1
 348 -4 236 39 183 127 c 0
 143 193 126 274 126 367 c 0
 126 432 134 503 149 579 c 0
 217 931 308 1090 397 1187 c 0
 481 1279 627 1347 784 1350 c 1xe8
405 277 m 0
 438 203 472 187 546 187 c 0
 625 187 686 249 732 326 c 1
 770 385 822 541 842 640 c 1
 846 657 l 2
 861 735 876 835 876 921 c 0
 876 953 874 983 869 1009 c 0
 850 1115 804 1147 744 1147 c 0
 679 1147 636 1122 582 1051 c 0
 519 968 459 835 412 592 c 0
 400 533 389 452 389 384 c 0xe8
 389 341 394 302 405 277 c 0
EndSplineSet
Validated: 1
EndChar

StartChar: uni01EB
Encoding: 491 491 516
Width: 1060
VWidth: 0
Flags: W
HStem: -504 196<378.644 614.8> 830 202<554.876 776.14>
VStem: 122 256<-384 -186.492> 147 260<235.881 581.159> 804 258<425.892 804.393>
LayerCount: 2
Fore
SplineSet
837 114 m 1xd8
 595 -108 399 -149 379 -251 c 0
 378 -254 378 -256 378 -259 c 0
 378 -296 428 -308 488 -308 c 0
 546 -308 592 -279 626 -257 c 1
 723 -398 l 1
 670 -446 540 -504 440 -504 c 0
 275 -504 122 -458 122 -310 c 0xe8
 122 -295 124 -278 127 -260 c 0
 152 -131 266 -92 416 0 c 1
 227 27 147 147 147 321 c 0
 147 365 152 413 162 464 c 0
 234 835 414 1032 706 1032 c 0
 903 1032 1000 963 1044 831 c 0
 1057 792 1062 745 1062 695 c 0
 1062 644 1057 592 1047 543 c 0
 1015 377 950 218 837 114 c 1xd8
673 247 m 1
 730 299 763 403 788 530 c 0
 789 536 790 540 791 546 c 0
 799 591 804 633 804 671 c 0
 804 765 773 830 681 830 c 0
 530 830 458 690 418 482 c 0
 411 445 407 410 407 379 c 0xd8
 407 269 452 197 546 197 c 1
 601 198 630 211 673 247 c 1
EndSplineSet
Validated: 1
EndChar

StartChar: uni0326
Encoding: 806 806 519
Width: 1060
VWidth: 26
Flags: W
HStem: -489 493
VStem: 298 363
LayerCount: 2
Fore
SplineSet
391 4 m 1
 661 4 l 1
 619 -211 l 2
 590 -362 539 -430 408 -489 c 1
 298 -364 l 1
 359 -322 391 -283 404 -217 c 1
 348 -217 l 1
 391 4 l 1
EndSplineSet
Validated: 1
EndChar

StartChar: quoteleft
Encoding: 8216 8216 530
Width: 1060
VWidth: -25
Flags: W
VStem: 447 602
LayerCount: 2
Fore
SplineSet
764 808 m 1
 447 888 l 1
 517 1235 760 1438 939 1518 c 1
 1049 1330 l 1
 931 1226 816 1050 764 808 c 1
EndSplineSet
Validated: 1
EndChar

StartChar: quoteright
Encoding: 8217 8217 531
Width: 1060
VWidth: -25
Flags: W
VStem: 520 629
LayerCount: 2
Fore
SplineSet
840 1440 m 1
 1149 1339 l 1
 1057 997 801 811 616 743 c 1
 520 938 l 1
 645 1034 771 1202 840 1440 c 1
EndSplineSet
Validated: 1
EndChar

StartChar: quotesinglbase
Encoding: 8218 8218 532
Width: 1060
VWidth: -25
Flags: W
VStem: 176 614
LayerCount: 2
Fore
SplineSet
479 339 m 1
 790 249 l 1
 709 -96 462 -292 280 -366 c 1
 176 -174 l 1
 297 -74 418 99 479 339 c 1
EndSplineSet
Validated: 1
EndChar

StartChar: quotereversed
Encoding: 8219 8219 533
Width: 1060
VWidth: -25
Flags: W
VStem: 605 326<1130.83 1443>
LayerCount: 2
Fore
SplineSet
934 1443 m 1
 932 1412 931 1398 931 1376 c 0
 931 1369 931 1361 931 1351 c 0
 937 1160 990 1002 1059 891 c 1
 901 742 l 1
 768 856 614 1078 605 1374 c 0
 605 1383 605 1390 605 1396 c 0
 605 1416 606 1427 609 1456 c 1
 934 1443 l 1
EndSplineSet
Validated: 1
EndChar

StartChar: quotedblleft
Encoding: 8220 8220 534
Width: 1060
VWidth: -25
Flags: W
LayerCount: 2
Fore
SplineSet
599 1006 m 0
 582 975 570 944 559 913 c 1
 278 1037 l 1
 291 1076 306 1108 326 1146 c 0
 451 1384 572 1526 711 1602 c 1
 873 1407 l 1
 806 1371 697 1193 599 1006 c 0
1045 987 m 4
 1028 956 1016 926 1005 895 c 5
 725 1018 l 5
 738 1057 751 1090 771 1128 c 4
 896 1366 1018 1507 1157 1583 c 5
 1319 1389 l 5
 1252 1353 1143 1174 1045 987 c 4
EndSplineSet
Validated: 1
EndChar

StartChar: quotedblright
Encoding: 8221 8221 535
Width: 1060
VWidth: -25
Flags: W
LayerCount: 2
Fore
SplineSet
995 1385 m 0
 1012 1416 1023 1447 1034 1478 c 1
 1316 1356 l 1
 1303 1317 1291 1284 1271 1246 c 0
 1148 1007 1028 866 889 788 c 1
 726 981 l 1
 793 1018 899 1197 995 1385 c 0
542 1420 m 0
 559 1451 568 1482 579 1513 c 1
 862 1392 l 1
 849 1353 836 1319 816 1281 c 0
 693 1042 574 901 435 823 c 1
 271 1016 l 1
 338 1053 446 1232 542 1420 c 0
EndSplineSet
Validated: 1
EndChar

StartChar: quotedblbase
Encoding: 8222 8222 536
Width: 1060
VWidth: -25
Flags: W
LayerCount: 2
Fore
SplineSet
707 247 m 4
 722 279 731 310 740 342 c 5
 1028 234 l 5
 1017 194 1005 160 987 121 c 4
 876 -123 763 -270 628 -354 c 5
 456 -169 l 5
 521 -129 620 55 707 247 c 4
255 256 m 0
 270 288 280 319 289 351 c 1
 577 243 l 1
 566 203 555 170 537 131 c 0
 426 -113 312 -261 177 -345 c 1
 4 -160 l 1
 69 -120 168 64 255 256 c 0
EndSplineSet
Validated: 1
EndChar

